<svg xmlns="http://www.w3.org/2000/svg" xmlns:xlink="http://www.w3.org/1999/xlink" width="500" zoomAndPan="magnify" viewBox="0 0 375 374.999991" height="500" preserveAspectRatio="xMidYMid meet" version="1.0"><defs><clipPath id="adfdc1febd"><path d="M 0 21 L 375 21 L 375 362.671875 L 0 362.671875 Z M 0 21 " clip-rule="nonzero"/></clipPath></defs><g clip-path="url(#adfdc1febd)"><path fill="#ffffff" d="M 326.601562 103.960938 C 318.039062 125.835938 294.085938 137.011719 271.953125 130.332031 C 271.027344 121.835938 268.835938 113.433594 265.308594 105.378906 C 260 93.246094 252.054688 82.808594 242.203125 74.523438 C 242.535156 73.453125 242.707031 72.355469 243.117188 71.300781 C 250.03125 53.628906 266.992188 42.800781 284.910156 42.800781 C 290.335938 42.800781 295.839844 43.792969 301.179688 45.882812 C 324.195312 54.882812 335.605469 80.9375 326.601562 103.960938 Z M 246.507812 162.515625 C 233.773438 195.054688 196.917969 211.164062 164.417969 198.449219 C 131.882812 185.722656 115.769531 148.894531 128.492188 116.359375 C 138.269531 91.375 162.238281 76.070312 187.574219 76.070312 C 195.226562 76.070312 203.023438 77.472656 210.570312 80.425781 C 226.332031 86.59375 238.761719 98.527344 245.546875 114.03125 C 252.328125 129.535156 252.671875 146.75 246.507812 162.515625 Z M 108.398438 108.496094 C 105.597656 115.660156 103.933594 122.976562 103.148438 130.285156 C 93.816406 133.140625 83.566406 133.1875 73.808594 129.375 C 62.660156 125.015625 53.867188 116.578125 49.066406 105.609375 C 44.265625 94.640625 44.03125 82.457031 48.398438 71.300781 C 55.308594 53.628906 72.273438 42.800781 90.191406 42.800781 C 95.617188 42.800781 101.121094 43.792969 106.460938 45.882812 C 119.671875 51.050781 128.875 61.902344 132.769531 74.503906 C 122.257812 83.335938 113.742188 94.835938 108.398438 108.496094 Z M 330.472656 135.757812 C 337.367188 129.246094 343.019531 121.214844 346.695312 111.8125 C 360.03125 77.714844 343.140625 39.121094 309.042969 25.789062 C 275.226562 12.5625 237.074219 29.082031 223.417969 62.566406 C 221.769531 61.796875 220.140625 61 218.429688 60.332031 C 195.910156 51.519531 171.890625 53.089844 151.546875 62.605469 C 144.910156 46.332031 131.945312 32.679688 114.328125 25.789062 C 80.207031 12.445312 41.636719 29.351562 28.304688 63.441406 C 21.835938 79.957031 22.199219 98.003906 29.300781 114.25 C 32.914062 122.507812 38.078125 129.765625 44.421875 135.785156 C 18.84375 143.242188 -0.0195312 166.628906 -0.0195312 194.582031 L -0.0195312 246.875 C -0.0195312 252.832031 4.804688 257.660156 10.769531 257.660156 C 16.730469 257.660156 21.554688 252.832031 21.554688 246.875 L 21.554688 194.582031 C 21.554688 172.5625 39.464844 154.652344 61.484375 154.652344 L 104.054688 154.652344 C 107.667969 174.277344 118.058594 192.324219 133.773438 205.1875 C 97.945312 212.417969 70.886719 244.125 70.886719 282.046875 L 70.886719 351.765625 C 70.886719 357.722656 75.710938 362.550781 81.675781 362.550781 C 87.632812 362.550781 92.457031 357.722656 92.457031 351.765625 L 92.457031 282.046875 C 92.457031 250.699219 117.964844 225.203125 149.300781 225.203125 L 225.699219 225.203125 C 257.035156 225.203125 282.542969 250.699219 282.542969 282.046875 L 282.542969 351.765625 C 282.542969 357.722656 287.367188 362.550781 293.324219 362.550781 C 299.289062 362.550781 304.113281 357.722656 304.113281 351.765625 L 304.113281 282.046875 C 304.113281 244.027344 276.910156 212.265625 240.949219 205.148438 C 251.992188 196.195312 261.0625 184.535156 266.601562 170.378906 C 268.613281 165.230469 270.089844 159.96875 271.066406 154.652344 L 313.503906 154.652344 C 335.519531 154.652344 353.445312 172.5625 353.445312 194.582031 L 353.445312 246.875 C 353.445312 252.832031 358.269531 257.660156 364.230469 257.660156 C 370.195312 257.660156 375.019531 252.832031 375.019531 246.875 L 375.019531 194.582031 C 375.019531 166.589844 356.109375 143.179688 330.472656 135.757812 " fill-opacity="1" fill-rule="nonzero"/></g></svg>