<svg xmlns="http://www.w3.org/2000/svg" xmlns:xlink="http://www.w3.org/1999/xlink" width="500" zoomAndPan="magnify" viewBox="0 0 375 374.999991" height="500" preserveAspectRatio="xMidYMid meet" version="1.0"><defs><clipPath id="1bb36ed67e"><path d="M 26.03125 2.964844 L 349 2.964844 L 349 95 L 26.03125 95 Z M 26.03125 2.964844 " clip-rule="nonzero"/></clipPath><clipPath id="077cf865bb"><path d="M 49 118 L 327 118 L 327 371.964844 L 49 371.964844 Z M 49 118 " clip-rule="nonzero"/></clipPath></defs><g clip-path="url(#1bb36ed67e)"><path fill="#ffffff" d="M 337.429688 48.234375 L 256.699219 48.234375 L 256.699219 14.5 C 256.699219 8.15625 251.507812 2.964844 245.164062 2.964844 L 129.832031 2.964844 C 123.488281 2.964844 118.296875 8.15625 118.296875 14.5 L 118.296875 48.234375 L 37.566406 48.234375 C 31.222656 48.234375 26.03125 53.425781 26.03125 59.765625 L 26.03125 82.835938 C 26.03125 89.175781 31.222656 94.367188 37.566406 94.367188 L 337.429688 94.367188 C 343.773438 94.367188 348.964844 89.175781 348.964844 82.835938 L 348.964844 59.765625 C 348.964844 53.425781 343.773438 48.234375 337.429688 48.234375 Z M 337.429688 48.234375 " fill-opacity="1" fill-rule="nonzero"/></g><g clip-path="url(#077cf865bb)"><path fill="#ffffff" d="M 76.777344 361.941406 C 77.355469 367.707031 82.257812 372.03125 88.3125 372.03125 L 286.972656 372.03125 C 292.738281 372.03125 297.640625 367.707031 298.507812 361.941406 L 326.1875 118.585938 L 49.097656 118.585938 Z M 233.632812 324.457031 L 253.816406 163.277344 C 254.679688 156.9375 260.445312 152.609375 266.789062 153.1875 C 273.132812 154.050781 277.457031 159.820312 276.882812 166.164062 L 256.699219 327.339844 C 255.832031 333.109375 250.929688 337.433594 245.164062 337.433594 C 244.589844 337.433594 244.300781 337.433594 243.722656 337.433594 C 237.378906 336.566406 233.054688 330.800781 233.632812 324.457031 Z M 175.964844 164.722656 C 175.964844 158.378906 181.15625 153.1875 187.496094 153.1875 C 193.839844 153.1875 199.03125 158.378906 199.03125 164.722656 L 199.03125 325.898438 C 199.03125 332.242188 193.839844 337.433594 187.496094 337.433594 C 181.15625 337.433594 175.964844 332.242188 175.964844 325.898438 Z M 108.207031 153.1875 C 114.550781 152.324219 120.316406 156.9375 121.179688 163.277344 L 141.363281 324.457031 C 142.230469 330.800781 137.617188 336.566406 131.273438 337.433594 C 130.695312 337.433594 130.40625 337.433594 129.832031 337.433594 C 124.066406 337.433594 119.164062 333.109375 118.296875 327.339844 L 98.113281 166.164062 C 97.539062 159.820312 101.863281 154.050781 108.207031 153.1875 Z M 108.207031 153.1875 " fill-opacity="1" fill-rule="nonzero"/></g></svg>