<svg xmlns="http://www.w3.org/2000/svg" xmlns:xlink="http://www.w3.org/1999/xlink" width="500" zoomAndPan="magnify" viewBox="0 0 375 374.999991" height="500" preserveAspectRatio="xMidYMid meet" version="1.0"><defs><clipPath id="c1741d4d37"><path d="M 3.242188 61.972656 L 371.492188 61.972656 L 371.492188 313.222656 L 3.242188 313.222656 Z M 3.242188 61.972656 " clip-rule="nonzero"/></clipPath></defs><g clip-path="url(#c1741d4d37)"><path fill="#ffffff" d="M 187.496094 61.972656 C 103.8125 61.972656 32.34375 114.023438 3.390625 187.5 C 32.34375 260.972656 103.8125 313.023438 187.496094 313.023438 C 271.179688 313.023438 342.644531 260.972656 371.597656 187.5 C 342.644531 114.023438 271.261719 61.972656 187.496094 61.972656 Z M 187.496094 271.183594 C 141.300781 271.183594 103.8125 233.691406 103.8125 187.5 C 103.8125 141.304688 141.300781 103.816406 187.496094 103.816406 C 233.6875 103.816406 271.179688 141.304688 271.179688 187.5 C 271.179688 233.691406 233.6875 271.183594 187.496094 271.183594 Z M 187.496094 137.289062 C 159.796875 137.289062 137.285156 159.800781 137.285156 187.5 C 137.285156 215.199219 159.796875 237.710938 187.496094 237.710938 C 215.195312 237.710938 237.707031 215.199219 237.707031 187.5 C 237.707031 159.800781 215.195312 137.289062 187.496094 137.289062 Z M 187.496094 137.289062 " fill-opacity="1" fill-rule="nonzero"/></g></svg>