<svg xmlns="http://www.w3.org/2000/svg" xmlns:xlink="http://www.w3.org/1999/xlink" width="238" zoomAndPan="magnify" viewBox="0 0 178.5 195.000001" height="260" preserveAspectRatio="xMidYMid meet" version="1.0"><defs><clipPath id="948ff66a7c"><path d="M 21 3 L 177.796875 3 L 177.796875 193 L 21 193 Z M 21 3 " clip-rule="nonzero"/></clipPath><clipPath id="5bab9da36c"><path d="M 168 50 L 177.796875 50 L 177.796875 86 L 168 86 Z M 168 50 " clip-rule="nonzero"/></clipPath><clipPath id="462869d989"><path d="M 175 46 L 177.796875 46 L 177.796875 49 L 175 49 Z M 175 46 " clip-rule="nonzero"/></clipPath></defs><path fill="#fff3e1" d="M 65.128906 180.667969 C 59.84375 177.433594 54.429688 174.472656 49.347656 170.910156 C 44.363281 167.417969 39.636719 163.515625 35.46875 159.070312 C 33.082031 156.523438 30.742188 153.878906 28.824219 150.953125 C 28.347656 150.226562 27.1875 150.890625 27.648438 151.640625 C 30.957031 157.015625 34.828125 161.765625 39.535156 165.976562 C 44.246094 170.1875 49.414062 173.871094 54.738281 177.265625 C 57.738281 179.175781 60.773438 181.082031 63.921875 182.734375 C 65.28125 183.449219 66.449219 181.472656 65.128906 180.667969 Z M 65.128906 180.667969 " fill-opacity="1" fill-rule="nonzero"/><g clip-path="url(#948ff66a7c)"><path fill="#fff3e1" d="M 101.1875 14.835938 C 96.777344 19.960938 94.082031 27.828125 86.761719 28.511719 C 83.679688 28.800781 80.691406 27.449219 77.78125 26.289062 C 69.164062 22.855469 60.0625 20.921875 50.90625 20.578125 C 45.261719 20.363281 39.324219 20.84375 34.515625 24.125 C 29.558594 27.507812 26.410156 33.570312 25.273438 39.890625 C 24.132812 46.207031 24.828125 52.777344 26.230469 59.03125 C 28.070312 67.203125 31.132812 75.570312 29.378906 83.765625 C 28.613281 87.34375 26.96875 90.601562 25.632812 93.96875 C 18.835938 111.066406 20.320312 131.878906 29.457031 147.582031 C 38.691406 163.453125 54.371094 173.207031 70.042969 180.679688 C 80.214844 185.53125 90.734375 189.71875 101.679688 191.601562 C 115.464844 193.972656 129.582031 192.328125 142.863281 187.878906 C 153.929688 184.171875 163.285156 173.507812 169.28125 162.996094 C 173.328125 155.902344 176.375 147.949219 177.03125 139.597656 C 177.5 133.6875 177.347656 127.894531 175.441406 122.328125 C 173.28125 116.027344 170.492188 109.648438 168.882812 103.191406 C 167.9375 100.4375 166.992188 97.667969 166.574219 94.789062 C 165.78125 89.339844 166.921875 83.820312 167.988281 78.417969 C 169.226562 72.144531 170.371094 65.855469 171.421875 59.546875 C 172.996094 50.113281 174.632812 39.453125 171.210938 30.246094 C 168.3125 22.441406 163.277344 15.257812 156.359375 10.535156 C 146.242188 3.625 133.613281 2.398438 121.875 4.496094 C 114.738281 5.773438 107.347656 8.421875 101.964844 13.984375 C 101.699219 14.257812 101.441406 14.542969 101.1875 14.835938 Z M 101.1875 14.835938 " fill-opacity="1" fill-rule="nonzero"/></g><path fill="#ffe4c0" d="M 105.871094 95.367188 C 98.71875 93.074219 76.898438 110.492188 76.898438 110.492188 C 76.898438 110.492188 94.21875 89.589844 88.6875 89.675781 C 84.042969 89.75 76.933594 104.417969 74.777344 109.109375 C 74.617188 109.304688 74.460938 109.507812 74.304688 109.722656 C 75.046875 106.117188 77.792969 91.855469 74.515625 93.394531 C 70.765625 95.152344 71.777344 112.390625 71.777344 112.390625 C 71.777344 112.390625 65.296875 102.863281 63.601562 104.417969 C 61.910156 105.972656 70.839844 114.5625 70.839844 114.5625 C 70.839844 114.5625 70.9375 115.335938 71.132812 116.515625 C 69.042969 123.175781 67.878906 132.976562 67.664062 145.84375 C 67.558594 152.109375 67.703125 158.222656 67.917969 163.328125 C 66.992188 157.738281 65.742188 150.847656 64.171875 143.621094 C 59.15625 120.539062 53.398438 105.039062 47.054688 97.535156 C 49.460938 99.140625 59.253906 105.382812 60.558594 101.347656 C 62.050781 96.746094 46.46875 93.835938 46.46875 93.835938 C 46.46875 93.835938 54.621094 91.914062 53.109375 90.671875 C 51.59375 89.429688 44.820312 91.214844 44.820312 91.214844 C 44.765625 90.664062 48.4375 79.996094 44.5 79.550781 C 40.5625 79.105469 42.203125 90.082031 42.203125 90.082031 C 42.203125 90.082031 26.941406 67.929688 23.609375 70.765625 C 20.273438 73.601562 38.875 90.136719 38.875 90.136719 C 38.875 90.136719 14.238281 80.050781 11.371094 84.789062 C 8.503906 89.53125 35.234375 92.722656 35.234375 92.722656 C 35.234375 92.722656 0.203125 104 8.097656 110.734375 C 15.996094 117.46875 36.886719 95.34375 36.886719 95.34375 C 36.886719 95.34375 8.996094 125.402344 15.046875 130.371094 C 21.101562 135.339844 41.539062 97.390625 41.539062 97.390625 C 41.539062 97.390625 31.378906 129.585938 37.515625 129.8125 C 43.65625 130.039062 43.851562 98.273438 43.851562 98.273438 C 43.851562 98.273438 45.808594 123.699219 51.234375 122.324219 C 55.382812 121.273438 50.433594 107.128906 47.871094 100.527344 C 54.59375 110.378906 59.796875 129.367188 63.378906 146.367188 C 61.78125 144.058594 55.117188 143.117188 55.117188 143.117188 C 55.117188 143.117188 45.8125 128.726562 43.9375 132.253906 C 42.0625 135.78125 52.433594 143.195312 52.433594 143.195312 C 52.433594 143.195312 33.910156 140.492188 34.695312 144.683594 C 35.480469 148.875 50.304688 145.078125 50.304688 145.078125 C 50.304688 145.078125 27.839844 156.871094 31.679688 163.824219 C 35.519531 170.773438 51.265625 148.230469 51.265625 148.230469 C 51.265625 148.230469 44.410156 160.421875 48.050781 163.496094 C 51.695312 166.566406 54.238281 148.308594 54.238281 148.308594 C 54.238281 148.308594 55.9375 163.546875 59.414062 161.25 C 62.894531 158.957031 56.351562 147.171875 56.351562 147.171875 C 56.351562 147.171875 56.613281 147.25 57.039062 147.363281 C 61.417969 152.027344 64.75 162.296875 66.785156 170.152344 L 51.164062 170.042969 C 56.851562 173.9375 62.9375 177.25 69.039062 180.199219 C 69.058594 180.300781 69.070312 180.359375 69.070312 180.367188 L 69.171875 180.351562 C 69.179688 180.398438 69.183594 180.425781 69.183594 180.4375 L 69.46875 180.40625 C 69.660156 180.5 69.851562 180.589844 70.042969 180.683594 C 74.335938 182.730469 78.691406 184.65625 83.113281 186.34375 C 83.492188 183.28125 83.835938 180.378906 84.078125 178.304688 L 87.628906 178.304688 L 87.8125 170.300781 L 69.617188 170.171875 C 68.878906 156.886719 68.25 133.617188 71.660156 119.390625 C 72.578125 123.894531 74.253906 129.71875 76.585938 128.324219 C 80.292969 126.105469 74.0625 114.472656 74.0625 114.472656 C 74.0625 114.472656 86.414062 129.660156 90.625 125.542969 C 94.832031 121.425781 80.371094 115.234375 80.371094 115.234375 C 80.371094 115.234375 102.628906 118.574219 103.773438 113.835938 C 104.921875 109.097656 82.066406 111.367188 82.066406 111.367188 C 82.066406 111.367188 113.023438 97.664062 105.871094 95.367188 Z M 46.523438 97.171875 C 46.523438 97.171875 46.597656 97.226562 46.742188 97.324219 L 46.628906 97.421875 C 46.558594 97.261719 46.523438 97.171875 46.523438 97.171875 Z M 59.082031 147.839844 C 60.964844 148.21875 63.207031 148.457031 63.632812 147.589844 C 64.917969 153.789062 65.984375 159.679688 66.828125 164.71875 C 66.582031 163.867188 66.328125 163.035156 66.066406 162.242188 C 63.921875 155.761719 61.582031 150.949219 59.082031 147.839844 Z M 59.082031 147.839844 " fill-opacity="1" fill-rule="nonzero"/><path fill="#efb44b" d="M 108.257812 65.285156 C 108.257812 65.285156 106.164062 68.203125 103.808594 71.972656 C 101.457031 75.738281 99.578125 79.558594 94.675781 79.941406 C 89.773438 80.320312 94.890625 52.480469 94.890625 52.480469 L 104.484375 46.492188 Z M 108.257812 65.285156 " fill-opacity="1" fill-rule="nonzero"/><path fill="#efb44b" d="M 105.273438 87.859375 C 104.761719 89.417969 104.34375 91.046875 104.625 91.578125 C 105.214844 92.691406 107.890625 95.210938 118.875 95.78125 C 129.855469 96.355469 146.066406 91.792969 147.371094 91.644531 C 148.417969 91.523438 148.921875 90.203125 149.140625 89.328125 C 149.472656 88 149.414062 86.488281 149.089844 85.167969 C 149.007812 84.824219 148.902344 84.476562 148.929688 84.121094 C 148.957031 83.84375 149.058594 83.582031 149.160156 83.324219 C 149.414062 82.660156 149.644531 81.96875 149.613281 81.257812 C 149.597656 80.992188 149.550781 80.734375 149.484375 80.476562 C 149.386719 80.089844 149.25 79.707031 149.152344 79.320312 C 148.867188 78.195312 149.027344 77.226562 149.207031 76.214844 C 149.285156 75.78125 149.363281 75.339844 149.414062 74.875 C 149.46875 74.382812 149.5625 73.890625 149.671875 73.398438 C 149.730469 73.140625 149.796875 72.882812 149.867188 72.625 C 149.980469 72.183594 150.105469 71.742188 150.226562 71.304688 C 150.898438 68.875 151.691406 66.480469 152.53125 64.105469 C 152.644531 63.78125 152.761719 63.457031 152.878906 63.136719 C 152.941406 62.953125 153.007812 62.773438 153.074219 62.597656 C 153.363281 61.796875 153.660156 61 153.972656 60.207031 C 154.183594 59.660156 154.019531 58.667969 154.039062 58.089844 C 154.09375 56.332031 154.148438 54.574219 154.207031 52.820312 C 154.265625 50.902344 154.546875 48.882812 154.261719 47.003906 C 153.949219 44.949219 154.03125 42.847656 154.542969 40.832031 C 151.96875 38.886719 148.996094 37.546875 145.949219 36.53125 C 144.378906 36.003906 142.78125 35.5625 141.175781 35.15625 C 140.371094 34.953125 139.566406 34.761719 138.761719 34.570312 C 138.550781 34.519531 137.308594 34.417969 137.183594 34.25 C 137.144531 34.199219 136.328125 33.132812 134.214844 33.230469 C 132.050781 33.335938 120.355469 34.570312 120.355469 34.570312 C 119.839844 34.625 119.246094 34.960938 118.804688 35.207031 C 118.359375 35.449219 117.9375 35.738281 117.578125 36.09375 C 117.390625 36.273438 117.234375 36.476562 117.085938 36.6875 C 116.859375 36.996094 116.746094 36.925781 116.363281 36.867188 C 115.683594 36.761719 114.726562 37.226562 114.113281 37.535156 C 113.894531 37.644531 113.714844 37.789062 113.46875 37.726562 C 113.304688 37.683594 113.140625 37.546875 112.96875 37.492188 C 112.660156 37.394531 112.335938 37.332031 112.011719 37.363281 C 111.648438 37.394531 111.3125 37.535156 111.015625 37.742188 C 110.824219 37.871094 110.652344 38.03125 110.492188 38.203125 C 110.351562 38.351562 110.125 38.8125 109.957031 38.886719 C 109.957031 38.886719 106.738281 40.558594 105.582031 42.011719 C 104.429688 43.464844 103.273438 46.972656 103.273438 46.972656 C 103.273438 46.972656 106.714844 59.691406 106.832031 65.75 C 106.921875 70.472656 106.785156 72.03125 106.886719 73.214844 C 106.914062 73.546875 106.964844 73.855469 107.042969 74.191406 C 107.050781 74.238281 107.0625 74.28125 107.074219 74.324219 C 107.316406 75.265625 107.902344 76.5 108.320312 77.3125 C 108.582031 77.828125 108.777344 78.175781 108.777344 78.175781 C 108.777344 78.175781 108.265625 78.398438 107.65625 78.785156 C 106.675781 79.417969 105.449219 80.472656 105.789062 81.695312 C 106.332031 83.667969 106.503906 84.542969 106.503906 84.542969 C 106.503906 84.542969 105.953125 85.863281 105.433594 87.375 C 105.378906 87.535156 105.328125 87.695312 105.273438 87.859375 Z M 105.273438 87.859375 " fill-opacity="1" fill-rule="nonzero"/><path fill="#d89b39" d="M 116.855469 37.304688 C 116.929688 36.800781 117.242188 36.917969 117.261719 37.429688 C 117.449219 42.078125 123.773438 42.617188 127.253906 41.527344 C 129.222656 40.910156 131.050781 39.867188 132.78125 38.773438 C 134.464844 37.710938 136.089844 36.445312 136.925781 34.609375 C 137.113281 34.203125 137.789062 34.414062 137.605469 34.832031 C 136.738281 36.835938 135.101562 38.207031 133.289062 39.378906 C 131.15625 40.757812 128.859375 42.054688 126.351562 42.625 C 124.300781 43.09375 122.0625 43.003906 120.148438 42.089844 C 118.378906 41.246094 116.53125 39.402344 116.855469 37.304688 Z M 116.855469 37.304688 " fill-opacity="1" fill-rule="nonzero"/><path fill="#d89b39" d="M 133.464844 35.371094 C 133.800781 35.527344 134.132812 35.6875 134.476562 35.824219 C 134.707031 35.917969 134.589844 36.28125 134.355469 36.191406 C 133.996094 36.050781 133.640625 35.898438 133.300781 35.710938 C 133.113281 35.609375 133.269531 35.277344 133.464844 35.371094 Z M 133.464844 35.371094 " fill-opacity="0.5" fill-rule="nonzero"/><path fill="#d89b39" d="M 132.722656 36.523438 L 133.054688 36.773438 C 133.25 36.921875 133.046875 37.242188 132.84375 37.097656 C 132.734375 37.011719 132.621094 36.929688 132.507812 36.847656 C 132.308594 36.699219 132.523438 36.371094 132.722656 36.523438 Z M 132.722656 36.523438 " fill-opacity="0.5" fill-rule="nonzero"/><path fill="#d89b39" d="M 127.640625 38.730469 C 127.761719 39.167969 127.898438 39.597656 128.050781 40.027344 C 128.136719 40.269531 127.738281 40.359375 127.65625 40.113281 C 127.511719 39.683594 127.378906 39.25 127.261719 38.8125 C 127.199219 38.570312 127.574219 38.492188 127.640625 38.730469 Z M 127.640625 38.730469 " fill-opacity="0.5" fill-rule="nonzero"/><path fill="#d89b39" d="M 126.28125 39.164062 C 126.371094 39.140625 126.5 39.207031 126.511719 39.308594 C 126.539062 39.574219 126.566406 39.835938 126.59375 40.097656 C 126.621094 40.351562 126.222656 40.4375 126.199219 40.183594 C 126.179688 39.921875 126.15625 39.65625 126.132812 39.394531 C 126.125 39.289062 126.167969 39.1875 126.28125 39.164062 Z M 126.28125 39.164062 " fill-opacity="0.5" fill-rule="nonzero"/><path fill="#d89b39" d="M 119.984375 39.921875 C 120.238281 39.488281 120.515625 39.082031 120.734375 38.628906 C 120.84375 38.398438 121.222656 38.519531 121.113281 38.753906 C 120.890625 39.230469 120.648438 39.726562 120.324219 40.144531 C 120.167969 40.351562 119.851562 40.148438 119.984375 39.921875 Z M 119.984375 39.921875 " fill-opacity="0.5" fill-rule="nonzero"/><path fill="#d89b39" d="M 119.191406 38.632812 C 119.421875 38.433594 119.617188 38.210938 119.773438 37.949219 C 119.90625 37.722656 120.242188 37.945312 120.113281 38.171875 C 119.941406 38.460938 119.726562 38.726562 119.46875 38.941406 C 119.261719 39.109375 118.988281 38.808594 119.191406 38.632812 Z M 119.191406 38.632812 " fill-opacity="0.5" fill-rule="nonzero"/><path fill="#d89b39" d="M 118.273438 37.214844 C 118.421875 37.0625 118.613281 36.960938 118.820312 36.90625 C 119.074219 36.84375 119.15625 37.234375 118.90625 37.304688 C 118.765625 37.34375 118.652344 37.417969 118.550781 37.523438 C 118.367188 37.71875 118.085938 37.40625 118.273438 37.214844 Z M 118.273438 37.214844 " fill-opacity="0.5" fill-rule="nonzero"/><path fill="#d89b39" d="M 105.273438 87.859375 C 105.9375 88.652344 106.828125 89.222656 107.773438 89.675781 C 109.308594 90.410156 110.960938 90.945312 112.613281 91.351562 C 115.628906 92.089844 118.757812 92.351562 121.847656 92.113281 C 125.042969 91.863281 128.121094 90.964844 131.273438 90.425781 C 136.898438 89.460938 143.011719 90.210938 148.191406 87.390625 C 148.398438 87.277344 148.230469 86.953125 148.023438 87.0625 C 145.199219 88.570312 142.007812 89.023438 138.859375 89.269531 C 136.089844 89.488281 133.3125 89.609375 130.578125 90.117188 C 127.515625 90.683594 124.503906 91.527344 121.382812 91.71875 C 118.355469 91.902344 115.300781 91.609375 112.367188 90.847656 C 110.953125 90.476562 109.542969 90.011719 108.207031 89.410156 C 107.148438 88.929688 106.125 88.3125 105.433594 87.375 C 105.378906 87.535156 105.328125 87.695312 105.273438 87.859375 Z M 105.273438 87.859375 " fill-opacity="1" fill-rule="nonzero"/><path fill="#d89b39" d="M 151.148438 61.527344 C 151.792969 61.734375 152.375 62.074219 152.9375 62.449219 C 153.359375 62.730469 152.933594 63.386719 152.503906 63.109375 C 151.96875 62.761719 151.398438 62.480469 150.839844 62.171875 C 150.472656 61.972656 150.769531 61.40625 151.148438 61.527344 Z M 151.148438 61.527344 " fill-opacity="1" fill-rule="nonzero"/><path fill="#bb5122" d="M 134.917969 33.277344 C 132.902344 36.125 128.996094 38.253906 125.574219 38.421875 C 123.914062 38.5 121.785156 38.585938 120.378906 37.574219 C 119.457031 36.90625 119.59375 35.886719 119.953125 34.878906 C 121.535156 31.511719 121.683594 27.890625 121.789062 27.707031 C 121.792969 27.707031 121.792969 27.699219 121.796875 27.699219 C 121.800781 27.695312 121.796875 27.695312 121.796875 27.695312 C 121.800781 27.695312 121.800781 27.695312 121.804688 27.699219 C 121.8125 27.714844 121.820312 27.769531 121.851562 27.832031 C 121.859375 27.859375 121.875 27.886719 121.890625 27.914062 C 121.90625 27.941406 121.929688 27.96875 121.953125 27.992188 C 122.097656 28.128906 133.945312 20.996094 133.945312 20.996094 C 133.945312 20.996094 132.847656 29.972656 134.917969 33.277344 Z M 134.917969 33.277344 " fill-opacity="1" fill-rule="nonzero"/><path fill="#4b3333" d="M 121.789062 27.707031 C 121.738281 27.800781 121.671875 28.761719 121.421875 30.125 C 121.695312 30.324219 122.007812 30.488281 122.253906 30.601562 C 123.578125 31.222656 125.121094 31.367188 126.535156 31.007812 C 126.585938 30.996094 126.632812 30.980469 126.679688 30.96875 C 127.820312 30.652344 128.859375 30.007812 129.664062 29.144531 C 130.535156 28.207031 130.890625 27.496094 131.652344 25.777344 L 122.96875 27.851562 C 122.378906 28.195312 122.097656 28.128906 121.953125 27.992188 C 121.929688 27.96875 121.90625 27.941406 121.890625 27.914062 C 121.875 27.886719 121.859375 27.859375 121.851562 27.832031 C 121.820312 27.769531 121.8125 27.714844 121.804688 27.699219 C 121.800781 27.695312 121.800781 27.695312 121.800781 27.695312 C 121.792969 27.699219 121.792969 27.707031 121.789062 27.707031 Z M 121.789062 27.707031 " fill-opacity="1" fill-rule="nonzero"/><path fill="#fff3e1" d="M 104.976562 52.261719 C 106.222656 58.75 107.40625 65.402344 106.867188 72.035156 C 106.804688 72.78125 105.652344 72.722656 105.707031 71.972656 C 106.160156 65.390625 105.234375 59.21875 104.160156 52.746094 C 104.058594 52.132812 104.859375 51.644531 104.976562 52.261719 Z M 104.976562 52.261719 " fill-opacity="1" fill-rule="nonzero"/><path fill="#efb44b" d="M 100.636719 52.433594 C 100.636719 52.433594 100.96875 54.417969 100.007812 56.121094 C 100.007812 56.121094 101.878906 57.96875 101.25 61.660156 C 100.621094 65.347656 100.4375 64.679688 101.414062 66.921875 C 102.390625 69.160156 103.035156 73.574219 100.457031 76.941406 C 97.875 80.308594 93.035156 80.933594 89.199219 78.980469 C 85.367188 77.03125 85.476562 70.6875 86.015625 68.746094 C 86.554688 66.804688 87.070312 65.296875 87.070312 65.296875 C 87.070312 65.296875 86.195312 61.09375 87.203125 58.519531 C 88.210938 55.945312 89.128906 55.117188 89.128906 55.117188 C 89.128906 55.117188 88.875 51.601562 91.101562 50.839844 C 93.324219 50.082031 100.636719 52.433594 100.636719 52.433594 Z M 100.636719 52.433594 " fill-opacity="1" fill-rule="nonzero"/><path fill="#d89b39" d="M 89.519531 55.523438 C 89.5625 55.738281 89.621094 55.953125 89.695312 56.160156 C 90.132812 57.367188 91.121094 58.207031 92.339844 58.558594 C 93.597656 58.921875 94.972656 58.816406 96.214844 58.441406 C 96.847656 58.25 97.457031 57.984375 98.019531 57.636719 C 98.363281 57.421875 98.699219 57.1875 99 56.910156 C 99.324219 56.613281 99.519531 56.292969 99.707031 55.898438 C 100.09375 55.097656 100.367188 54.230469 100.402344 53.335938 C 100.414062 53.066406 100.402344 52.789062 100.363281 52.519531 C 100.339844 52.359375 100.304688 52.226562 100.449219 52.109375 C 100.65625 51.941406 101.046875 52.019531 101.082031 52.3125 C 101.0625 52.667969 101.144531 53.042969 101.140625 53.402344 C 101.128906 54.019531 101.101562 54.609375 100.9375 55.207031 C 100.84375 55.554688 100.679688 55.859375 100.542969 56.183594 C 100.53125 56.207031 100.519531 56.230469 100.523438 56.257812 C 100.523438 56.292969 100.542969 56.320312 100.5625 56.351562 C 101.191406 57.25 101.574219 58.222656 101.628906 59.324219 C 101.6875 60.441406 101.464844 61.546875 101.3125 62.644531 C 101.019531 64.730469 102.078125 66.382812 102.460938 68.367188 C 102.828125 70.253906 101.78125 73.59375 101.210938 75.210938 C 101.023438 75.738281 100.644531 75.773438 100.769531 75.230469 C 101.253906 73.132812 101.945312 69.484375 101.335938 67.414062 C 100.8125 65.628906 100.175781 64.332031 100.476562 62.410156 C 100.621094 61.476562 100.859375 60.542969 100.816406 59.585938 C 100.769531 58.574219 100.382812 57.773438 99.945312 56.902344 C 98.527344 58.945312 95.59375 59.652344 93.234375 59.585938 C 90.988281 59.527344 89.132812 57.894531 88.679688 55.707031 C 88.566406 55.164062 89.40625 54.980469 89.519531 55.523438 Z M 89.519531 55.523438 " fill-opacity="1" fill-rule="nonzero"/><path fill="#d89b39" d="M 97.4375 55.042969 C 97.453125 54.785156 97.851562 54.804688 97.839844 55.0625 C 97.804688 55.707031 97.75 56.351562 97.679688 56.992188 C 97.648438 57.25 97.242188 57.230469 97.273438 56.96875 C 97.34375 56.328125 97.398438 55.6875 97.4375 55.042969 Z M 97.4375 55.042969 " fill-opacity="0.5" fill-rule="nonzero"/><path fill="#d89b39" d="M 94.230469 57.519531 C 94.3125 57.253906 94.382812 56.996094 94.414062 56.722656 C 94.441406 56.464844 94.839844 56.480469 94.816406 56.742188 C 94.789062 57.046875 94.730469 57.359375 94.613281 57.648438 C 94.515625 57.886719 94.152344 57.769531 94.230469 57.519531 Z M 94.230469 57.519531 " fill-opacity="0.5" fill-rule="nonzero"/><path fill="#d89b39" d="M 90.789062 53.804688 C 90.847656 53.546875 91.234375 53.679688 91.179688 53.933594 C 91.054688 54.503906 90.933594 55.078125 90.804688 55.648438 C 90.746094 55.910156 90.355469 55.777344 90.410156 55.519531 C 90.53125 54.945312 90.664062 54.375 90.789062 53.804688 Z M 90.789062 53.804688 " fill-opacity="0.5" fill-rule="nonzero"/><path fill="#d89b39" d="M 91.609375 54.804688 C 91.65625 54.640625 91.691406 54.472656 91.710938 54.304688 C 91.726562 54.195312 91.808594 54.105469 91.925781 54.113281 C 92.027344 54.117188 92.128906 54.214844 92.117188 54.324219 C 92.089844 54.53125 92.054688 54.734375 92 54.933594 C 91.933594 55.1875 91.539062 55.058594 91.609375 54.804688 Z M 91.609375 54.804688 " fill-opacity="0.5" fill-rule="nonzero"/><path fill="#bb5122" d="M 90.746094 51.371094 C 90.746094 51.371094 90.632812 53.550781 94.761719 53.988281 C 98.894531 54.421875 100.28125 52.960938 101.1875 52.351562 C 102.09375 51.742188 103.355469 48.523438 103.671875 46.570312 C 103.992188 44.617188 102.71875 43.894531 102.71875 43.894531 C 102.71875 43.894531 109.300781 35.042969 108.519531 33.25 C 107.738281 31.457031 105.960938 32.019531 105.238281 33.296875 C 104.515625 34.574219 101.617188 39.894531 100.753906 39.632812 C 99.894531 39.367188 99.929688 38.710938 99.960938 38.058594 C 99.996094 37.402344 101.046875 29.792969 100.199219 29.3125 C 99.347656 28.832031 97.832031 28.53125 97.328125 29.820312 C 96.824219 31.105469 96.691406 37.886719 96.691406 37.886719 C 96.691406 37.886719 96.082031 36.980469 94.742188 37.566406 C 93.398438 38.152344 93.285156 40.335938 93.457031 41.222656 C 93.457031 41.222656 91.746094 40.476562 90.738281 43.050781 C 89.730469 45.625 90.746094 51.371094 90.746094 51.371094 Z M 90.746094 51.371094 " fill-opacity="1" fill-rule="nonzero"/><path fill="#973a0c" d="M 92.324219 43.878906 C 92.746094 44.546875 93.058594 45.261719 93.316406 46.007812 C 93.445312 46.371094 93.539062 46.890625 93.71875 47.21875 C 93.859375 47.722656 94.257812 47.847656 94.914062 47.597656 C 95.007812 47.324219 95.035156 47.050781 94.996094 46.769531 C 94.980469 45.019531 94.097656 43.125 93.269531 41.621094 C 93.058594 41.242188 93.550781 40.9375 93.839844 41.164062 C 94.003906 40.9375 94.378906 40.871094 94.542969 41.199219 C 94.972656 42.035156 95.351562 42.898438 95.75 43.75 C 95.917969 44.117188 96.085938 44.484375 96.253906 44.847656 C 96.367188 45.09375 96.480469 45.335938 96.59375 45.582031 C 96.753906 46.101562 97.179688 46.136719 97.867188 45.683594 C 97.792969 45.601562 97.71875 45.523438 97.652344 45.4375 C 97.097656 44.757812 96.386719 43.828125 96.832031 42.929688 C 97 42.59375 97.21875 42.347656 97.476562 42.175781 C 97.414062 42.125 97.367188 42.046875 97.355469 41.941406 C 97.199219 40.714844 96.945312 39.511719 96.644531 38.316406 C 96.527344 37.851562 97.089844 37.589844 97.230469 38.023438 C 97.617188 39.199219 97.992188 40.539062 98.160156 41.761719 C 98.167969 41.8125 98.164062 41.855469 98.15625 41.898438 C 99.65625 41.589844 101.621094 42.882812 102.628906 43.558594 C 103.03125 43.828125 102.8125 44.011719 102.398438 43.765625 C 101.699219 43.351562 97.300781 41.429688 97.636719 43.828125 C 97.707031 44.34375 98.390625 45.003906 98.742188 45.355469 C 99.328125 45.9375 100.019531 46.359375 100.785156 46.667969 C 101.300781 46.878906 101.03125 47.707031 100.507812 47.496094 C 100.378906 47.441406 100.246094 47.386719 100.121094 47.324219 C 100.203125 48.214844 100.558594 49.152344 100.839844 49.953125 C 101.011719 50.449219 100.480469 50.722656 100.316406 50.226562 C 99.972656 49.21875 99.292969 47.980469 99.320312 46.894531 C 98.996094 46.695312 98.6875 46.46875 98.398438 46.214844 C 98 47.011719 97.113281 47.476562 96.335938 46.734375 C 96.113281 46.519531 95.9375 46.242188 95.78125 45.941406 C 95.960938 46.84375 95.996094 47.863281 95.34375 48.488281 C 94.722656 49.085938 93.800781 48.820312 93.296875 48.210938 C 92.949219 47.785156 92.800781 47.050781 92.636719 46.542969 C 92.351562 45.671875 92.148438 44.652344 91.683594 43.863281 C 91.398438 43.386719 92.03125 43.417969 92.324219 43.878906 Z M 92.324219 43.878906 " fill-opacity="1" fill-rule="nonzero"/><path fill="#ffcc7b" d="M 107.65625 78.789062 C 107.667969 78.855469 107.691406 78.925781 107.714844 78.996094 C 107.800781 79.253906 107.910156 79.507812 108.035156 79.753906 C 108.113281 79.910156 108.210938 80.070312 108.367188 80.15625 C 108.464844 80.207031 108.585938 80.226562 108.703125 80.21875 C 109.15625 80.195312 109.542969 79.871094 109.828125 79.511719 C 110.539062 78.609375 111.167969 77.648438 111.882812 76.746094 C 112.148438 76.417969 113.011719 75.121094 113.570312 75.289062 C 114.417969 75.550781 118.128906 83.09375 121.390625 82.617188 C 124.65625 82.136719 126.511719 75.53125 127.78125 76.03125 C 129.050781 76.527344 134.933594 83.753906 137.121094 83.21875 C 139.308594 82.683594 141.367188 76.304688 142.875 76.382812 C 144.109375 76.449219 148.082031 79.40625 149.484375 80.476562 C 149.386719 80.089844 149.25 79.707031 149.152344 79.320312 C 148.867188 78.195312 149.027344 77.226562 149.203125 76.214844 C 147.871094 75.089844 143.203125 71.183594 142.292969 70.949219 C 141.226562 70.675781 137.808594 78.28125 136.292969 78.417969 C 134.773438 78.558594 129.328125 71.136719 127.164062 71.242188 C 125 71.34375 122.679688 78.574219 120.515625 78.679688 C 118.351562 78.78125 114.890625 70.601562 113.382812 70.523438 C 113.230469 70.515625 113.09375 70.582031 112.960938 70.652344 C 111.726562 71.296875 110.832031 73.042969 110.128906 74.171875 C 109.484375 75.199219 108.910156 76.261719 108.320312 77.316406 C 108.582031 77.828125 108.777344 78.175781 108.777344 78.175781 C 108.777344 78.175781 108.265625 78.398438 107.65625 78.789062 Z M 107.65625 78.789062 " fill-opacity="1" fill-rule="nonzero"/><path fill="#ffcc7b" d="M 106.886719 73.214844 C 106.914062 73.546875 106.964844 73.855469 107.042969 74.191406 C 107.050781 74.238281 107.0625 74.28125 107.074219 74.324219 C 108.617188 72.453125 110.160156 70.585938 111.703125 68.714844 C 112.058594 68.285156 112.597656 67.402344 113.179688 67.222656 C 114.089844 66.9375 114.554688 67.640625 115.074219 68.234375 C 115.859375 69.136719 116.609375 70.066406 117.320312 71.023438 C 118 71.9375 118.984375 74.226562 120.40625 74.183594 C 121.171875 74.15625 121.671875 73.480469 122.15625 72.972656 C 122.84375 72.25 123.511719 71.507812 124.164062 70.75 C 125.554688 69.128906 127.421875 66.460938 129.480469 68.851562 C 130.785156 70.363281 131.988281 71.917969 133.417969 73.320312 C 134.191406 74.078125 135.570312 75.9375 136.84375 75.5 C 137.597656 75.242188 138.074219 74.316406 138.503906 73.714844 C 139.097656 72.875 139.691406 72.039062 140.289062 71.203125 C 140.871094 70.386719 141.554688 68.953125 142.488281 68.515625 C 143.5625 68.011719 144.566406 69.199219 145.347656 69.847656 C 146.785156 71.035156 148.226562 72.222656 149.671875 73.402344 C 149.730469 73.140625 149.796875 72.882812 149.867188 72.625 C 148.132812 71.113281 146.398438 69.578125 144.578125 68.1875 C 143.050781 67.019531 141.828125 67.671875 140.792969 69.078125 C 140.058594 70.066406 139.359375 71.082031 138.640625 72.085938 C 138.140625 72.785156 137.089844 74.953125 136.046875 74.570312 C 135.535156 74.378906 134.871094 73.539062 134.464844 73.152344 C 134.09375 72.796875 133.730469 72.4375 133.371094 72.066406 C 132.613281 71.28125 131.890625 70.464844 131.199219 69.625 C 130.230469 68.441406 129.273438 66.832031 127.523438 66.976562 C 125.582031 67.140625 124.398438 69.1875 123.246094 70.507812 C 122.796875 71.023438 122.335938 71.535156 121.863281 72.035156 C 121.558594 72.359375 121.195312 72.921875 120.796875 73.128906 C 119.734375 73.695312 118.921875 71.785156 118.425781 71.089844 C 117.730469 70.121094 116.996094 69.175781 116.230469 68.261719 C 115.683594 67.613281 115.058594 66.640625 114.230469 66.324219 C 112.765625 65.769531 111.640625 67.453125 110.855469 68.40625 C 109.53125 70.007812 108.210938 71.609375 106.886719 73.214844 Z M 106.886719 73.214844 " fill-opacity="1" fill-rule="nonzero"/><path fill="#5f7ab3" d="M 85.707031 77.964844 C 85.96875 79.742188 87.359375 81.183594 89.15625 81.421875 C 89.667969 81.488281 89.632812 82.292969 89.113281 82.230469 C 86.964844 81.960938 85.207031 80.304688 84.890625 78.144531 C 84.8125 77.613281 85.628906 77.429688 85.707031 77.964844 Z M 85.707031 77.964844 " fill-opacity="1" fill-rule="nonzero"/><path fill="#61b7b0" d="M 122.941406 6.214844 C 122.941406 6.214844 128.839844 0.835938 132.078125 0.429688 C 135.3125 0.0273438 136.324219 1.242188 137.335938 0.835938 C 138.347656 0.429688 141.179688 0.632812 141.988281 2.253906 C 142.796875 3.875 141.582031 6.304688 141.582031 6.304688 C 141.582031 6.304688 142.796875 8.128906 143.203125 10.355469 C 143.605469 12.585938 142.796875 14.609375 142.796875 14.609375 L 129.648438 7.925781 Z M 122.941406 6.214844 " fill-opacity="1" fill-rule="nonzero"/><path fill="#bb5122" d="M 140.933594 16.59375 C 140.933594 16.59375 137.609375 29.304688 134.113281 31.761719 C 131.324219 33.722656 126.109375 34.511719 121.636719 31.003906 C 117.628906 27.859375 119.761719 18.296875 120.378906 16.175781 C 120.792969 14.757812 121.371094 12.726562 121.863281 11.332031 C 121.996094 10.957031 122.140625 10.257812 122.457031 9.984375 C 122.722656 9.753906 123.320312 9.667969 123.648438 9.519531 C 124.035156 9.339844 124.40625 9.136719 124.765625 8.910156 C 125.503906 8.4375 126.242188 7.832031 127.121094 7.824219 C 127.648438 7.820312 128.148438 8.039062 128.640625 8.21875 C 129.660156 8.597656 130.808594 8.839844 131.824219 8.453125 C 132.285156 8.277344 132.75 7.96875 133.234375 8.078125 C 133.824219 8.214844 134.953125 10.734375 135.347656 11.414062 C 135.730469 12.078125 137.351562 11.695312 137.839844 12.28125 C 139.003906 13.671875 139.285156 15.832031 140.933594 16.59375 Z M 140.933594 16.59375 " fill-opacity="1" fill-rule="nonzero"/><path fill="#973a0c" d="M 127.253906 22.859375 C 127.363281 22.617188 127.664062 22.5 127.90625 22.609375 C 128.144531 22.71875 128.382812 22.824219 128.621094 22.933594 C 128.863281 23.042969 128.980469 23.339844 128.871094 23.585938 C 128.765625 23.828125 128.464844 23.945312 128.222656 23.835938 C 127.984375 23.726562 127.746094 23.617188 127.507812 23.511719 C 127.265625 23.402344 127.148438 23.105469 127.253906 22.859375 Z M 127.253906 22.859375 " fill-opacity="1" fill-rule="nonzero"/><path fill="#1a1a1a" d="M 127.234375 12.03125 C 127.402344 11.914062 127.503906 11.71875 127.480469 11.527344 C 127.453125 11.257812 127.195312 11.09375 126.910156 11.15625 C 126.84375 11.171875 125.234375 11.535156 123.828125 12.59375 C 123.585938 12.773438 123.519531 13.089844 123.679688 13.296875 C 123.835938 13.503906 124.160156 13.535156 124.402344 13.347656 C 125.597656 12.453125 127.003906 12.128906 127.015625 12.125 C 127.097656 12.109375 127.171875 12.074219 127.234375 12.03125 Z M 127.234375 12.03125 " fill-opacity="1" fill-rule="nonzero"/><path fill="#1a1a1a" d="M 134.019531 15.738281 C 133.902344 15.570312 133.875 15.351562 133.957031 15.179688 C 134.078125 14.9375 134.375 14.871094 134.621094 15.027344 C 134.679688 15.066406 136.070312 15.957031 137.03125 17.429688 C 137.195312 17.679688 137.152344 18 136.933594 18.140625 C 136.714844 18.28125 136.398438 18.199219 136.238281 17.941406 C 135.414062 16.695312 134.203125 15.910156 134.191406 15.902344 C 134.121094 15.859375 134.066406 15.800781 134.019531 15.738281 Z M 134.019531 15.738281 " fill-opacity="1" fill-rule="nonzero"/><path fill="#ffffff" d="M 125.6875 28.636719 C 125.746094 28.667969 125.804688 28.695312 125.863281 28.722656 C 125.890625 28.734375 125.921875 28.742188 125.953125 28.753906 C 127.398438 29.351562 129.097656 28.054688 130.300781 26.6875 C 129.574219 26.570312 128.847656 26.386719 128.105469 26.171875 C 126.964844 25.839844 125.773438 25.558594 124.695312 25.050781 C 124.652344 26.472656 124.738281 28.078125 125.6875 28.636719 Z M 125.6875 28.636719 " fill-opacity="1" fill-rule="nonzero"/><path fill="#1a1a1a" d="M 123.578125 17.339844 C 123.695312 17.03125 123.984375 16.789062 124.324219 16.800781 C 124.898438 16.816406 125.59375 17.386719 125.183594 18 C 125.117188 18.097656 125.027344 18.175781 124.9375 18.246094 C 124.835938 18.320312 124.722656 18.386719 124.601562 18.425781 C 124.382812 18.5 124.132812 18.46875 123.933594 18.347656 C 123.734375 18.230469 123.589844 18.023438 123.542969 17.796875 C 123.507812 17.644531 123.523438 17.484375 123.578125 17.339844 Z M 123.578125 17.339844 " fill-opacity="1" fill-rule="nonzero"/><path fill="#1a1a1a" d="M 133.640625 19.65625 C 133.648438 19.644531 133.65625 19.632812 133.667969 19.625 C 133.796875 19.476562 133.96875 19.355469 134.164062 19.332031 C 134.457031 19.296875 134.886719 19.492188 135.117188 19.671875 C 135.671875 20.105469 135.230469 21.148438 134.640625 21.296875 C 134.382812 21.363281 134.101562 21.296875 133.882812 21.140625 C 133.664062 20.988281 133.511719 20.753906 133.421875 20.503906 C 133.308594 20.171875 133.425781 19.910156 133.640625 19.65625 Z M 133.640625 19.65625 " fill-opacity="1" fill-rule="nonzero"/><path fill="#1a1a1a" d="M 123.074219 11.066406 C 123.074219 11.066406 121.457031 13.902344 121.457031 14.710938 C 121.457031 15.523438 121.253906 16.535156 121.050781 16.738281 C 120.851562 16.941406 120.445312 19.371094 120.445312 20.382812 C 120.445312 21.398438 120.445312 24.03125 121.253906 24.636719 C 122.0625 25.246094 126.109375 23.828125 128.535156 24.839844 C 130.964844 25.855469 133.59375 28.082031 134.402344 27.878906 C 135.210938 27.675781 138.042969 24.433594 138.449219 22.003906 C 138.851562 19.574219 138.449219 18.5625 139.054688 18.15625 C 139.054688 18.15625 139.257812 14.773438 139.054688 14.035156 C 138.851562 13.292969 141.078125 16.128906 141.078125 16.128906 L 141.683594 19.777344 L 140.269531 22.003906 C 140.269531 22.003906 138.042969 28.285156 134.402344 32.335938 C 130.761719 36.386719 125.90625 34.96875 125.90625 34.96875 C 125.90625 34.96875 121.457031 35.777344 120.445312 31.726562 C 120.445312 31.726562 116.449219 28.769531 120.269531 16.578125 C 120.269531 16.578125 120.042969 12.890625 121.253906 11.066406 C 122.46875 9.242188 123.074219 11.066406 123.074219 11.066406 Z M 123.074219 11.066406 " fill-opacity="1" fill-rule="nonzero"/><path fill="#ffffff" d="M 124.289062 26.867188 L 130.15625 28.082031 C 130.15625 28.082031 128.738281 29.5 127.324219 29.09375 C 125.90625 28.6875 124.289062 26.867188 124.289062 26.867188 Z M 124.289062 26.867188 " fill-opacity="1" fill-rule="nonzero"/><path fill="#61b7b0" d="M 120.242188 16.535156 C 120.242188 16.535156 120.042969 12.078125 124.59375 10.558594 C 130.054688 8.738281 137.941406 13.507812 139.359375 15.828125 C 141.28125 18.964844 140.269531 22.207031 140.269531 22.207031 C 140.269531 22.207031 142.695312 20.992188 143.503906 17.75 C 144.3125 14.511719 143 12.179688 143 12.179688 C 143 12.179688 139.5625 6.101562 131.46875 4.683594 C 123.378906 3.265625 120.648438 8.230469 120.242188 9.039062 C 119.839844 9.851562 118.660156 14.453125 120.242188 16.535156 Z M 120.242188 16.535156 " fill-opacity="1" fill-rule="nonzero"/><path fill="#338c81" d="M 143.183594 12.921875 C 142.816406 11.234375 141.59375 9.957031 140.394531 8.792969 C 139.011719 7.441406 137.597656 6.175781 135.859375 5.304688 C 132.777344 3.757812 128.742188 3.144531 125.445312 4.386719 C 125.070312 4.527344 125.214844 5.0625 125.613281 4.988281 C 129.011719 4.355469 132.296875 4.414062 135.453125 6 C 136.980469 6.765625 138.242188 7.832031 139.464844 9.011719 C 140.714844 10.214844 142.195312 11.378906 142.695312 13.09375 C 142.835938 13.574219 143.292969 13.410156 143.183594 12.921875 Z M 143.183594 12.921875 " fill-opacity="1" fill-rule="nonzero"/><path fill="#338c81" d="M 122.589844 7.425781 C 122.238281 8.449219 122.035156 9.515625 122.019531 10.601562 C 122.019531 10.824219 122.351562 10.820312 122.363281 10.601562 C 122.417969 9.542969 122.589844 8.519531 122.929688 7.519531 C 123 7.300781 122.660156 7.210938 122.589844 7.425781 Z M 122.589844 7.425781 " fill-opacity="1" fill-rule="nonzero"/><path fill="#338c81" d="M 124.21875 6.929688 C 123.835938 7.480469 123.609375 8.089844 123.523438 8.757812 C 123.496094 8.988281 123.859375 8.984375 123.886719 8.757812 C 123.96875 8.160156 124.1875 7.609375 124.53125 7.113281 C 124.660156 6.921875 124.351562 6.742188 124.21875 6.929688 Z M 124.21875 6.929688 " fill-opacity="1" fill-rule="nonzero"/><path fill="#338c81" d="M 134.75 7.363281 C 134.640625 8.015625 134.445312 8.628906 134.148438 9.21875 C 134.035156 9.4375 134.367188 9.628906 134.476562 9.410156 C 134.785156 8.792969 135 8.144531 135.113281 7.464844 C 135.152344 7.226562 134.789062 7.125 134.75 7.363281 Z M 134.75 7.363281 " fill-opacity="1" fill-rule="nonzero"/><path fill="#338c81" d="M 135.863281 9.089844 C 135.792969 9.832031 135.5 10.449219 135.128906 11.082031 C 135.039062 11.226562 135.246094 11.394531 135.367188 11.265625 C 135.914062 10.671875 136.164062 9.882812 136.238281 9.089844 C 136.257812 8.851562 135.886719 8.855469 135.863281 9.089844 Z M 135.863281 9.089844 " fill-opacity="1" fill-rule="nonzero"/><path fill="#338c81" d="M 139.570312 11.34375 C 139.347656 11.800781 139.085938 12.226562 138.78125 12.628906 C 138.632812 12.824219 138.964844 13.019531 139.113281 12.820312 C 139.414062 12.417969 139.675781 11.988281 139.890625 11.535156 C 139.992188 11.316406 139.671875 11.128906 139.570312 11.34375 Z M 139.570312 11.34375 " fill-opacity="1" fill-rule="nonzero"/><path fill="#2b2b2b" d="M 50.535156 102.382812 C 47.984375 106.699219 42.292969 107.417969 38.160156 105.082031 C 35.519531 103.59375 33.707031 101.273438 32.539062 98.617188 C 32.199219 96.511719 32.0625 94.355469 31.964844 92.261719 C 31.945312 91.828125 31.273438 91.824219 31.289062 92.261719 C 31.320312 93.265625 31.367188 94.285156 31.441406 95.308594 C 31.1875 94.242188 31.011719 93.15625 30.910156 92.074219 C 30.867188 91.664062 30.226562 91.652344 30.257812 92.074219 C 30.425781 94.375 30.933594 96.699219 31.84375 98.824219 C 32.433594 102.46875 33.640625 105.96875 36.21875 108.730469 C 37.972656 110.613281 40.285156 111.953125 42.929688 111.632812 C 45.597656 111.308594 47.761719 109.570312 49.265625 107.421875 C 49.542969 107.023438 48.902344 106.660156 48.621094 107.042969 C 47.105469 109.128906 44.914062 110.871094 42.230469 110.929688 C 39.59375 110.988281 37.414062 109.1875 35.898438 107.1875 C 34.527344 105.378906 33.65625 103.34375 33.085938 101.203125 C 34.355469 103.199219 36.066406 104.886719 38.289062 106.007812 C 42.726562 108.238281 48.550781 107.234375 51.183594 102.765625 C 51.433594 102.347656 50.78125 101.964844 50.535156 102.382812 Z M 50.535156 102.382812 " fill-opacity="1" fill-rule="nonzero"/><path fill="#6168aa" d="M 157.101562 178.835938 C 155.535156 149.042969 152.214844 92.609375 152.214844 92.609375 L 108.550781 90.535156 C 108.550781 90.535156 104.195312 127.828125 104.355469 150.789062 C 104.464844 166.515625 105.550781 183.105469 106.539062 192.269531 C 113.8125 193.027344 121.136719 192.71875 128.351562 191.519531 C 128.1875 180.664062 127.421875 160.832031 127.46875 153.847656 C 127.535156 144.304688 128.464844 132.144531 128.464844 132.144531 C 128.464844 132.144531 133.675781 159.308594 135.367188 170.125 C 136.242188 175.746094 137.121094 183.34375 137.785156 189.429688 C 139.488281 188.960938 141.183594 188.441406 142.863281 187.878906 C 148.039062 186.144531 152.84375 182.886719 157.101562 178.835938 Z M 157.101562 178.835938 " fill-opacity="1" fill-rule="nonzero"/><path fill="#333a74" d="M 122.339844 109.53125 C 122.371094 109.078125 123.074219 108.953125 123.152344 109.441406 C 123.542969 111.890625 124.003906 114.246094 124.683594 116.632812 C 125.378906 119.0625 126.054688 121.5 126.679688 123.949219 C 127.285156 126.34375 127.832031 128.75 128.300781 131.175781 C 128.765625 133.582031 129.40625 136.183594 129.398438 138.644531 C 129.398438 139.242188 128.515625 139.332031 128.378906 138.753906 C 128.085938 137.503906 128.007812 136.179688 127.808594 134.90625 C 127.613281 133.6875 127.394531 132.472656 127.160156 131.261719 C 126.671875 128.773438 126.101562 126.304688 125.488281 123.847656 C 124.890625 121.457031 124.238281 119.085938 123.578125 116.714844 C 122.941406 114.417969 122.179688 111.945312 122.339844 109.53125 Z M 122.339844 109.53125 " fill-opacity="1" fill-rule="nonzero"/><path fill="#333a74" d="M 123.292969 184.285156 C 123.222656 175.683594 123.257812 167.085938 123.390625 158.488281 C 123.527344 149.890625 123.773438 141.296875 124.0625 132.703125 C 124.070312 132.523438 123.800781 132.523438 123.792969 132.699219 C 123.566406 137.550781 123.207031 142.773438 123.070312 147.628906 C 122.828125 156.222656 122.777344 164.816406 122.753906 173.417969 C 122.738281 179.792969 122.84375 185.972656 122.972656 192.242188 C 123.113281 192.230469 123.25 192.214844 123.386719 192.199219 C 123.347656 189.558594 123.3125 186.921875 123.292969 184.285156 Z M 123.292969 184.285156 " fill-opacity="0.5" fill-rule="nonzero"/><path fill="#333a74" d="M 107.96875 95.824219 C 107.363281 101.511719 106.398438 111.15625 105.617188 121.589844 L 154.386719 130.070312 C 153.5625 115.683594 152.816406 102.917969 152.453125 96.671875 Z M 107.96875 95.824219 " fill-opacity="0.5" fill-rule="nonzero"/><path fill="#b0c1d3" d="M 130.890625 104.355469 C 131.652344 104.738281 145.589844 105.503906 146.355469 105.695312 C 147.25 105.917969 146.894531 168.128906 146.773438 186.253906 C 150.292969 184.507812 153.601562 182.09375 156.640625 179.265625 L 157.046875 96.707031 L 130.890625 102.441406 C 130.890625 102.441406 130.125 103.972656 130.890625 104.355469 Z M 130.890625 104.355469 " fill-opacity="1" fill-rule="nonzero"/><path fill="#93aabc" d="M 169.300781 91.664062 L 137.382812 102.441406 C 137.382812 102.441406 137 104.738281 137.382812 104.738281 C 137.761719 104.738281 148.835938 105.121094 149.410156 105.3125 C 149.882812 105.46875 150.746094 163.5625 151.03125 183.757812 C 153.769531 181.90625 156.351562 179.679688 158.738281 177.214844 C 158.695312 152.800781 158.621094 103.449219 158.765625 103.015625 C 158.933594 102.511719 167.097656 96.074219 169.566406 94.285156 C 169.460938 93.414062 169.371094 92.539062 169.300781 91.664062 Z M 169.300781 91.664062 " fill-opacity="1" fill-rule="nonzero"/><path fill="#2b2b2b" d="M 55.457031 107.503906 C 55.429688 107.617188 55.402344 107.726562 55.375 107.839844 C 55.367188 107.835938 55.359375 107.828125 55.347656 107.824219 C 55.347656 107.820312 55.351562 107.820312 55.351562 107.816406 C 55.359375 107.390625 54.722656 107.398438 54.691406 107.816406 C 54.664062 108.25 54.265625 108.542969 54.328125 108.996094 C 54.351562 109.152344 54.445312 109.316406 54.570312 109.445312 C 54.28125 110.242188 53.6875 110.832031 53.175781 111.515625 C 52.625 112.242188 52.253906 113.035156 52.089844 113.933594 C 52.023438 114.300781 52.546875 114.457031 52.65625 114.089844 C 53.011719 112.914062 53.585938 112.082031 54.328125 111.128906 C 54.679688 110.675781 54.972656 110.21875 55.140625 109.695312 C 55.511719 109.65625 55.683594 109.214844 55.816406 108.914062 C 56 108.496094 56.144531 108.058594 56.183594 107.601562 C 56.21875 107.183594 55.558594 107.105469 55.457031 107.503906 Z M 55.457031 107.503906 " fill-opacity="1" fill-rule="nonzero"/><path fill="#2b2b2b" d="M 57.953125 131.472656 C 57.414062 130.40625 56.652344 129.492188 55.976562 128.519531 C 56.425781 128.289062 56.792969 128.082031 56.910156 127.96875 C 57.011719 127.863281 57.058594 126.910156 57.070312 125.566406 C 57.226562 125.378906 57.375 125.183594 57.507812 124.984375 C 58.15625 124.074219 58.46875 122.9375 58.390625 121.816406 C 58.308594 120.59375 57.726562 119.589844 57.007812 118.652344 C 56.980469 118.609375 56.957031 118.566406 56.929688 118.527344 C 56.859375 116.769531 56.777344 115.402344 56.71875 115.15625 C 56.527344 114.390625 52.898438 113.628906 52.898438 113.628906 L 53.273438 124.128906 C 53.207031 123.890625 53.144531 123.648438 53.089844 123.40625 C 53.027344 123.121094 52.59375 123.242188 52.65625 123.527344 C 52.8125 124.269531 53.039062 124.976562 53.328125 125.652344 L 53.472656 129.6875 C 53.472656 129.6875 54.40625 129.277344 55.304688 128.847656 C 55.371094 128.933594 55.4375 129.015625 55.503906 129.097656 C 56.535156 130.6875 57.714844 132.152344 58.046875 134.144531 C 58.230469 135.25 58.265625 136.449219 57.996094 137.5625 C 57.765625 138.4375 57.363281 139.238281 56.726562 139.792969 C 55.867188 140.535156 54.652344 140.605469 53.550781 140.265625 C 53.378906 140.175781 53.230469 140.0625 53.101562 139.914062 C 52.957031 139.742188 52.765625 139.765625 52.632812 139.878906 C 52.097656 139.582031 51.632812 139.191406 51.304688 138.746094 C 51.125 138.5 50.710938 138.734375 50.890625 138.988281 C 51.320312 139.597656 51.886719 140.0625 52.527344 140.386719 C 52.539062 140.40625 52.554688 140.429688 52.570312 140.449219 C 53.515625 141.589844 55.71875 141.476562 56.878906 140.722656 C 58.1875 139.871094 58.742188 138.148438 58.886719 136.679688 C 59.054688 134.929688 58.75 133.039062 57.953125 131.472656 Z M 57.703125 121.816406 C 57.769531 122.753906 57.519531 123.601562 57.070312 124.375 C 57.058594 122.941406 57.023438 121.273438 56.972656 119.75 C 57.355469 120.378906 57.648438 121.046875 57.703125 121.816406 Z M 57.703125 121.816406 " fill-opacity="1" fill-rule="nonzero"/><path fill="#b0c1d3" d="M 26.253906 92.453125 C 26.042969 92.957031 25.832031 93.464844 25.628906 93.96875 C 25.546875 94.183594 25.464844 94.398438 25.382812 94.613281 C 31.097656 95.527344 41.449219 96.863281 41.730469 97.28125 C 42.011719 97.703125 43.332031 141.589844 44.003906 164.605469 C 47.613281 167.65625 51.488281 170.386719 55.507812 172.867188 L 53.566406 105.503906 L 58.105469 94.796875 Z M 26.253906 92.453125 " fill-opacity="1" fill-rule="nonzero"/><path fill="#93aabc" d="M 53.089844 95.464844 C 53.089844 95.464844 46.40625 96.996094 46.40625 97.566406 C 46.40625 97.988281 47.539062 144.621094 48.140625 167.882812 C 50.523438 169.652344 52.984375 171.3125 55.507812 172.867188 L 53.566406 105.503906 L 58.011719 95.015625 Z M 53.089844 95.464844 " fill-opacity="1" fill-rule="nonzero"/><path fill="#2b2b2b" d="M 51.277344 94.796875 C 51.277344 94.796875 51.277344 106.839844 51.847656 107.222656 C 52.421875 107.605469 53.757812 108.179688 55.667969 108.179688 C 57.578125 108.179688 58.914062 107.414062 59.105469 107.03125 C 59.292969 106.648438 59.105469 94.796875 59.105469 94.796875 Z M 51.277344 94.796875 " fill-opacity="1" fill-rule="nonzero"/><path fill="#a9644c" d="M 173.464844 87.722656 C 173.464844 87.722656 67.121094 82.367188 65.59375 82.367188 C 64.066406 82.367188 15.765625 88.867188 15.574219 89.632812 C 15.382812 90.398438 15.574219 92.691406 15.574219 92.691406 C 15.574219 92.691406 138.335938 103.78125 139.863281 103.78125 C 141.390625 103.78125 173.082031 90.78125 173.464844 90.398438 C 173.847656 90.015625 173.464844 87.722656 173.464844 87.722656 Z M 173.464844 87.722656 " fill-opacity="1" fill-rule="nonzero"/><path fill="#d3dadd" d="M 51.65625 86.382812 C 51.65625 86.382812 52.421875 85.234375 55.285156 85.425781 C 58.148438 85.617188 57.578125 86.382812 57.195312 86.765625 C 56.8125 87.148438 51.277344 88.296875 51.085938 89.25 C 50.894531 90.207031 48.792969 88.867188 48.792969 88.867188 Z M 51.65625 86.382812 " fill-opacity="1" fill-rule="nonzero"/><path fill="#ffffff" d="M 82.777344 81.222656 C 82.777344 81.222656 45.359375 79.5 44.402344 78.351562 C 44.078125 77.960938 41.484375 72.730469 39.058594 66.117188 C 38.796875 65.40625 38.894531 64.085938 38.894531 64.085938 C 34.300781 51.457031 28.582031 34.878906 28.9375 33.804688 C 29.511719 32.085938 65.023438 29.597656 66.929688 29.789062 C 68.839844 29.980469 83.734375 80.648438 83.734375 80.839844 C 83.734375 81.03125 82.777344 81.222656 82.777344 81.222656 Z M 82.777344 81.222656 " fill-opacity="1" fill-rule="nonzero"/><path fill="#e5eaec" d="M 66.929688 29.789062 C 66.792969 29.777344 66.488281 29.789062 66.035156 29.816406 C 67.144531 32.578125 71.710938 43.667969 82.445312 81.207031 C 82.664062 81.214844 82.777344 81.222656 82.777344 81.222656 C 82.777344 81.222656 83.734375 81.03125 83.734375 80.839844 C 83.734375 80.648438 68.839844 29.980469 66.929688 29.789062 Z M 66.929688 29.789062 " fill-opacity="1" fill-rule="nonzero"/><path fill="#e5eaec" d="M 77.71875 64.300781 L 38.867188 64.394531 C 38.867188 64.394531 38.101562 66.691406 41.15625 67.835938 C 44.210938 68.984375 68.457031 68.792969 72.085938 67.835938 C 75.714844 66.882812 77.71875 64.300781 77.71875 64.300781 Z M 77.71875 64.300781 " fill-opacity="1" fill-rule="nonzero"/><path fill="#e5eaec" d="M 70.523438 78.164062 C 68.273438 77.878906 65.925781 77.605469 63.644531 77.539062 C 63.421875 76.433594 62.539062 73.515625 62.152344 72.253906 C 64.449219 72.234375 66.929688 72.425781 69.199219 72.402344 C 69.675781 72.398438 69.671875 71.707031 69.199219 71.660156 C 66.523438 71.402344 63.6875 71.46875 60.972656 71.429688 C 60.679688 71.425781 60.566406 71.804688 60.726562 71.984375 C 60.726562 72.003906 60.730469 72.019531 60.734375 72.035156 C 61.328125 73.957031 61.996094 75.863281 62.757812 77.722656 C 62.777344 77.765625 62.800781 77.800781 62.828125 77.832031 C 62.820312 77.964844 62.886719 78.09375 63.042969 78.121094 C 65.480469 78.550781 68.054688 78.738281 70.523438 78.890625 C 71 78.921875 70.972656 78.222656 70.523438 78.164062 Z M 70.523438 78.164062 " fill-opacity="1" fill-rule="nonzero"/><path fill="#e5eaec" d="M 76.824219 79.121094 C 76.21875 75.691406 74.925781 72.261719 73.703125 69.015625 C 73.546875 68.59375 72.863281 68.773438 73.023438 69.203125 C 73.632812 70.859375 74.199219 72.527344 74.71875 74.214844 C 75.238281 75.898438 75.613281 77.628906 76.15625 79.304688 C 76.292969 79.734375 76.898438 79.554688 76.824219 79.121094 Z M 76.824219 79.121094 " fill-opacity="0.5" fill-rule="nonzero"/><path fill="#ffffff" d="M 54.710938 73.574219 C 54.710938 73.574219 56.429688 75.777344 56.523438 76.683594 C 56.621094 77.589844 56.8125 78.542969 56.8125 78.542969 C 56.8125 78.542969 51.277344 88.675781 51.46875 89.058594 C 51.65625 89.441406 45.929688 88.105469 45.929688 88.105469 L 48.222656 83.132812 Z M 54.710938 73.574219 " fill-opacity="1" fill-rule="nonzero"/><path fill="#d3dadd" d="M 73.804688 88.296875 C 73.042969 87.722656 70.082031 87.433594 67.789062 88.007812 C 65.5 88.582031 61.300781 89.347656 55.761719 89.15625 C 50.226562 88.964844 47.363281 88.199219 47.363281 87.433594 C 47.363281 86.671875 54.425781 74.625 54.808594 74.433594 C 54.914062 74.382812 55.089844 74.617188 55.296875 74.984375 C 55.789062 76.167969 56.15625 77.382812 56.394531 78.667969 C 56.484375 79.140625 57.203125 78.941406 57.117188 78.46875 C 56.796875 76.6875 56.199219 74.964844 55.320312 73.378906 C 55.222656 73.199219 55.046875 73.175781 54.902344 73.242188 C 54.871094 73.230469 54.835938 73.21875 54.796875 73.214844 C 53.800781 73.132812 52.8125 73.214844 51.839844 73.429688 C 51.417969 73.527344 51.605469 74.128906 52.015625 74.066406 C 52.175781 74.042969 52.339844 74.023438 52.5 74.003906 C 52.472656 74.050781 52.445312 74.09375 52.421875 74.148438 C 52.421875 74.148438 43.640625 88.292969 44.402344 89.441406 C 45.167969 90.589844 54.140625 91.925781 64.066406 91.164062 C 73.996094 90.398438 74.570312 88.867188 73.804688 88.296875 Z M 73.804688 88.296875 " fill-opacity="1" fill-rule="nonzero"/><path fill="#2b2b2b" d="M 67.246094 75.265625 C 67.128906 75.277344 67.015625 75.34375 66.957031 75.441406 C 66.9375 75.453125 66.917969 75.464844 66.898438 75.476562 C 66.808594 75.546875 66.746094 75.691406 66.773438 75.8125 C 64.726562 76.855469 62.527344 77.503906 60.410156 78.355469 C 60.523438 78.21875 60.644531 78.082031 60.769531 77.949219 C 61.6875 76.988281 62.789062 76.25 64.003906 75.734375 C 64.007812 75.738281 64.011719 75.742188 64.019531 75.746094 C 64.050781 75.769531 64.085938 75.785156 64.125 75.796875 C 64.125 75.796875 64.125 75.796875 64.128906 75.796875 C 64.464844 75.800781 64.804688 75.808594 65.144531 75.816406 C 65.289062 75.71875 65.433594 75.628906 65.582031 75.546875 L 65.582031 74.644531 C 65.027344 74.597656 64.472656 74.605469 63.917969 74.605469 C 63.914062 74.617188 63.90625 74.625 63.902344 74.636719 C 63.851562 74.6875 63.816406 74.757812 63.8125 74.839844 C 63.808594 74.921875 63.808594 75.007812 63.816406 75.089844 C 61.867188 75.863281 60.230469 77.191406 59.066406 78.941406 C 58.824219 79.050781 58.585938 79.167969 58.347656 79.292969 C 57.15625 79.914062 56.019531 80.707031 55.164062 81.757812 C 54.402344 82.6875 54.007812 83.800781 53.472656 84.851562 C 52.976562 84.988281 52.46875 85.078125 51.960938 85.125 C 48.585938 85.4375 45.113281 84.265625 41.808594 83.699219 C 40.203125 83.425781 38.585938 83.195312 36.957031 83.074219 C 35.566406 82.96875 34.082031 82.839844 32.707031 83.148438 C 30.34375 83.675781 29.21875 86.058594 29.648438 88.296875 C 27.34375 88.3125 25.503906 88.691406 25.503906 89.15625 C 25.503906 89.628906 27.425781 90.015625 29.796875 90.015625 C 32.171875 90.015625 34.09375 89.628906 34.09375 89.15625 C 34.09375 88.757812 32.757812 88.425781 30.941406 88.328125 C 30.71875 87.617188 30.941406 86.832031 31.246094 86.167969 C 31.753906 85.046875 32.757812 85.125 33.816406 85.292969 C 35.339844 85.539062 36.832031 85.953125 38.300781 86.417969 C 41.109375 87.3125 43.925781 88.558594 46.867188 88.941406 C 49.324219 89.265625 51.785156 88.472656 53.324219 86.464844 C 53.5625 86.152344 53.761719 85.820312 53.941406 85.480469 C 55.828125 84.871094 57.253906 83.609375 58.285156 81.808594 C 58.734375 81.023438 59.144531 80.222656 59.621094 79.464844 C 62.066406 78.402344 64.792969 77.867188 66.992188 76.34375 C 67.054688 76.425781 67.152344 76.476562 67.253906 76.472656 C 67.328125 76.46875 67.40625 76.441406 67.46875 76.394531 C 67.605469 76.414062 67.734375 76.351562 67.820312 76.226562 C 68.09375 75.816406 67.738281 75.21875 67.246094 75.265625 Z M 49.402344 88.15625 C 47.558594 88.570312 45.652344 88.023438 43.894531 87.492188 C 40.769531 86.546875 37.738281 85.261719 34.519531 84.664062 C 33.28125 84.433594 31.75 84.070312 30.894531 85.257812 C 30.828125 85.351562 30.761719 85.457031 30.699219 85.558594 C 30.765625 85.421875 30.839844 85.289062 30.925781 85.160156 C 31.816406 83.816406 33.46875 83.714844 34.933594 83.734375 C 38.101562 83.777344 41.234375 84.324219 44.332031 84.929688 C 47.105469 85.472656 49.984375 86.25 52.824219 85.757812 C 52.871094 85.75 52.914062 85.738281 52.960938 85.730469 C 52.125 86.949219 50.851562 87.832031 49.402344 88.15625 Z M 56.367188 83.222656 C 55.800781 83.796875 55.125 84.226562 54.394531 84.535156 C 54.644531 83.980469 54.894531 83.425781 55.214844 82.90625 C 55.960938 81.699219 57.085938 80.800781 58.308594 80.109375 C 58.339844 80.089844 58.371094 80.074219 58.402344 80.058594 C 57.800781 81.164062 57.25 82.320312 56.367188 83.222656 Z M 56.367188 83.222656 " fill-opacity="1" fill-rule="nonzero"/><path fill="#824334" d="M 15.582031 89.621094 C 15.578125 89.625 15.574219 89.628906 15.574219 89.632812 C 15.382812 90.398438 15.574219 92.691406 15.574219 92.691406 C 15.574219 92.691406 138.335938 103.78125 139.863281 103.78125 C 141.390625 103.78125 173.082031 90.78125 173.464844 90.398438 C 173.804688 90.058594 173.542969 88.230469 173.480469 87.808594 C 165.035156 90.898438 140.683594 99.800781 140.054688 99.957031 C 139.347656 100.132812 32.039062 91.019531 15.582031 89.621094 Z M 15.582031 89.621094 " fill-opacity="1" fill-rule="nonzero"/><path fill="#ffffff" d="M 68.078125 85.328125 L 68.078125 86.542969 C 68.078125 86.542969 90.339844 90.191406 90.742188 90.191406 C 91.148438 90.191406 98.433594 87.757812 98.433594 87.355469 C 98.433594 86.949219 98.433594 86.136719 98.433594 86.136719 C 98.433594 86.136719 76.171875 83.707031 75.96875 83.707031 C 75.765625 83.707031 68.078125 85.328125 68.078125 85.328125 Z M 68.078125 85.328125 " fill-opacity="1" fill-rule="nonzero"/><path fill="#e5eaec" d="M 90.542969 88.773438 C 90.160156 88.773438 70.285156 85.699219 68.078125 85.359375 L 68.078125 86.542969 C 68.078125 86.542969 90.339844 90.191406 90.742188 90.191406 C 91.148438 90.191406 98.433594 87.757812 98.433594 87.355469 C 98.433594 86.980469 98.433594 86.269531 98.433594 86.15625 C 96.027344 86.992188 90.851562 88.773438 90.542969 88.773438 Z M 90.542969 88.773438 " fill-opacity="1" fill-rule="nonzero"/><path fill="#ffffff" d="M 59.242188 84.851562 C 59.242188 84.851562 60.617188 85.308594 64.050781 84.847656 C 67.488281 84.382812 69.320312 83.921875 69.320312 83.464844 C 69.320312 83.003906 67.257812 81.628906 63.589844 81.632812 C 59.925781 81.636719 55.804688 83.9375 59.242188 84.851562 Z M 59.242188 84.851562 " fill-opacity="1" fill-rule="nonzero"/><path fill="#e5eaec" d="M 67.8125 82.894531 C 66.277344 82.859375 64.683594 83.042969 63.269531 83.660156 C 62.484375 84 61.722656 84.382812 60.84375 84.359375 C 59.957031 84.335938 59.175781 83.980469 58.398438 83.59375 C 58.234375 83.507812 58.117188 83.726562 58.257812 83.835938 C 59.496094 84.761719 61.074219 85.015625 62.511719 84.445312 C 63.3125 84.125 64.058594 83.738281 64.910156 83.558594 C 65.871094 83.355469 66.839844 83.375 67.816406 83.289062 C 68.0625 83.269531 68.070312 82.902344 67.8125 82.894531 Z M 67.8125 82.894531 " fill-opacity="1" fill-rule="nonzero"/><path fill="#efb44b" d="M 164.015625 72.902344 C 165.160156 71.566406 163.058594 69.464844 163.058594 69.464844 C 163.058594 69.464844 164.207031 66.59375 164.015625 65.257812 C 163.824219 63.917969 162.488281 61.816406 161.53125 60.476562 C 160.578125 59.140625 160.292969 47.761719 157.429688 43.746094 C 154.5625 39.734375 148.265625 37.4375 148.265625 37.4375 L 144.160156 44.417969 C 144.160156 44.417969 145.6875 57.417969 145.6875 59.519531 C 145.6875 61.625 147.40625 65.257812 147.40625 66.976562 C 147.40625 68.699219 148.933594 74.433594 148.933594 74.433594 C 148.933594 74.433594 146.070312 76.15625 145.742188 75.964844 C 145.410156 75.773438 144.542969 75.773438 142.824219 75.964844 C 141.105469 76.15625 140.53125 78.066406 140.148438 78.066406 C 139.769531 78.066406 133.59375 77.855469 133.59375 77.855469 L 132.324219 84.757812 C 132.324219 84.757812 134.996094 87.242188 140.914062 88.199219 C 146.832031 89.15625 158.476562 89.15625 162.871094 84.566406 C 167.261719 79.976562 164.015625 72.902344 164.015625 72.902344 Z M 164.015625 72.902344 " fill-opacity="1" fill-rule="nonzero"/><path fill="#d89b39" d="M 161.066406 71.765625 C 158.441406 70.546875 155.453125 70.472656 152.761719 71.523438 C 152.585938 71.589844 152.515625 71.746094 152.523438 71.894531 C 152.277344 71.96875 152.03125 72.046875 151.789062 72.136719 C 150.921875 72.457031 150.089844 72.867188 149.289062 73.328125 C 149.175781 73.394531 149.0625 73.464844 148.945312 73.546875 C 148.933594 73.511719 148.917969 73.476562 148.894531 73.4375 C 148.46875 72.710938 148.230469 71.9375 148.238281 71.089844 C 148.242188 70.367188 148.570312 69.667969 148.464844 68.941406 C 148.355469 68.171875 148.007812 67.488281 147.929688 66.699219 C 147.867188 66.007812 147.859375 65.316406 147.769531 64.628906 C 147.578125 63.128906 147.003906 61.710938 146.765625 60.21875 C 146.492188 58.503906 145.882812 54.847656 145.828125 53.117188 C 145.808594 52.398438 144.699219 52.390625 144.710938 53.117188 C 144.738281 54.835938 145.367188 58.464844 145.613281 60.167969 C 145.859375 61.871094 146.539062 63.492188 146.6875 65.199219 C 146.757812 65.96875 146.757812 66.742188 146.890625 67.507812 C 146.945312 67.835938 147.023438 68.148438 147.128906 68.464844 C 147.308594 69.019531 147.324219 69.4375 147.238281 70.027344 C 147.03125 71.4375 147.25 72.738281 148.011719 73.957031 C 148.050781 74.019531 148.097656 74.066406 148.148438 74.105469 C 147.527344 74.535156 146.867188 74.933594 146.214844 74.917969 C 144.574219 74.878906 143.167969 74.976562 141.78125 75.988281 C 141.464844 76.21875 141.171875 76.667969 140.847656 76.847656 C 140.492188 77.046875 139.742188 76.910156 139.359375 76.914062 C 138.15625 76.914062 134.855469 77.101562 133.65625 77.097656 C 133.011719 77.097656 133.011719 78.089844 133.65625 78.101562 C 134.730469 78.121094 137.90625 77.949219 138.980469 77.972656 C 139.730469 77.984375 140.957031 78.289062 141.546875 77.75 C 142.226562 77.125 142.816406 76.554688 143.714844 76.25 C 144.648438 75.929688 145.429688 76.039062 146.382812 76.085938 C 147.207031 76.125 147.800781 75.613281 148.460938 75.183594 C 149.242188 74.671875 150.039062 74.183594 150.878906 73.765625 C 152.949219 72.734375 155.050781 72.457031 157.320312 72.847656 C 158.007812 72.964844 158.3125 71.96875 157.613281 71.785156 C 157.152344 71.664062 156.683594 71.582031 156.210938 71.539062 C 157.730469 71.484375 159.25 71.773438 160.695312 72.402344 C 161.121094 72.585938 161.496094 71.96875 161.066406 71.765625 Z M 161.066406 71.765625 " fill-opacity="1" fill-rule="nonzero"/><path fill="#d89b39" d="M 157.113281 43.804688 C 156.257812 43.15625 155.230469 43.207031 154.222656 43.363281 C 152.898438 43.5625 151.664062 43.875 150.664062 44.804688 C 148.710938 46.621094 147.421875 49.332031 146.644531 51.839844 C 146.542969 52.164062 147.039062 52.296875 147.144531 51.980469 C 147.886719 49.808594 148.964844 47.699219 150.453125 45.9375 C 151.273438 44.96875 152.207031 44.414062 153.453125 44.160156 C 154.539062 43.933594 155.820312 43.65625 156.78125 44.371094 C 157.121094 44.625 157.445312 44.054688 157.113281 43.804688 Z M 157.113281 43.804688 " fill-opacity="0.5" fill-rule="nonzero"/><path fill="#4d4d4d" d="M 124.894531 82.464844 C 124.894531 82.464844 101.339844 84.398438 100.824219 85.425781 C 100.429688 86.21875 101.023438 86.21875 101.023438 86.21875 C 101.023438 86.21875 136.632812 93.625 138.40625 93.824219 C 140.183594 94.019531 159.910156 89.082031 159.910156 88.488281 C 159.910156 87.898438 159.910156 87.5 159.910156 87.5 Z M 124.894531 82.464844 " fill-opacity="1" fill-rule="nonzero"/><path fill="#1a1a1a" d="M 138.503906 92.933594 C 137.574219 93.121094 104.609375 86.292969 100.789062 85.503906 C 100.472656 86.214844 101.023438 86.21875 101.023438 86.21875 C 101.023438 86.21875 136.632812 93.625 138.40625 93.824219 C 140.183594 94.019531 159.910156 89.082031 159.910156 88.488281 C 159.910156 87.988281 159.910156 87.632812 159.910156 87.53125 C 155.242188 88.722656 139.347656 92.765625 138.503906 92.933594 Z M 138.503906 92.933594 " fill-opacity="1" fill-rule="nonzero"/><path fill="#2b2b2b" d="M 156.679688 87.679688 C 153.195312 87.203125 149.710938 86.742188 146.226562 86.28125 C 144.3125 86 141.855469 85.652344 139.261719 85.289062 C 137.960938 85.078125 136.660156 84.84375 135.367188 84.578125 C 135.257812 84.554688 135.191406 84.644531 135.191406 84.726562 C 129.179688 83.898438 123.59375 83.15625 123.414062 83.15625 C 123.074219 83.15625 110.5625 84.605469 106.996094 85.019531 C 106.203125 84.871094 105.40625 84.726562 104.613281 84.597656 C 104.414062 84.566406 104.320312 84.859375 104.527344 84.910156 C 106.878906 85.460938 109.269531 85.882812 111.640625 86.351562 C 113.984375 86.816406 116.324219 87.28125 118.667969 87.742188 C 123.351562 88.671875 128.035156 89.597656 132.722656 90.523438 C 135.382812 91.050781 138.046875 91.578125 140.710938 92.105469 C 140.957031 92.15625 141.0625 91.773438 140.816406 91.726562 C 138.660156 91.300781 136.5 90.871094 134.34375 90.445312 C 135.574219 90.160156 146.914062 87.816406 149.652344 87.105469 C 152.046875 87.429688 154.230469 87.746094 156.628906 88.058594 C 156.839844 88.085938 156.890625 87.710938 156.679688 87.679688 Z M 156.679688 87.679688 " fill-opacity="1" fill-rule="nonzero"/><path fill="#2b2b2b" d="M 149.445312 89.160156 C 149.34375 88.683594 148.640625 88.441406 148.238281 88.308594 C 146.800781 87.828125 145.109375 87.988281 143.699219 88.472656 C 143.441406 88.5625 143.574219 88.734375 143.835938 88.652344 C 144.835938 88.335938 145.847656 88.410156 146.894531 88.496094 C 147.371094 88.535156 147.851562 88.613281 148.296875 88.789062 C 148.457031 88.851562 149.019531 89.09375 148.964844 89.367188 C 148.929688 89.539062 148.46875 89.785156 148.339844 89.867188 C 147.53125 90.371094 146.566406 90.550781 145.621094 90.535156 C 145.078125 90.527344 144.53125 90.453125 143.996094 90.347656 C 143.460938 90.242188 142.242188 90.007812 142.921875 89.226562 C 143.066406 89.0625 142.933594 88.910156 142.785156 89.074219 C 142.496094 89.382812 142.261719 89.738281 142.574219 90.128906 C 142.964844 90.625 143.734375 90.710938 144.308594 90.804688 C 145.710938 91.039062 147.21875 91.011719 148.476562 90.273438 C 148.835938 90.0625 149.550781 89.664062 149.445312 89.160156 Z M 149.445312 89.160156 " fill-opacity="1" fill-rule="nonzero"/><path fill="#2b2b2b" d="M 146.082031 88.792969 C 145.59375 88.800781 144.34375 88.917969 144.5625 89.527344 C 144.75 90.039062 145.738281 90.082031 146.171875 90.054688 C 146.507812 90.03125 147.664062 89.75 147.265625 89.167969 C 147.226562 89.109375 147.164062 89.066406 147.105469 89.027344 C 146.839844 88.871094 146.527344 88.804688 146.222656 88.792969 C 146.1875 88.789062 146.140625 88.789062 146.082031 88.792969 Z M 146.082031 88.792969 " fill-opacity="1" fill-rule="nonzero"/><path fill="#ce7151" d="M 126.691406 76.441406 C 126.5 76.441406 122.917969 80.035156 122.917969 80.035156 L 124.78125 81.222656 L 132.035156 79.117188 L 131.464844 76.632812 Z M 126.691406 76.441406 " fill-opacity="1" fill-rule="nonzero"/><path fill="#1a1a1a" d="M 134.152344 71.746094 C 134.015625 71.546875 133.8125 71.378906 133.554688 71.433594 C 133.238281 71.496094 132.933594 71.800781 132.679688 71.984375 C 132.546875 72.082031 132.605469 72.265625 132.722656 72.300781 C 132.710938 72.375 132.707031 72.445312 132.71875 72.515625 C 132.542969 72.648438 132.714844 72.925781 132.917969 72.820312 C 133.265625 72.644531 133.601562 72.4375 133.941406 72.246094 C 134.164062 72.117188 134.328125 71.996094 134.152344 71.746094 Z M 134.152344 71.746094 " fill-opacity="1" fill-rule="nonzero"/><path fill="#1a1a1a" d="M 132.132812 72.140625 C 132.132812 72.140625 119.304688 79.902344 118.003906 80.550781 C 117.238281 80.933594 115.902344 83.800781 116.09375 83.800781 C 116.285156 83.800781 118.957031 83.417969 119.722656 82.847656 C 120.613281 82.175781 132.894531 73.09375 133.277344 72.902344 C 133.660156 72.714844 133.277344 71.375 132.132812 72.140625 Z M 132.132812 72.140625 " fill-opacity="1" fill-rule="nonzero"/><path fill="#1a1a1a" d="M 116.261719 83.449219 C 116.0625 83.570312 115.859375 83.691406 115.652344 83.800781 C 115.445312 83.910156 115.625 84.203125 115.828125 84.105469 C 116.042969 84.007812 116.25 83.898438 116.449219 83.769531 C 116.644531 83.640625 116.46875 83.328125 116.261719 83.449219 Z M 116.261719 83.449219 " fill-opacity="1" fill-rule="nonzero"/><path fill="#1a1a1a" d="M 123.121094 78.878906 C 122.832031 78.472656 122.363281 78.296875 121.878906 78.300781 C 121.703125 78.300781 121.707031 78.5625 121.878906 78.574219 C 122.28125 78.597656 122.671875 78.738281 122.890625 79.097656 C 123.109375 79.460938 123.003906 79.855469 122.90625 80.234375 C 122.855469 80.4375 123.160156 80.523438 123.21875 80.320312 C 123.367188 79.828125 123.433594 79.320312 123.121094 78.878906 Z M 123.121094 78.878906 " fill-opacity="1" fill-rule="nonzero"/><path fill="#e9946b" d="M 137.183594 84.085938 C 137.164062 81.753906 134.542969 78.222656 134.542969 78.222656 C 134.542969 78.222656 134.542969 78.222656 133.972656 77.835938 C 133.402344 77.445312 133.988281 76.496094 133.230469 75.722656 C 132.476562 74.949219 128.277344 74.714844 126.941406 74.890625 C 125.601562 75.066406 123.253906 76.441406 122.523438 76.742188 C 121.796875 77.042969 121.164062 77.71875 122.507812 78.269531 C 123.636719 78.734375 124.996094 78.121094 126.335938 77.75 C 127.675781 77.382812 129.582031 77.785156 129.582031 77.785156 C 129.578125 77.976562 126.328125 78.324219 125.5625 78.699219 C 124.792969 79.074219 120.957031 80.75 120.5625 82.085938 C 120.164062 83.421875 122.078125 82.867188 122.078125 82.867188 C 122.078125 82.867188 122.300781 83.515625 123.023438 84.023438 C 123.800781 84.574219 128.558594 84.085938 128.558594 84.085938 C 127.410156 84.265625 127.203125 85.984375 128.730469 85.808594 C 129.789062 85.6875 131.753906 85.484375 132.871094 85.371094 C 134.335938 85.050781 135.777344 84.613281 137.183594 84.085938 Z M 137.183594 84.085938 " fill-opacity="1" fill-rule="nonzero"/><path fill="#ce7151" d="M 137.191406 83.132812 C 137 82.367188 136.789062 81.273438 136.398438 80.683594 C 136.230469 80.429688 136.1875 80.453125 135.984375 80.230469 C 135.691406 79.910156 135.660156 79.8125 135.542969 79.453125 C 135.40625 79.019531 135.292969 78.664062 134.949219 78.335938 C 134.800781 78.195312 134.628906 78.125 134.472656 77.996094 C 134.007812 77.609375 133.984375 77.316406 133.929688 76.703125 C 133.902344 76.429688 133.472656 76.429688 133.5 76.703125 C 133.550781 77.171875 133.460938 77.757812 133.726562 78.167969 C 133.839844 78.335938 134.011719 78.410156 134.160156 78.535156 C 134.636719 78.925781 134.746094 79.179688 134.894531 79.78125 C 135.03125 80.335938 135.25 80.460938 135.621094 80.894531 C 136.125 81.480469 136.378906 82.363281 136.71875 83.058594 C 136.921875 83.480469 137.300781 83.574219 137.191406 83.132812 Z M 137.191406 83.132812 " fill-opacity="1" fill-rule="nonzero"/><g clip-path="url(#5bab9da36c)"><path fill="#fff3e1" d="M 174.988281 51.453125 C 173.464844 62.523438 171.492188 73.515625 168.777344 84.359375 C 168.382812 85.925781 170.800781 86.59375 171.191406 85.027344 C 173.933594 74.09375 175.992188 62.960938 177.070312 51.738281 C 177.183594 50.558594 175.152344 50.269531 174.988281 51.453125 Z M 174.988281 51.453125 " fill-opacity="1" fill-rule="nonzero"/></g><g clip-path="url(#462869d989)"><path fill="#fff3e1" d="M 176.257812 46.152344 C 174.71875 46.152344 174.714844 48.546875 176.257812 48.546875 C 177.796875 48.546875 177.796875 46.152344 176.257812 46.152344 Z M 176.257812 46.152344 " fill-opacity="1" fill-rule="nonzero"/></g></svg>