<?xml version="1.0" encoding="utf-8"?><!-- Uploaded to: SVG Repo, www.svgrepo.com, Generator: SVG Repo Mixer Tools -->
<svg width="800px" height="800px" viewBox="0 0 32 32" fill="none" xmlns="http://www.w3.org/2000/svg">
<path d="M31 10V30C31 30.55 30.55 31 30 31H2C1.45 31 1 30.55 1 30V10C1 9.45 1.45 9 2 9H30C30.55 9 31 9.45 31 10Z" fill="#FFC44D"/>
<path d="M4 12L15 23C15.834 23.834 16.167 23.833 17 23L28 12M9.5 22.5L4 28M28 28L22.5 22.5M31 30C31 30.553 30.553 31 30 31H2C1.447 31 1 30.553 1 30V10C1 9.447 1.447 9 2 9H30C30.553 9 31 9.447 31 10V30Z" stroke="#000000" stroke-width="2" stroke-linecap="round" stroke-linejoin="round"/>
</svg>