<svg xmlns="http://www.w3.org/2000/svg" xmlns:xlink="http://www.w3.org/1999/xlink" width="500" zoomAndPan="magnify" viewBox="0 0 375 374.999991" height="500" preserveAspectRatio="xMidYMid meet" version="1.0"><defs><clipPath id="f66dea2504"><path d="M 6.03125 6.03125 L 369 6.03125 L 369 369 L 6.03125 369 Z M 6.03125 6.03125 " clip-rule="nonzero"/></clipPath></defs><g clip-path="url(#f66dea2504)"><path fill="#cecece" d="M 187.496094 6.03125 C 87.273438 6.03125 6.03125 87.273438 6.03125 187.496094 C 6.03125 287.714844 87.273438 368.960938 187.496094 368.960938 C 280.894531 368.960938 357.738281 298.378906 367.777344 207.660156 C 364.878906 207.660156 335.730469 207.660156 327.023438 207.660156 C 317.1875 275.941406 258.457031 328.636719 187.496094 328.636719 C 109.671875 328.636719 46.355469 265.320312 46.355469 187.496094 C 46.355469 109.671875 109.671875 46.355469 187.496094 46.355469 C 231.53125 46.355469 270.898438 66.652344 296.800781 98.351562 L 247.984375 147.171875 L 368.960938 147.171875 L 368.960938 26.195312 L 325.410156 69.742188 C 292.128906 30.800781 242.738281 6.03125 187.496094 6.03125 Z M 187.496094 6.03125 " fill-opacity="1" fill-rule="nonzero"/></g></svg>