<svg xmlns="http://www.w3.org/2000/svg" xmlns:xlink="http://www.w3.org/1999/xlink" width="500" zoomAndPan="magnify" viewBox="0 0 375 374.999991" height="500" preserveAspectRatio="xMidYMid meet" version="1.0"><path fill="#ffffff" d="M 75.234375 260.78125 C 74.648438 261.367188 74.152344 262.046875 73.773438 262.777344 L 23.53125 359.140625 C 21.886719 362.296875 22.472656 366.144531 24.992188 368.675781 C 26.554688 370.230469 28.644531 371.0625 30.757812 371.0625 C 32.035156 371.0625 33.339844 370.777344 34.539062 370.136719 L 130.878906 319.882812 C 131.609375 319.515625 132.273438 319.007812 132.875 318.421875 L 146.347656 304.945312 L 88.707031 247.320312 Z M 75.234375 260.78125 " fill-opacity="1" fill-rule="nonzero"/><path fill="#ffffff" d="M 358.96875 34.671875 C 343.578125 19.253906 313.746094 22.214844 295.070312 40.921875 L 273.144531 62.832031 L 255.847656 45.539062 C 254.320312 44.011719 252.261719 43.152344 250.09375 43.152344 C 247.929688 43.152344 245.855469 44 244.34375 45.539062 L 146.335938 143.546875 C 143.152344 146.730469 143.152344 151.894531 146.335938 155.078125 C 147.925781 156.667969 150.011719 157.476562 152.101562 157.476562 C 154.1875 157.476562 156.273438 156.667969 157.851562 155.078125 L 250.070312 62.847656 L 261.613281 74.390625 L 100.199219 235.804688 L 157.839844 293.429688 L 319.265625 132.042969 C 322.449219 135.222656 326.101562 135.222656 329.296875 132.042969 C 332.492188 128.859375 327.78125 123.707031 327.78125 120.523438 L 327.78125 120.5 L 351.195312 98.574219 C 370.566406 79.214844 374.871094 50.597656 358.96875 34.671875 Z M 358.96875 34.671875 " fill-opacity="1" fill-rule="nonzero"/></svg>