<svg xmlns="http://www.w3.org/2000/svg" xmlns:xlink="http://www.w3.org/1999/xlink" width="500" zoomAndPan="magnify" viewBox="0 0 375 374.999991" height="500" preserveAspectRatio="xMidYMid meet" version="1.0"><defs><clipPath id="8eaf984e92"><path d="M 2 23 L 373.503906 23 L 373.503906 352 L 2 352 Z M 2 23 " clip-rule="nonzero"/></clipPath></defs><g clip-path="url(#8eaf984e92)"><path fill="#ffffff" d="M 371.339844 90.351562 L 214.007812 23.738281 C 213.167969 23.386719 212.316406 23.351562 211.453125 23.640625 C 210.59375 23.351562 209.746094 23.378906 208.90625 23.730469 L 49.257812 90.34375 C 48.933594 90.480469 48.632812 90.664062 48.359375 90.890625 C 48.085938 91.117188 47.851562 91.375 47.652344 91.671875 C 47.457031 91.96875 47.308594 92.285156 47.207031 92.625 C 47.101562 92.964844 47.050781 93.3125 47.054688 93.667969 C 47.054688 94.023438 47.105469 94.367188 47.207031 94.707031 C 47.3125 95.046875 47.460938 95.367188 47.65625 95.660156 C 47.855469 95.957031 48.089844 96.214844 48.363281 96.441406 C 48.636719 96.667969 48.9375 96.847656 49.265625 96.984375 L 89.367188 113.734375 C 89.246094 114.304688 89.070312 114.851562 88.839844 115.386719 C 88.609375 115.921875 88.332031 116.425781 88.003906 116.90625 C 87.675781 117.382812 87.300781 117.824219 86.886719 118.230469 C 86.46875 118.636719 86.019531 118.996094 85.53125 119.3125 C 85.042969 119.628906 84.53125 119.894531 83.992188 120.109375 C 83.453125 120.324219 82.898438 120.488281 82.328125 120.59375 C 81.753906 120.699219 81.179688 120.75 80.597656 120.742188 C 80.019531 120.734375 79.445312 120.671875 78.875 120.550781 L 39.289062 112.054688 C 38.460938 111.882812 37.628906 111.777344 36.785156 111.734375 C 35.941406 111.691406 35.101562 111.714844 34.261719 111.804688 C 33.421875 111.890625 32.597656 112.046875 31.78125 112.261719 C 30.964844 112.480469 30.171875 112.761719 29.398438 113.101562 C 28.628906 113.441406 27.886719 113.84375 27.179688 114.300781 C 26.46875 114.757812 25.800781 115.265625 25.167969 115.828125 C 24.539062 116.386719 23.957031 116.996094 23.421875 117.644531 C 22.886719 118.296875 22.402344 118.988281 21.976562 119.714844 C 21.003906 121.328125 20.042969 122.941406 19.152344 124.605469 C 18.75 125.34375 18.40625 126.105469 18.121094 126.894531 C 17.839844 127.683594 17.617188 128.488281 17.453125 129.3125 C 17.292969 130.132812 17.195312 130.964844 17.164062 131.800781 C 17.128906 132.640625 17.160156 133.476562 17.253906 134.308594 C 17.347656 135.140625 17.503906 135.964844 17.726562 136.773438 C 17.945312 137.582031 18.226562 138.367188 18.566406 139.136719 C 18.90625 139.902344 19.304688 140.636719 19.757812 141.34375 C 20.210938 142.046875 20.71875 142.714844 21.273438 143.34375 L 48.367188 173.246094 C 48.59375 173.496094 48.804688 173.757812 49.003906 174.03125 C 49.203125 174.304688 49.382812 174.585938 49.546875 174.882812 C 49.714844 175.175781 49.859375 175.476562 49.992188 175.789062 C 50.121094 176.097656 50.234375 176.417969 50.328125 176.742188 C 50.425781 177.0625 50.5 177.390625 50.558594 177.722656 C 50.613281 178.058594 50.652344 178.390625 50.671875 178.726562 C 50.691406 179.066406 50.691406 179.402344 50.671875 179.738281 C 50.652344 180.074219 50.613281 180.410156 50.554688 180.742188 C 50.5 181.074219 50.421875 181.402344 50.328125 181.726562 C 50.234375 182.050781 50.121094 182.367188 49.988281 182.675781 C 49.859375 182.988281 49.710938 183.289062 49.542969 183.585938 C 49.378906 183.878906 49.199219 184.160156 49 184.433594 C 48.800781 184.707031 48.589844 184.96875 48.363281 185.21875 C 48.132812 185.46875 47.894531 185.703125 47.640625 185.925781 C 47.386719 186.144531 47.117188 186.351562 46.839844 186.542969 C 46.5625 186.734375 46.277344 186.910156 45.976562 187.066406 L 10.773438 205.667969 C 10.027344 206.066406 9.3125 206.523438 8.636719 207.039062 C 7.957031 207.550781 7.324219 208.113281 6.734375 208.722656 C 6.144531 209.335938 5.605469 209.988281 5.117188 210.683594 C 4.632812 211.378906 4.199219 212.109375 3.828125 212.871094 C 3.453125 213.636719 3.140625 214.421875 2.890625 215.234375 C 2.640625 216.046875 2.457031 216.875 2.335938 217.714844 C 2.214844 218.554688 2.15625 219.398438 2.167969 220.25 C 2.179688 221.097656 2.257812 221.941406 2.398438 222.78125 C 2.695312 224.628906 3.046875 226.417969 3.488281 228.667969 C 3.652344 229.488281 3.875 230.292969 4.164062 231.082031 C 4.449219 231.867188 4.792969 232.628906 5.199219 233.363281 C 5.601562 234.097656 6.0625 234.796875 6.574219 235.457031 C 7.085938 236.121094 7.644531 236.742188 8.25 237.320312 C 8.859375 237.894531 9.507812 238.421875 10.195312 238.898438 C 10.882812 239.378906 11.605469 239.796875 12.359375 240.164062 C 13.113281 240.53125 13.890625 240.835938 14.691406 241.082031 C 15.488281 241.328125 16.304688 241.511719 17.132812 241.632812 L 56.554688 247.066406 C 57.902344 247.242188 59.144531 247.707031 60.277344 248.460938 C 61.410156 249.21875 62.316406 250.183594 62.996094 251.363281 C 63.695312 252.554688 64.09375 253.835938 64.191406 255.210938 C 64.289062 256.585938 64.078125 257.914062 63.558594 259.191406 L 48.753906 295.546875 C 48.4375 296.316406 48.1875 297.109375 47.996094 297.921875 C 47.804688 298.730469 47.675781 299.550781 47.613281 300.382812 C 47.550781 301.214844 47.550781 302.042969 47.617188 302.875 C 47.679688 303.707031 47.808594 304.527344 48.003906 305.335938 C 48.195312 306.148438 48.449219 306.9375 48.765625 307.710938 C 49.078125 308.480469 49.453125 309.222656 49.882812 309.9375 C 50.3125 310.648438 50.796875 311.324219 51.332031 311.964844 C 51.867188 312.601562 52.445312 313.195312 53.074219 313.746094 C 54.816406 315.289062 56.617188 316.773438 58.394531 318.167969 C 59.039062 318.6875 59.722656 319.152344 60.445312 319.5625 C 61.164062 319.976562 61.910156 320.328125 62.683594 320.625 C 63.457031 320.921875 64.25 321.15625 65.0625 321.332031 C 65.871094 321.503906 66.691406 321.613281 67.519531 321.660156 C 68.347656 321.707031 69.171875 321.691406 69.996094 321.609375 C 70.824219 321.527344 71.636719 321.382812 72.4375 321.175781 C 73.242188 320.96875 74.023438 320.703125 74.785156 320.375 C 75.546875 320.046875 76.277344 319.660156 76.980469 319.21875 L 110.199219 298.363281 C 110.484375 298.183594 110.78125 298.015625 111.085938 297.867188 C 111.386719 297.722656 111.699219 297.589844 112.019531 297.476562 C 112.339844 297.367188 112.664062 297.273438 112.992188 297.199219 C 113.324219 297.121094 113.65625 297.066406 113.992188 297.03125 C 114.328125 296.992188 114.667969 296.976562 115.003906 296.976562 C 115.34375 296.976562 115.679688 297 116.015625 297.039062 C 116.351562 297.082031 116.683594 297.140625 117.015625 297.21875 C 117.34375 297.296875 117.667969 297.394531 117.984375 297.511719 C 118.304688 297.625 118.613281 297.757812 118.917969 297.910156 C 119.21875 298.0625 119.511719 298.230469 119.796875 298.414062 C 120.078125 298.597656 120.351562 298.800781 120.613281 299.015625 C 120.871094 299.230469 121.121094 299.460938 121.351562 299.707031 C 121.585938 299.949219 121.808594 300.207031 122.011719 300.476562 C 122.214844 300.746094 122.40625 301.027344 122.578125 301.320312 C 122.75 301.609375 122.90625 301.910156 123.042969 302.21875 C 123.179688 302.527344 123.300781 302.84375 123.402344 303.167969 L 135.390625 340.3125 C 135.640625 341.101562 135.953125 341.863281 136.320312 342.601562 C 136.691406 343.34375 137.113281 344.050781 137.59375 344.722656 C 138.070312 345.398438 138.597656 346.03125 139.175781 346.625 C 139.753906 347.21875 140.371094 347.761719 141.03125 348.261719 C 141.691406 348.757812 142.386719 349.199219 143.117188 349.589844 C 143.84375 349.980469 144.601562 350.3125 145.378906 350.585938 C 146.160156 350.859375 146.957031 351.070312 147.769531 351.222656 C 148.582031 351.371094 149.402344 351.460938 150.230469 351.484375 C 151.417969 351.542969 152.667969 351.546875 153.855469 351.546875 C 155.042969 351.546875 156.292969 351.542969 157.375 351.488281 C 158.207031 351.46875 159.03125 351.382812 159.847656 351.238281 C 160.664062 351.089844 161.46875 350.878906 162.253906 350.609375 C 163.039062 350.335938 163.796875 350.007812 164.53125 349.617188 C 165.265625 349.226562 165.964844 348.785156 166.632812 348.285156 C 167.296875 347.789062 167.921875 347.242188 168.5 346.648438 C 169.082031 346.054688 169.613281 345.421875 170.097656 344.746094 C 170.578125 344.066406 171.007812 343.359375 171.378906 342.617188 C 171.753906 341.875 172.066406 341.105469 172.320312 340.316406 L 184.316406 303.164062 C 184.417969 302.839844 184.535156 302.523438 184.675781 302.214844 C 184.8125 301.90625 184.96875 301.605469 185.140625 301.316406 C 185.3125 301.023438 185.5 300.742188 185.707031 300.472656 C 185.910156 300.203125 186.128906 299.949219 186.363281 299.703125 C 186.597656 299.457031 186.847656 299.226562 187.105469 299.011719 C 187.367188 298.796875 187.640625 298.597656 187.921875 298.410156 C 188.207031 298.226562 188.5 298.058594 188.800781 297.90625 C 189.105469 297.757812 189.414062 297.621094 189.734375 297.507812 C 190.050781 297.390625 190.375 297.292969 190.703125 297.214844 C 191.035156 297.136719 191.367188 297.078125 191.703125 297.039062 C 192.039062 297 192.375 296.976562 192.714844 296.976562 C 193.050781 296.972656 193.390625 296.992188 193.726562 297.027344 C 194.0625 297.066406 194.394531 297.121094 194.726562 297.199219 C 195.054688 297.273438 195.378906 297.367188 195.699219 297.480469 C 196.019531 297.59375 196.332031 297.722656 196.632812 297.871094 C 196.9375 298.019531 197.234375 298.183594 197.519531 298.367188 L 230.738281 319.222656 C 231.441406 319.660156 232.171875 320.042969 232.929688 320.371094 C 233.691406 320.699219 234.472656 320.964844 235.273438 321.171875 C 236.074219 321.378906 236.886719 321.519531 237.710938 321.601562 C 238.53125 321.683594 239.355469 321.703125 240.183594 321.65625 C 241.007812 321.609375 241.828125 321.5 242.636719 321.328125 C 243.445312 321.15625 244.234375 320.921875 245.007812 320.628906 C 245.78125 320.332031 246.527344 319.980469 247.246094 319.570312 C 247.964844 319.164062 248.648438 318.699219 249.296875 318.1875 C 251.09375 316.769531 252.894531 315.289062 254.59375 313.78125 C 255.226562 313.230469 255.808594 312.636719 256.347656 311.996094 C 256.886719 311.359375 257.375 310.679688 257.804688 309.964844 C 258.238281 309.25 258.613281 308.503906 258.933594 307.730469 C 259.25 306.957031 259.503906 306.164062 259.699219 305.351562 C 259.894531 304.539062 260.023438 303.714844 260.089844 302.882812 C 260.15625 302.046875 260.15625 301.214844 260.09375 300.378906 C 260.03125 299.546875 259.902344 298.722656 259.710938 297.910156 C 259.519531 297.09375 259.265625 296.300781 258.949219 295.527344 L 244.160156 259.199219 C 243.636719 257.921875 243.421875 256.59375 243.519531 255.214844 C 243.617188 253.839844 244.015625 252.554688 244.714844 251.363281 C 245.398438 250.183594 246.308594 249.214844 247.445312 248.457031 C 248.582031 247.699219 249.824219 247.238281 251.179688 247.0625 L 290.582031 241.632812 C 291.414062 241.511719 292.230469 241.328125 293.03125 241.078125 C 293.832031 240.832031 294.609375 240.523438 295.363281 240.15625 C 296.121094 239.789062 296.839844 239.367188 297.53125 238.886719 C 298.21875 238.410156 298.867188 237.882812 299.472656 237.304688 C 300.082031 236.722656 300.640625 236.101562 301.152344 235.4375 C 301.664062 234.773438 302.121094 234.074219 302.523438 233.335938 C 302.929688 232.601562 303.273438 231.839844 303.558594 231.050781 C 303.84375 230.261719 304.066406 229.457031 304.230469 228.632812 L 304.441406 227.546875 C 304.75 225.953125 305.050781 224.386719 305.304688 222.785156 C 305.449219 221.945312 305.527344 221.105469 305.539062 220.253906 C 305.550781 219.40625 305.496094 218.5625 305.375 217.71875 C 305.253906 216.878906 305.070312 216.054688 304.820312 215.242188 C 304.570312 214.429688 304.261719 213.644531 303.886719 212.878906 C 303.515625 212.117188 303.085938 211.386719 302.597656 210.691406 C 302.113281 209.996094 301.574219 209.34375 300.984375 208.730469 C 300.398438 208.121094 299.765625 207.558594 299.085938 207.042969 C 298.410156 206.53125 297.699219 206.074219 296.949219 205.675781 L 293.683594 203.941406 L 293.683594 129.410156 L 322.589844 117.335938 L 322.589844 152.539062 C 321.21875 152.863281 319.914062 153.363281 318.679688 154.046875 C 317.449219 154.730469 316.328125 155.566406 315.324219 156.554688 C 314.324219 157.546875 313.472656 158.652344 312.773438 159.878906 C 312.074219 161.101562 311.554688 162.398438 311.214844 163.765625 C 310.871094 165.132812 310.722656 166.523438 310.761719 167.929688 C 310.804688 169.339844 311.035156 170.71875 311.457031 172.0625 C 311.875 173.410156 312.46875 174.671875 313.238281 175.855469 C 314.007812 177.035156 314.921875 178.09375 315.980469 179.023438 L 309.757812 206.9375 C 309.699219 207.203125 309.671875 207.46875 309.675781 207.738281 C 309.675781 208.007812 309.707031 208.273438 309.769531 208.535156 C 309.828125 208.796875 309.917969 209.050781 310.035156 209.292969 C 310.15625 209.535156 310.296875 209.761719 310.464844 209.972656 C 310.636719 210.179688 310.824219 210.371094 311.035156 210.539062 C 311.246094 210.707031 311.472656 210.847656 311.714844 210.964844 C 311.960938 211.082031 312.210938 211.167969 312.472656 211.230469 C 312.738281 211.289062 313.003906 211.320312 313.273438 211.320312 L 340.050781 211.320312 C 340.324219 211.320312 340.59375 211.289062 340.859375 211.226562 C 341.128906 211.167969 341.382812 211.074219 341.628906 210.957031 C 341.875 210.835938 342.105469 210.6875 342.316406 210.515625 C 342.527344 210.34375 342.71875 210.148438 342.886719 209.933594 C 343.054688 209.71875 343.199219 209.488281 343.3125 209.238281 C 343.425781 208.988281 343.511719 208.730469 343.570312 208.464844 C 343.625 208.195312 343.652344 207.925781 343.644531 207.652344 C 343.640625 207.378906 343.601562 207.109375 343.535156 206.84375 L 336.515625 178.980469 C 337.570312 178.046875 338.480469 176.984375 339.242188 175.800781 C 340.007812 174.613281 340.59375 173.347656 341.007812 172 C 341.425781 170.652344 341.648438 169.273438 341.683594 167.863281 C 341.71875 166.453125 341.5625 165.0625 341.214844 163.699219 C 340.867188 162.332031 340.339844 161.035156 339.636719 159.816406 C 338.933594 158.59375 338.078125 157.488281 337.070312 156.503906 C 336.0625 155.515625 334.9375 154.683594 333.703125 154.007812 C 332.464844 153.332031 331.160156 152.832031 329.785156 152.515625 L 329.785156 114.332031 L 371.320312 96.984375 C 371.644531 96.847656 371.945312 96.667969 372.21875 96.441406 C 372.492188 96.21875 372.726562 95.957031 372.925781 95.664062 C 373.121094 95.371094 373.273438 95.054688 373.375 94.714844 C 373.480469 94.375 373.53125 94.027344 373.53125 93.675781 C 373.53125 93.320312 373.484375 92.972656 373.382812 92.636719 C 373.28125 92.296875 373.132812 91.976562 372.9375 91.683594 C 372.742188 91.386719 372.507812 91.125 372.238281 90.898438 C 371.964844 90.671875 371.664062 90.488281 371.339844 90.351562 Z M 335.433594 204.125 L 317.761719 204.125 L 322.578125 182.507812 C 325.050781 183.171875 327.515625 183.160156 329.980469 182.472656 Z M 334.492188 167.523438 C 334.492188 168.066406 334.441406 168.601562 334.335938 169.136719 C 334.234375 169.667969 334.078125 170.183594 333.871094 170.6875 C 333.664062 171.1875 333.410156 171.664062 333.109375 172.117188 C 332.8125 172.566406 332.46875 172.984375 332.085938 173.371094 C 331.703125 173.753906 331.289062 174.097656 330.839844 174.402344 C 330.386719 174.703125 329.914062 174.960938 329.414062 175.167969 C 328.910156 175.378906 328.394531 175.539062 327.863281 175.644531 C 327.332031 175.753906 326.796875 175.808594 326.253906 175.808594 C 325.710938 175.8125 325.171875 175.761719 324.640625 175.65625 C 324.109375 175.554688 323.589844 175.398438 323.089844 175.191406 C 322.585938 174.988281 322.109375 174.734375 321.65625 174.4375 C 321.207031 174.136719 320.785156 173.796875 320.402344 173.414062 C 320.015625 173.03125 319.671875 172.617188 319.367188 172.167969 C 319.066406 171.71875 318.808594 171.242188 318.597656 170.742188 C 318.386719 170.242188 318.226562 169.726562 318.121094 169.195312 C 318.011719 168.664062 317.957031 168.128906 317.953125 167.585938 C 317.949219 167.042969 318 166.503906 318.101562 165.972656 C 318.203125 165.441406 318.359375 164.921875 318.5625 164.421875 C 318.765625 163.917969 319.019531 163.441406 319.316406 162.988281 C 319.617188 162.535156 319.957031 162.113281 320.335938 161.730469 C 320.71875 161.34375 321.132812 160.996094 321.582031 160.695312 C 322.03125 160.390625 322.503906 160.132812 323.003906 159.921875 C 323.503906 159.710938 324.019531 159.550781 324.550781 159.441406 C 325.082031 159.328125 325.617188 159.273438 326.160156 159.269531 L 326.1875 159.273438 L 326.25 159.261719 C 326.789062 159.265625 327.324219 159.320312 327.855469 159.425781 C 328.386719 159.535156 328.902344 159.691406 329.402344 159.898438 C 329.902344 160.109375 330.375 160.363281 330.828125 160.664062 C 331.277344 160.964844 331.691406 161.308594 332.074219 161.691406 C 332.457031 162.074219 332.796875 162.492188 333.097656 162.941406 C 333.398438 163.394531 333.652344 163.867188 333.863281 164.367188 C 334.070312 164.867188 334.226562 165.382812 334.332031 165.914062 C 334.4375 166.445312 334.492188 166.980469 334.492188 167.523438 Z M 298.199219 221.644531 C 297.960938 223.171875 297.667969 224.660156 297.378906 226.175781 L 297.167969 227.242188 C 296.988281 228.164062 296.675781 229.039062 296.226562 229.863281 C 295.777344 230.691406 295.214844 231.429688 294.535156 232.078125 C 293.855469 232.730469 293.097656 233.261719 292.253906 233.675781 C 291.410156 234.089844 290.523438 234.367188 289.59375 234.507812 L 250.21875 239.933594 C 249.613281 240.015625 249.011719 240.132812 248.421875 240.28125 C 247.828125 240.433594 247.246094 240.617188 246.675781 240.832031 C 246.105469 241.046875 245.550781 241.296875 245.007812 241.578125 C 244.464844 241.855469 243.9375 242.164062 243.429688 242.503906 C 242.921875 242.84375 242.4375 243.210938 241.972656 243.609375 C 241.507812 244.003906 241.066406 244.421875 240.648438 244.867188 C 240.230469 245.316406 239.839844 245.78125 239.476562 246.273438 C 239.109375 246.761719 238.777344 247.273438 238.46875 247.800781 C 238.164062 248.328125 237.886719 248.871094 237.644531 249.433594 C 237.402344 249.992188 237.1875 250.5625 237.011719 251.148438 C 236.832031 251.730469 236.6875 252.324219 236.574219 252.925781 C 236.464844 253.523438 236.386719 254.128906 236.34375 254.738281 C 236.304688 255.347656 236.296875 255.957031 236.324219 256.566406 C 236.351562 257.175781 236.410156 257.785156 236.507812 258.386719 C 236.605469 258.988281 236.734375 259.585938 236.898438 260.171875 C 237.0625 260.761719 237.261719 261.339844 237.492188 261.902344 L 252.28125 298.214844 C 252.636719 299.082031 252.847656 299.980469 252.921875 300.914062 C 252.992188 301.847656 252.917969 302.769531 252.699219 303.679688 C 252.484375 304.589844 252.132812 305.445312 251.648438 306.242188 C 251.160156 307.042969 250.566406 307.75 249.859375 308.363281 C 248.226562 309.8125 246.527344 311.203125 244.820312 312.554688 C 244.097656 313.125 243.308594 313.578125 242.449219 313.902344 C 241.585938 314.230469 240.699219 314.421875 239.777344 314.472656 C 238.859375 314.523438 237.953125 314.433594 237.0625 314.203125 C 236.171875 313.976562 235.335938 313.617188 234.554688 313.125 L 201.347656 292.277344 C 200.832031 291.949219 200.296875 291.652344 199.746094 291.386719 C 199.195312 291.121094 198.632812 290.886719 198.054688 290.683594 C 197.476562 290.480469 196.890625 290.3125 196.292969 290.175781 C 195.699219 290.042969 195.097656 289.941406 194.488281 289.875 C 193.878906 289.808594 193.269531 289.777344 192.65625 289.78125 C 192.046875 289.785156 191.4375 289.824219 190.828125 289.894531 C 190.222656 289.96875 189.621094 290.078125 189.027344 290.21875 C 188.429688 290.359375 187.847656 290.535156 187.269531 290.746094 C 186.695312 290.953125 186.136719 291.195312 185.585938 291.46875 C 185.039062 291.742188 184.511719 292.046875 183.996094 292.378906 C 183.484375 292.714844 182.992188 293.074219 182.523438 293.464844 C 182.050781 293.855469 181.601562 294.269531 181.179688 294.710938 C 180.757812 295.152344 180.359375 295.617188 179.988281 296.105469 C 179.617188 296.589844 179.277344 297.097656 178.964844 297.621094 C 178.652344 298.148438 178.367188 298.691406 178.117188 299.25 C 177.867188 299.804688 177.648438 300.375 177.464844 300.960938 L 165.476562 338.113281 C 165.1875 339 164.773438 339.824219 164.226562 340.578125 C 163.679688 341.335938 163.03125 341.992188 162.28125 342.546875 C 161.53125 343.101562 160.710938 343.527344 159.828125 343.828125 C 158.945312 344.125 158.035156 344.28125 157.101562 344.296875 C 156.035156 344.355469 154.921875 344.335938 153.855469 344.351562 C 152.90625 344.34375 151.675781 344.355469 150.503906 344.292969 C 149.578125 344.269531 148.679688 344.109375 147.804688 343.804688 C 146.929688 343.503906 146.121094 343.074219 145.382812 342.519531 C 144.640625 341.964844 144 341.3125 143.464844 340.558594 C 142.925781 339.808594 142.515625 338.988281 142.234375 338.109375 L 130.253906 300.964844 C 130.066406 300.378906 129.851562 299.808594 129.601562 299.253906 C 129.347656 298.695312 129.066406 298.152344 128.753906 297.625 C 128.441406 297.101562 128.101562 296.59375 127.730469 296.109375 C 127.359375 295.621094 126.960938 295.15625 126.539062 294.714844 C 126.113281 294.273438 125.667969 293.859375 125.195312 293.46875 C 124.726562 293.078125 124.234375 292.714844 123.722656 292.382812 C 123.207031 292.046875 122.679688 291.746094 122.132812 291.472656 C 121.582031 291.199219 121.023438 290.957031 120.449219 290.746094 C 119.871094 290.539062 119.289062 290.363281 118.691406 290.222656 C 118.097656 290.078125 117.496094 289.972656 116.890625 289.898438 C 116.28125 289.824219 115.671875 289.785156 115.0625 289.78125 C 114.449219 289.777344 113.839844 289.808594 113.230469 289.875 C 112.625 289.941406 112.019531 290.042969 111.425781 290.175781 C 110.828125 290.3125 110.242188 290.480469 109.664062 290.679688 C 109.085938 290.882812 108.523438 291.117188 107.972656 291.382812 C 107.421875 291.652344 106.886719 291.949219 106.371094 292.273438 L 73.164062 313.121094 C 72.378906 313.613281 71.539062 313.972656 70.644531 314.203125 C 69.75 314.433594 68.839844 314.523438 67.917969 314.46875 C 66.996094 314.417969 66.101562 314.226562 65.238281 313.894531 C 64.375 313.5625 63.585938 313.109375 62.863281 312.53125 C 61.167969 311.203125 59.484375 309.808594 57.808594 308.328125 C 57.109375 307.714844 56.519531 307.011719 56.042969 306.214844 C 55.5625 305.417969 55.214844 304.570312 55 303.664062 C 54.785156 302.761719 54.714844 301.84375 54.789062 300.917969 C 54.859375 299.992188 55.070312 299.097656 55.421875 298.238281 L 70.226562 261.898438 C 70.457031 261.332031 70.652344 260.753906 70.816406 260.167969 C 70.980469 259.578125 71.109375 258.984375 71.207031 258.382812 C 71.300781 257.78125 71.363281 257.175781 71.390625 256.566406 C 71.417969 255.957031 71.410156 255.347656 71.367188 254.738281 C 71.324219 254.128906 71.25 253.523438 71.136719 252.925781 C 71.027344 252.324219 70.882812 251.734375 70.703125 251.152344 C 70.523438 250.566406 70.3125 249.996094 70.070312 249.4375 C 69.824219 248.878906 69.550781 248.335938 69.246094 247.804688 C 68.941406 247.277344 68.605469 246.769531 68.242188 246.28125 C 67.878906 245.789062 67.488281 245.324219 67.070312 244.878906 C 66.652344 244.433594 66.214844 244.011719 65.75 243.617188 C 65.285156 243.222656 64.796875 242.855469 64.292969 242.515625 C 63.785156 242.175781 63.261719 241.863281 62.71875 241.585938 C 62.175781 241.304688 61.621094 241.054688 61.050781 240.839844 C 60.480469 240.621094 59.898438 240.4375 59.308594 240.289062 C 58.71875 240.136719 58.121094 240.019531 57.515625 239.9375 L 18.125 234.507812 C 17.167969 234.355469 16.253906 234.058594 15.390625 233.617188 C 14.527344 233.179688 13.75 232.617188 13.0625 231.929688 C 12.375 231.246094 11.8125 230.472656 11.371094 229.609375 C 10.925781 228.746094 10.628906 227.832031 10.472656 226.875 C 10.128906 225.121094 9.792969 223.410156 9.503906 221.636719 C 9.328125 220.695312 9.304688 219.75 9.429688 218.800781 C 9.554688 217.847656 9.828125 216.941406 10.242188 216.078125 C 10.660156 215.214844 11.199219 214.4375 11.863281 213.746094 C 12.527344 213.054688 13.28125 212.484375 14.125 212.03125 L 49.34375 193.425781 C 49.882812 193.140625 50.402344 192.824219 50.90625 192.480469 C 51.410156 192.132812 51.894531 191.761719 52.355469 191.359375 C 52.816406 190.960938 53.25 190.535156 53.664062 190.085938 C 54.074219 189.632812 54.460938 189.160156 54.820312 188.667969 C 55.179688 188.171875 55.507812 187.660156 55.808594 187.128906 C 56.109375 186.597656 56.375 186.050781 56.613281 185.488281 C 56.851562 184.925781 57.058594 184.351562 57.230469 183.765625 C 57.402344 183.179688 57.539062 182.585938 57.644531 181.984375 C 57.75 181.382812 57.820312 180.777344 57.855469 180.167969 C 57.890625 179.558594 57.890625 178.949219 57.859375 178.339844 C 57.824219 177.730469 57.753906 177.125 57.652344 176.523438 C 57.550781 175.921875 57.414062 175.328125 57.242188 174.742188 C 57.070312 174.15625 56.867188 173.578125 56.632812 173.015625 C 56.394531 172.453125 56.128906 171.90625 55.828125 171.375 C 55.53125 170.839844 55.203125 170.328125 54.84375 169.832031 C 54.488281 169.335938 54.105469 168.863281 53.691406 168.414062 L 26.621094 138.527344 C 25.988281 137.820312 25.484375 137.035156 25.097656 136.167969 C 24.714844 135.300781 24.472656 134.398438 24.371094 133.453125 C 24.265625 132.511719 24.3125 131.578125 24.5 130.648438 C 24.691406 129.722656 25.015625 128.84375 25.480469 128.015625 C 26.324219 126.445312 27.230469 124.941406 28.164062 123.386719 C 28.644531 122.570312 29.234375 121.847656 29.9375 121.21875 C 30.640625 120.585938 31.425781 120.078125 32.289062 119.695312 C 33.152344 119.308594 34.054688 119.066406 34.992188 118.964844 C 35.933594 118.859375 36.867188 118.902344 37.792969 119.09375 L 77.371094 127.589844 C 78.347656 127.792969 79.332031 127.910156 80.328125 127.933594 C 81.328125 127.953125 82.316406 127.886719 83.300781 127.722656 C 84.285156 127.5625 85.246094 127.3125 86.183594 126.972656 C 87.121094 126.632812 88.019531 126.210938 88.875 125.703125 C 89.734375 125.195312 90.539062 124.613281 91.289062 123.957031 C 92.039062 123.300781 92.722656 122.582031 93.339844 121.796875 C 93.957031 121.015625 94.496094 120.183594 94.957031 119.296875 C 95.421875 118.414062 95.796875 117.496094 96.085938 116.542969 L 126.84375 129.390625 L 126.84375 143.660156 C 125.742188 144.167969 124.65625 144.710938 123.585938 145.28125 C 122.515625 145.851562 121.460938 146.453125 120.421875 147.082031 C 119.386719 147.714844 118.367188 148.375 117.367188 149.0625 C 116.367188 149.75 115.386719 150.464844 114.429688 151.210938 C 113.46875 151.953125 112.53125 152.726562 111.617188 153.523438 C 110.703125 154.320312 109.808594 155.144531 108.941406 155.992188 C 108.070312 156.839844 107.226562 157.710938 106.410156 158.605469 C 105.589844 159.5 104.796875 160.421875 104.027344 161.359375 C 103.261719 162.300781 102.523438 163.261719 101.808594 164.246094 C 101.097656 165.230469 100.414062 166.230469 99.757812 167.253906 C 99.101562 168.273438 98.472656 169.3125 97.878906 170.371094 C 97.28125 171.425781 96.714844 172.5 96.179688 173.589844 C 95.640625 174.679688 95.136719 175.78125 94.664062 176.898438 C 94.191406 178.019531 93.75 179.148438 93.339844 180.292969 C 92.929688 181.433594 92.554688 182.585938 92.210938 183.75 C 91.867188 184.914062 91.554688 186.089844 91.277344 187.269531 C 91 188.453125 90.757812 189.640625 90.546875 190.835938 C 90.335938 192.03125 90.160156 193.234375 90.019531 194.4375 C 89.878906 195.644531 89.769531 196.851562 89.699219 198.066406 C 89.625 199.277344 89.585938 200.488281 89.582031 201.703125 C 89.578125 202.917969 89.605469 204.128906 89.671875 205.34375 C 89.734375 206.554688 89.832031 207.765625 89.964844 208.972656 C 90.101562 210.175781 90.265625 211.378906 90.46875 212.578125 C 90.667969 213.773438 90.902344 214.964844 91.171875 216.148438 C 91.441406 217.332031 91.742188 218.507812 92.078125 219.671875 C 92.414062 220.839844 92.78125 221.996094 93.183594 223.140625 C 93.585938 224.289062 94.015625 225.421875 94.484375 226.542969 C 94.949219 227.664062 95.445312 228.773438 95.972656 229.863281 C 96.5 230.957031 97.058594 232.035156 97.648438 233.097656 C 98.238281 234.15625 98.855469 235.203125 99.503906 236.226562 C 100.152344 237.253906 100.828125 238.261719 101.535156 239.25 C 102.242188 240.238281 102.972656 241.203125 103.734375 242.148438 C 104.496094 243.097656 105.28125 244.019531 106.09375 244.921875 C 106.90625 245.824219 107.742188 246.703125 108.605469 247.554688 C 109.46875 248.410156 110.355469 249.238281 111.265625 250.042969 C 112.175781 250.847656 113.105469 251.625 114.058594 252.375 C 115.011719 253.128906 115.988281 253.851562 116.980469 254.546875 C 117.976562 255.242188 118.992188 255.910156 120.023438 256.546875 C 121.054688 257.1875 122.105469 257.792969 123.171875 258.375 C 124.238281 258.953125 125.324219 259.5 126.421875 260.015625 C 127.519531 260.535156 128.628906 261.019531 129.757812 261.476562 C 130.882812 261.929688 132.019531 262.351562 133.167969 262.742188 C 134.320312 263.128906 135.480469 263.488281 136.648438 263.8125 C 137.820312 264.136719 138.996094 264.425781 140.183594 264.683594 C 141.371094 264.941406 142.5625 265.164062 143.761719 265.351562 C 144.960938 265.542969 146.164062 265.699219 147.371094 265.820312 C 148.578125 265.941406 149.789062 266.027344 151.003906 266.078125 C 152.214844 266.132812 153.429688 266.152344 154.644531 266.132812 C 155.855469 266.117188 157.070312 266.066406 158.28125 265.980469 C 159.492188 265.898438 160.699219 265.777344 161.902344 265.625 C 163.105469 265.472656 164.304688 265.285156 165.5 265.0625 C 166.691406 264.839844 167.878906 264.585938 169.058594 264.296875 C 170.238281 264.007812 171.40625 263.683594 172.566406 263.332031 C 173.730469 262.976562 174.878906 262.585938 176.015625 262.167969 C 177.15625 261.746094 178.28125 261.292969 179.394531 260.808594 C 180.507812 260.324219 181.605469 259.808594 182.691406 259.261719 C 183.773438 258.714844 184.84375 258.140625 185.894531 257.53125 C 186.945312 256.925781 187.976562 256.289062 188.992188 255.625 C 190.007812 254.957031 191.003906 254.261719 191.980469 253.542969 C 192.953125 252.820312 193.910156 252.070312 194.84375 251.292969 C 195.777344 250.515625 196.6875 249.714844 197.574219 248.886719 C 198.460938 248.058594 199.324219 247.207031 200.164062 246.328125 C 201.003906 245.453125 201.816406 244.550781 202.605469 243.628906 C 203.394531 242.707031 204.15625 241.761719 204.890625 240.796875 C 206.914062 240.871094 208.773438 240.917969 210.292969 240.917969 C 217.503906 240.90625 224.679688 240.378906 231.816406 239.34375 C 238.953125 238.304688 245.984375 236.765625 252.898438 234.726562 C 259.816406 232.683594 266.554688 230.164062 273.113281 227.160156 C 279.671875 224.15625 285.980469 220.703125 292.046875 216.796875 L 293.683594 215.730469 L 293.683594 212.085938 C 294.515625 212.542969 295.257812 213.117188 295.90625 213.808594 C 296.558594 214.5 297.085938 215.273438 297.492188 216.132812 C 297.898438 216.992188 298.160156 217.890625 298.28125 218.832031 C 298.402344 219.773438 298.375 220.710938 298.199219 221.644531 Z M 138.496094 222.695312 C 139.597656 223.292969 140.683594 223.792969 141.777344 224.351562 C 143.992188 225.476562 146.199219 226.585938 148.386719 227.570312 C 149.664062 228.144531 150.917969 228.648438 152.183594 229.175781 C 154.167969 230 156.140625 230.804688 158.089844 231.523438 C 159.386719 232 160.660156 232.4375 161.941406 232.871094 C 163.828125 233.507812 165.6875 234.101562 167.527344 234.644531 C 168.777344 235.015625 170.007812 235.371094 171.234375 235.699219 C 173.070312 236.1875 174.863281 236.625 176.640625 237.03125 C 177.78125 237.292969 178.917969 237.5625 180.035156 237.792969 C 181.898438 238.171875 183.691406 238.488281 185.480469 238.789062 C 186.410156 238.945312 187.363281 239.125 188.273438 239.261719 C 190.441406 239.582031 192.515625 239.832031 194.539062 240.046875 C 194.980469 240.09375 195.453125 240.164062 195.886719 240.207031 L 196.121094 240.234375 C 195.421875 241 194.707031 241.746094 193.96875 242.476562 C 193.234375 243.203125 192.476562 243.910156 191.703125 244.597656 C 190.925781 245.28125 190.132812 245.949219 189.320312 246.589844 C 188.507812 247.234375 187.679688 247.855469 186.835938 248.453125 C 185.988281 249.050781 185.128906 249.625 184.25 250.179688 C 183.375 250.730469 182.484375 251.257812 181.578125 251.757812 C 180.671875 252.261719 179.753906 252.738281 178.824219 253.191406 C 177.890625 253.644531 176.949219 254.074219 175.992188 254.472656 C 175.039062 254.875 174.074219 255.25 173.097656 255.601562 C 172.125 255.949219 171.140625 256.273438 170.148438 256.566406 C 169.15625 256.863281 168.15625 257.132812 167.148438 257.371094 C 166.140625 257.613281 165.125 257.828125 164.109375 258.011719 C 163.089844 258.199219 162.066406 258.355469 161.039062 258.488281 C 160.011719 258.617188 158.980469 258.71875 157.949219 258.792969 C 156.914062 258.867188 155.878906 258.914062 154.84375 258.929688 C 153.808594 258.949219 152.773438 258.9375 151.738281 258.902344 C 150.703125 258.863281 149.671875 258.796875 148.640625 258.699219 C 147.609375 258.605469 146.578125 258.484375 145.554688 258.332031 C 144.53125 258.183594 143.511719 258.003906 142.496094 257.796875 C 141.480469 257.59375 140.472656 257.359375 139.46875 257.097656 C 138.46875 256.835938 137.472656 256.546875 136.488281 256.234375 C 135.5 255.917969 134.523438 255.578125 133.554688 255.207031 C 132.585938 254.839844 131.628906 254.445312 130.683594 254.023438 C 129.734375 253.605469 128.800781 253.160156 127.878906 252.6875 C 126.957031 252.214844 126.046875 251.71875 125.152344 251.199219 C 124.257812 250.679688 123.378906 250.132812 122.511719 249.566406 C 121.644531 248.996094 120.796875 248.40625 119.964844 247.789062 C 119.128906 247.175781 118.3125 246.539062 117.515625 245.878906 C 116.714844 245.21875 115.9375 244.539062 115.175781 243.835938 C 114.414062 243.136719 113.671875 242.414062 112.949219 241.671875 C 112.226562 240.929688 111.523438 240.167969 110.84375 239.386719 C 110.160156 238.605469 109.503906 237.808594 108.863281 236.992188 C 108.226562 236.175781 107.613281 235.34375 107.019531 234.492188 C 106.429688 233.644531 105.859375 232.777344 105.3125 231.898438 C 104.769531 231.019531 104.25 230.121094 103.75 229.214844 C 103.253906 228.304688 102.785156 227.382812 102.335938 226.449219 C 101.890625 225.515625 101.472656 224.566406 101.074219 223.609375 C 100.679688 222.652344 100.3125 221.683594 99.96875 220.707031 C 99.628906 219.730469 99.3125 218.742188 99.023438 217.75 C 98.734375 216.753906 98.476562 215.753906 98.242188 214.742188 C 98.007812 213.734375 97.800781 212.71875 97.621094 211.699219 C 97.441406 210.679688 97.292969 209.65625 97.167969 208.628906 C 97.046875 207.597656 96.953125 206.566406 96.882812 205.535156 C 96.816406 204.5 96.777344 203.464844 96.769531 202.429688 C 96.757812 201.394531 96.773438 200.359375 96.820312 199.324219 C 96.867188 198.289062 96.941406 197.257812 97.042969 196.226562 C 97.144531 195.195312 97.273438 194.167969 97.433594 193.144531 C 97.589844 192.121094 97.777344 191.105469 97.988281 190.089844 C 98.203125 189.078125 98.441406 188.070312 98.710938 187.070312 C 98.980469 186.070312 99.273438 185.078125 99.597656 184.09375 C 99.917969 183.109375 100.265625 182.132812 100.640625 181.167969 C 101.015625 180.203125 101.417969 179.246094 101.84375 178.304688 C 102.273438 177.359375 102.726562 176.429688 103.203125 175.511719 C 103.679688 174.589844 104.183594 173.6875 104.710938 172.792969 C 105.238281 171.902344 105.789062 171.027344 106.363281 170.164062 C 106.9375 169.304688 107.535156 168.457031 108.15625 167.628906 C 108.777344 166.800781 109.417969 165.988281 110.085938 165.195312 C 110.75 164.398438 111.433594 163.625 112.140625 162.867188 C 112.851562 162.109375 113.578125 161.375 114.324219 160.65625 C 115.070312 159.941406 115.835938 159.242188 116.621094 158.566406 C 117.40625 157.890625 118.210938 157.238281 119.03125 156.605469 C 119.851562 155.976562 120.6875 155.367188 121.542969 154.78125 C 122.398438 154.195312 123.265625 153.632812 124.152344 153.09375 C 125.035156 152.554688 125.933594 152.039062 126.847656 151.546875 L 126.847656 215.742188 L 128.496094 216.808594 C 131.839844 218.960938 135.175781 220.898438 138.496094 222.695312 Z M 286.488281 200.125 L 286.488281 211.816406 C 280.800781 215.367188 274.894531 218.503906 268.773438 221.234375 C 262.648438 223.960938 256.367188 226.25 249.921875 228.101562 C 243.480469 229.957031 236.941406 231.351562 230.304688 232.292969 C 223.667969 233.234375 216.996094 233.710938 210.292969 233.722656 C 208.402344 233.722656 206.082031 233.660156 203.40625 233.539062 C 197.28125 233.242188 191.199219 232.558594 185.164062 231.484375 C 179.125 230.410156 173.179688 228.957031 167.328125 227.121094 C 161.476562 225.289062 155.765625 223.089844 150.195312 220.527344 C 144.625 217.964844 139.238281 215.054688 134.039062 211.804688 L 134.039062 132.394531 L 167.640625 146.429688 C 167.761719 146.480469 167.882812 146.523438 168.007812 146.554688 L 208.902344 163.664062 C 209.824219 164.046875 210.75 164.046875 211.675781 163.664062 L 286.488281 132.417969 Z M 325.480469 108.335938 L 242.214844 108.335938 C 241.738281 108.335938 241.277344 108.425781 240.835938 108.609375 C 240.394531 108.792969 240.007812 109.050781 239.667969 109.390625 C 239.332031 109.726562 239.074219 110.117188 238.890625 110.558594 C 238.707031 110.996094 238.617188 111.457031 238.617188 111.933594 C 238.617188 112.410156 238.707031 112.871094 238.890625 113.308594 C 239.074219 113.75 239.332031 114.140625 239.667969 114.476562 C 240.007812 114.816406 240.394531 115.074219 240.835938 115.257812 C 241.277344 115.441406 241.738281 115.53125 242.214844 115.53125 L 308.25 115.53125 L 288.761719 123.671875 L 288.621094 123.730469 L 210.292969 156.441406 L 186.5 146.492188 C 181.457031 143.527344 176.105469 141.289062 170.453125 139.78125 C 170.339844 139.734375 170.226562 139.695312 170.109375 139.664062 L 169.722656 139.503906 L 89.351562 105.898438 L 89.351562 105.929688 L 59.988281 93.660156 L 211.445312 30.464844 L 360.660156 93.644531 Z M 325.480469 108.335938 " fill-opacity="1" fill-rule="nonzero"/></g><path fill="#ffffff" d="M 153.554688 154.945312 C 153.074219 154.945312 152.617188 155.035156 152.175781 155.21875 C 151.734375 155.402344 151.347656 155.660156 151.007812 156 C 150.671875 156.335938 150.410156 156.726562 150.230469 157.167969 C 150.046875 157.609375 149.957031 158.066406 149.957031 158.542969 L 149.957031 207.722656 C 149.957031 208.199219 150.046875 208.660156 150.230469 209.097656 C 150.414062 209.539062 150.671875 209.929688 151.007812 210.265625 C 151.347656 210.605469 151.734375 210.863281 152.175781 211.046875 C 152.617188 211.230469 153.078125 211.320312 153.554688 211.320312 C 154.03125 211.320312 154.488281 211.230469 154.929688 211.046875 C 155.371094 210.863281 155.761719 210.605469 156.097656 210.265625 C 156.433594 209.929688 156.695312 209.539062 156.878906 209.097656 C 157.058594 208.660156 157.152344 208.199219 157.152344 207.722656 L 157.152344 158.542969 C 157.152344 158.066406 157.058594 157.609375 156.878906 157.167969 C 156.695312 156.726562 156.433594 156.335938 156.097656 156 C 155.761719 155.660156 155.371094 155.402344 154.929688 155.21875 C 154.488281 155.035156 154.03125 154.945312 153.554688 154.945312 Z M 153.554688 154.945312 " fill-opacity="1" fill-rule="nonzero"/><path fill="#ffffff" d="M 180.800781 54.734375 L 96.132812 90.371094 C 95.75 90.535156 95.40625 90.753906 95.101562 91.035156 C 94.792969 91.316406 94.542969 91.640625 94.351562 92.007812 C 94.15625 92.375 94.027344 92.761719 93.96875 93.175781 C 93.910156 93.585938 93.921875 93.996094 94.003906 94.402344 C 94.085938 94.808594 94.234375 95.191406 94.449219 95.546875 C 94.664062 95.902344 94.933594 96.210938 95.253906 96.472656 C 95.574219 96.738281 95.929688 96.9375 96.320312 97.078125 C 96.714844 97.21875 97.117188 97.285156 97.53125 97.285156 C 98.015625 97.285156 98.480469 97.191406 98.929688 97.003906 L 183.597656 61.367188 C 184.039062 61.183594 184.425781 60.917969 184.761719 60.578125 C 185.097656 60.238281 185.351562 59.847656 185.53125 59.40625 C 185.710938 58.964844 185.800781 58.503906 185.796875 58.027344 C 185.792969 57.550781 185.699219 57.09375 185.515625 56.652344 C 185.328125 56.214844 185.066406 55.824219 184.726562 55.492188 C 184.386719 55.15625 183.996094 54.898438 183.554688 54.71875 C 183.113281 54.539062 182.65625 54.449219 182.175781 54.453125 C 181.699219 54.457031 181.242188 54.550781 180.800781 54.734375 Z M 180.800781 54.734375 " fill-opacity="1" fill-rule="nonzero"/></svg>