<svg xmlns="http://www.w3.org/2000/svg" xmlns:xlink="http://www.w3.org/1999/xlink" width="500" zoomAndPan="magnify" viewBox="0 0 375 374.999991" height="500" preserveAspectRatio="xMidYMid meet" version="1.0"><defs><clipPath id="ec8a516dd1"><path d="M 0 84.203125 L 375 84.203125 L 375 104 L 0 104 Z M 0 84.203125 " clip-rule="nonzero"/></clipPath><clipPath id="c912ee6c45"><path d="M 0 271 L 375 271 L 375 290.453125 L 0 290.453125 Z M 0 271 " clip-rule="nonzero"/></clipPath></defs><g clip-path="url(#ec8a516dd1)"><path fill="#fff" d="M 366.84375 103.125 L 8.15625 103.125 C 3.65625 103.125 0 98.25 0 93.75 C 0 89.25 3.65625 84.375 8.15625 84.375 L 366.84375 84.375 C 371.34375 84.375 375 89.25 375 93.75 C 375 98.25 371.34375 103.125 366.84375 103.125 Z M 366.84375 103.125 " fill-opacity="1" fill-rule="nonzero"/></g><path fill="#fff" d="M 366.84375 196.875 L 8.15625 196.875 C 3.65625 196.875 0 192 0 187.5 C 0 183 3.65625 178.125 8.15625 178.125 L 366.84375 178.125 C 371.34375 178.125 375 183 375 187.5 C 375 192 371.34375 196.875 366.84375 196.875 Z M 366.84375 196.875 " fill-opacity="1" fill-rule="nonzero"/><g clip-path="url(#c912ee6c45)"><path fill="#fff" d="M 366.84375 290.625 L 8.15625 290.625 C 3.65625 290.625 0 285.75 0 281.25 C 0 276.75 3.65625 271.875 8.15625 271.875 L 366.84375 271.875 C 371.34375 271.875 375 276.75 375 281.25 C 375 285.75 371.34375 290.625 366.84375 290.625 Z M 366.84375 290.625 " fill-opacity="1" fill-rule="nonzero"/></g></svg>