<svg xmlns="http://www.w3.org/2000/svg" xmlns:xlink="http://www.w3.org/1999/xlink" width="500" zoomAndPan="magnify" viewBox="0 0 375 374.999991" height="500" preserveAspectRatio="xMidYMid meet" version="1.0"><path fill="#f5f5f5" d="M 187.496094 242.777344 C 139.324219 242.777344 100.132812 203.585938 100.132812 155.410156 C 100.132812 107.238281 139.324219 68.046875 187.496094 68.046875 C 235.667969 68.046875 274.863281 107.238281 274.863281 155.410156 C 274.863281 203.585938 235.667969 242.777344 187.496094 242.777344 Z M 187.496094 80.078125 C 145.957031 80.078125 112.164062 113.871094 112.164062 155.410156 C 112.164062 196.949219 145.957031 230.746094 187.496094 230.746094 C 229.035156 230.746094 262.828125 196.949219 262.828125 155.410156 C 262.828125 113.871094 229.035156 80.078125 187.496094 80.078125 Z M 320.078125 54.917969 C 284.664062 19.503906 237.578125 0 187.496094 0 C 137.414062 0 90.328125 19.503906 54.917969 54.917969 C 19.503906 90.328125 0 137.414062 0 187.496094 C 0 237.578125 19.503906 284.664062 54.917969 320.078125 C 90.328125 355.492188 137.414062 374.992188 187.496094 374.992188 C 237.578125 374.992188 284.664062 355.492188 320.078125 320.078125 C 355.492188 284.664062 374.992188 237.578125 374.992188 187.496094 C 374.992188 137.414062 355.492188 90.328125 320.078125 54.917969 Z M 63.425781 63.425781 C 96.566406 30.285156 140.628906 12.03125 187.496094 12.03125 C 234.363281 12.03125 278.429688 30.285156 311.570312 63.425781 C 344.710938 96.566406 362.960938 140.628906 362.960938 187.496094 C 362.960938 226.457031 350.335938 263.476562 327.042969 293.894531 C 308.503906 267.976562 278.902344 252.660156 246.753906 252.660156 L 128.238281 252.660156 C 96.089844 252.660156 66.488281 267.976562 47.949219 293.894531 C 24.65625 263.472656 12.03125 226.457031 12.03125 187.496094 C 12.03125 140.628906 30.285156 96.566406 63.425781 63.425781 Z M 187.496094 362.960938 C 140.628906 362.960938 96.566406 344.710938 63.425781 311.570312 C 60.824219 308.96875 58.324219 306.289062 55.90625 303.558594 C 72.027344 279.191406 98.925781 264.691406 128.238281 264.691406 L 246.753906 264.691406 C 276.066406 264.691406 302.964844 279.191406 319.085938 303.558594 C 316.671875 306.289062 314.171875 308.96875 311.570312 311.570312 C 278.429688 344.710938 234.363281 362.960938 187.496094 362.960938 Z M 187.496094 362.960938 " fill-opacity="1" fill-rule="nonzero"/></svg>