<svg xmlns="http://www.w3.org/2000/svg" xmlns:xlink="http://www.w3.org/1999/xlink" width="500" zoomAndPan="magnify" viewBox="0 0 375 374.999991" height="500" preserveAspectRatio="xMidYMid meet" version="1.0"><defs><clipPath id="b10b03d951"><path d="M 7 8 L 368 8 L 368 367.921875 L 7 367.921875 Z M 7 8 " clip-rule="nonzero"/></clipPath></defs><g clip-path="url(#b10b03d951)"><path fill="#ffffff" d="M 24.128906 367.816406 C 19.992188 367.816406 15.855469 366.238281 12.703125 363.082031 C 6.390625 356.769531 6.390625 346.542969 12.703125 340.230469 L 339.46875 13.472656 C 345.773438 7.160156 356.003906 7.160156 362.316406 13.472656 C 368.625 19.777344 368.625 30.007812 362.316406 36.320312 L 35.550781 363.082031 C 32.398438 366.238281 28.261719 367.816406 24.128906 367.816406 " fill-opacity="1" fill-rule="nonzero"/><path fill="#ffffff" d="M 350.894531 367.816406 C 346.757812 367.816406 342.625 366.238281 339.46875 363.082031 L 12.703125 36.320312 C 6.394531 30.007812 6.394531 19.777344 12.703125 13.472656 C 19.011719 7.160156 29.246094 7.160156 35.554688 13.472656 L 362.320312 340.230469 C 368.628906 346.542969 368.628906 356.769531 362.320312 363.082031 C 359.164062 366.238281 355.03125 367.816406 350.894531 367.816406 " fill-opacity="1" fill-rule="nonzero"/></g></svg>