<svg xmlns="http://www.w3.org/2000/svg" xmlns:xlink="http://www.w3.org/1999/xlink" width="500" zoomAndPan="magnify" viewBox="0 0 375 374.999991" height="500" preserveAspectRatio="xMidYMid meet" version="1.0"><defs><clipPath id="5708a2a7df"><path d="M 4.113281 4.113281 L 370.863281 4.113281 L 370.863281 370.863281 L 4.113281 370.863281 Z M 4.113281 4.113281 " clip-rule="nonzero"/></clipPath></defs><g clip-path="url(#5708a2a7df)"><path fill="#cecece" d="M 361.089844 59.628906 C 367.53125 53.367188 370.710938 45.746094 370.632812 36.769531 C 370.710938 27.792969 367.53125 20.089844 361.089844 13.65625 C 354.824219 7.382812 347.203125 4.203125 338.226562 4.113281 C 329.25 4.203125 321.546875 7.382812 315.117188 13.65625 L 187.5 141.527344 L 59.628906 13.65625 C 53.367188 7.382812 45.746094 4.203125 36.769531 4.113281 C 27.792969 4.203125 20.089844 7.382812 13.65625 13.65625 C 7.382812 20.089844 4.203125 27.792969 4.113281 36.769531 C 4.203125 45.746094 7.382812 53.367188 13.65625 59.628906 L 141.527344 187.5 L 13.65625 315.117188 C 7.382812 321.546875 4.203125 329.25 4.113281 338.226562 C 4.203125 347.203125 7.382812 354.824219 13.65625 361.089844 C 20.089844 367.53125 27.792969 370.710938 36.769531 370.632812 C 45.746094 370.710938 53.367188 367.53125 59.628906 361.089844 L 187.5 233.472656 L 315.117188 361.089844 C 321.546875 367.53125 329.25 370.710938 338.226562 370.632812 C 347.203125 370.710938 354.824219 367.53125 361.089844 361.089844 C 367.53125 354.824219 370.710938 347.203125 370.632812 338.226562 C 370.710938 329.25 367.53125 321.546875 361.089844 315.117188 L 233.472656 187.5 Z M 361.089844 59.628906 " fill-opacity="1" fill-rule="nonzero"/></g></svg>