<svg xmlns="http://www.w3.org/2000/svg" xmlns:xlink="http://www.w3.org/1999/xlink" width="500" zoomAndPan="magnify" viewBox="0 0 375 374.999991" height="500" preserveAspectRatio="xMidYMid meet" version="1.0"><defs><clipPath id="febcfec23b"><path d="M 5.859375 200 L 368.859375 200 L 368.859375 375 L 5.859375 375 Z M 5.859375 200 " clip-rule="nonzero"/></clipPath></defs><g clip-path="url(#febcfec23b)"><path fill="#252525" d="M 243.699219 222.503906 C 245.394531 222.511719 247.085938 222.5625 248.777344 222.652344 C 250.46875 222.742188 252.15625 222.875 253.84375 223.046875 C 255.527344 223.21875 257.207031 223.433594 258.882812 223.6875 C 260.558594 223.945312 262.222656 224.238281 263.882812 224.574219 C 265.542969 224.914062 267.195312 225.289062 268.835938 225.707031 C 270.480469 226.125 272.109375 226.578125 273.730469 227.078125 C 275.347656 227.574219 276.957031 228.109375 278.546875 228.683594 C 280.140625 229.257812 281.71875 229.875 283.285156 230.527344 C 284.847656 231.175781 286.394531 231.867188 287.921875 232.59375 C 289.453125 233.324219 290.964844 234.085938 292.457031 234.890625 C 293.949219 235.691406 295.421875 236.527344 296.871094 237.402344 C 298.324219 238.273438 299.753906 239.183594 301.160156 240.125 C 302.566406 241.070312 303.949219 242.046875 305.308594 243.058594 C 306.667969 244.070312 308.003906 245.113281 309.3125 246.1875 C 310.621094 247.261719 311.902344 248.371094 313.15625 249.507812 C 314.410156 250.648438 315.636719 251.816406 316.832031 253.015625 C 318.03125 254.214844 319.195312 255.441406 320.335938 256.695312 C 321.472656 257.949219 322.578125 259.234375 323.652344 260.542969 C 324.726562 261.851562 325.769531 263.1875 326.777344 264.546875 C 327.789062 265.90625 328.765625 267.292969 329.707031 268.699219 C 330.648438 270.105469 331.554688 271.539062 332.425781 272.988281 C 333.300781 274.441406 334.136719 275.914062 334.933594 277.40625 C 335.734375 278.902344 336.5 280.414062 337.226562 281.941406 C 337.953125 283.472656 338.640625 285.019531 339.289062 286.585938 C 339.941406 288.148438 340.554688 289.726562 341.128906 291.320312 C 341.699219 292.914062 342.234375 294.523438 342.730469 296.140625 C 343.226562 297.761719 343.679688 299.390625 344.097656 301.035156 C 344.511719 302.675781 344.886719 304.328125 345.222656 305.988281 C 345.558594 307.648438 345.851562 309.316406 346.105469 310.992188 C 346.359375 312.667969 346.570312 314.347656 346.742188 316.03125 C 346.914062 317.71875 347.042969 319.40625 347.132812 321.097656 C 347.222656 322.789062 347.269531 324.480469 347.273438 326.175781 L 347.273438 352.300781 L 27.761719 352.300781 L 27.761719 326.175781 C 27.769531 324.480469 27.820312 322.789062 27.910156 321.097656 C 28 319.40625 28.132812 317.71875 28.304688 316.03125 C 28.480469 314.347656 28.691406 312.667969 28.949219 310.992188 C 29.203125 309.320312 29.5 307.652344 29.835938 305.992188 C 30.171875 304.332031 30.546875 302.679688 30.964844 301.039062 C 31.382812 299.394531 31.839844 297.765625 32.335938 296.144531 C 32.832031 294.527344 33.367188 292.917969 33.945312 291.328125 C 34.519531 289.734375 35.132812 288.15625 35.785156 286.589844 C 36.4375 285.027344 37.125 283.480469 37.855469 281.953125 C 38.582031 280.421875 39.347656 278.910156 40.148438 277.417969 C 40.949219 275.925781 41.789062 274.453125 42.660156 273.003906 C 43.535156 271.550781 44.441406 270.121094 45.386719 268.714844 C 46.328125 267.308594 47.304688 265.925781 48.316406 264.566406 C 49.328125 263.207031 50.371094 261.871094 51.445312 260.5625 C 52.523438 259.253906 53.628906 257.972656 54.769531 256.71875 C 55.90625 255.464844 57.074219 254.238281 58.273438 253.042969 C 59.472656 251.84375 60.699219 250.679688 61.953125 249.539062 C 63.210938 248.402344 64.492188 247.296875 65.800781 246.222656 C 67.109375 245.148438 68.445312 244.105469 69.804688 243.097656 C 71.167969 242.085938 72.550781 241.109375 73.957031 240.167969 C 75.367188 239.226562 76.796875 238.320312 78.25 237.449219 C 79.699219 236.578125 81.171875 235.738281 82.667969 234.941406 C 84.160156 234.140625 85.671875 233.375 87.203125 232.648438 C 88.730469 231.925781 90.277344 231.234375 91.84375 230.585938 C 93.40625 229.933594 94.984375 229.320312 96.578125 228.746094 C 98.171875 228.175781 99.78125 227.640625 101.402344 227.144531 C 103.019531 226.648438 104.652344 226.195312 106.292969 225.777344 C 107.9375 225.363281 109.585938 224.988281 111.246094 224.652344 C 112.910156 224.316406 114.574219 224.023438 116.25 223.769531 C 117.925781 223.515625 119.605469 223.304688 121.292969 223.132812 C 122.976562 222.960938 124.664062 222.832031 126.355469 222.742188 C 128.046875 222.65625 129.742188 222.605469 131.433594 222.601562 L 243.699219 222.601562 M 243.699219 200.695312 L 131.433594 200.695312 C 129.382812 200.703125 127.332031 200.757812 125.28125 200.863281 C 123.230469 200.96875 121.1875 201.125 119.144531 201.332031 C 117.101562 201.539062 115.066406 201.796875 113.035156 202.101562 C 111.007812 202.40625 108.984375 202.761719 106.972656 203.167969 C 104.960938 203.570312 102.960938 204.023438 100.96875 204.527344 C 98.980469 205.03125 97.003906 205.582031 95.039062 206.179688 C 93.078125 206.777344 91.128906 207.425781 89.199219 208.121094 C 87.265625 208.8125 85.351562 209.554688 83.457031 210.34375 C 81.5625 211.128906 79.6875 211.964844 77.832031 212.84375 C 75.976562 213.722656 74.148438 214.648438 72.335938 215.617188 C 70.527344 216.585938 68.742188 217.597656 66.984375 218.65625 C 65.222656 219.710938 63.492188 220.808594 61.785156 221.949219 C 60.078125 223.09375 58.402344 224.273438 56.753906 225.496094 C 55.105469 226.71875 53.488281 227.984375 51.902344 229.285156 C 50.3125 230.585938 48.761719 231.925781 47.238281 233.304688 C 45.71875 234.683594 44.230469 236.097656 42.78125 237.546875 C 41.328125 239 39.910156 240.484375 38.53125 242.003906 C 37.152344 243.523438 35.8125 245.078125 34.507812 246.664062 C 33.207031 248.25 31.941406 249.867188 30.71875 251.511719 C 29.492188 253.160156 28.308594 254.835938 27.167969 256.542969 C 26.023438 258.246094 24.925781 259.980469 23.867188 261.738281 C 22.808594 263.496094 21.796875 265.28125 20.824219 267.089844 C 19.855469 268.898438 18.929688 270.730469 18.046875 272.582031 C 17.167969 274.4375 16.332031 276.3125 15.542969 278.207031 C 14.753906 280.101562 14.011719 282.011719 13.316406 283.945312 C 12.621094 285.875 11.972656 287.824219 11.371094 289.785156 C 10.769531 291.746094 10.21875 293.722656 9.714844 295.714844 C 9.210938 297.703125 8.753906 299.703125 8.347656 301.714844 C 7.941406 303.726562 7.585938 305.75 7.277344 307.777344 C 6.972656 309.808594 6.714844 311.84375 6.503906 313.886719 C 6.296875 315.925781 6.140625 317.972656 6.03125 320.023438 C 5.925781 322.074219 5.867188 324.125 5.859375 326.175781 L 5.859375 366.457031 C 5.859375 366.960938 5.910156 367.457031 6.007812 367.953125 C 6.105469 368.445312 6.25 368.925781 6.445312 369.390625 C 6.636719 369.855469 6.871094 370.300781 7.152344 370.71875 C 7.433594 371.136719 7.75 371.523438 8.105469 371.878906 C 8.460938 372.238281 8.851562 372.554688 9.269531 372.835938 C 9.6875 373.113281 10.128906 373.351562 10.59375 373.542969 C 11.0625 373.738281 11.539062 373.882812 12.035156 373.980469 C 12.527344 374.078125 13.027344 374.128906 13.53125 374.128906 L 361.527344 374.128906 C 362.03125 374.128906 362.527344 374.078125 363.023438 373.980469 C 363.515625 373.882812 363.996094 373.738281 364.460938 373.542969 C 364.925781 373.351562 365.371094 373.113281 365.789062 372.835938 C 366.207031 372.554688 366.59375 372.238281 366.949219 371.878906 C 367.308594 371.523438 367.625 371.136719 367.90625 370.71875 C 368.183594 370.300781 368.421875 369.855469 368.613281 369.390625 C 368.808594 368.925781 368.953125 368.445312 369.050781 367.953125 C 369.148438 367.457031 369.199219 366.960938 369.199219 366.457031 L 369.199219 326.175781 C 369.191406 324.125 369.136719 322.070312 369.03125 320.023438 C 368.921875 317.972656 368.765625 315.925781 368.5625 313.882812 C 368.355469 311.839844 368.097656 309.804688 367.792969 307.773438 C 367.488281 305.746094 367.132812 303.722656 366.726562 301.710938 C 366.324219 299.699219 365.867188 297.699219 365.367188 295.707031 C 364.863281 293.71875 364.3125 291.742188 363.714844 289.777344 C 363.113281 287.8125 362.46875 285.867188 361.773438 283.933594 C 361.078125 282.003906 360.335938 280.089844 359.550781 278.195312 C 358.761719 276.300781 357.929688 274.421875 357.046875 272.570312 C 356.167969 270.714844 355.246094 268.882812 354.273438 267.074219 C 353.304688 265.261719 352.292969 263.480469 351.234375 261.71875 C 350.179688 259.957031 349.082031 258.226562 347.941406 256.519531 C 346.796875 254.8125 345.617188 253.136719 344.394531 251.488281 C 343.167969 249.839844 341.90625 248.222656 340.605469 246.636719 C 339.300781 245.046875 337.960938 243.496094 336.582031 241.972656 C 335.203125 240.453125 333.789062 238.964844 332.339844 237.515625 C 330.886719 236.0625 329.402344 234.644531 327.882812 233.265625 C 326.363281 231.886719 324.808594 230.546875 323.222656 229.242188 C 321.636719 227.941406 320.019531 226.675781 318.371094 225.453125 C 316.726562 224.226562 315.046875 223.042969 313.34375 221.902344 C 311.636719 220.757812 309.90625 219.660156 308.144531 218.601562 C 306.386719 217.542969 304.601562 216.53125 302.792969 215.558594 C 300.984375 214.589844 299.152344 213.664062 297.296875 212.78125 C 295.445312 211.902344 293.570312 211.066406 291.675781 210.277344 C 289.78125 209.488281 287.867188 208.746094 285.9375 208.050781 C 284.003906 207.355469 282.058594 206.707031 280.09375 206.105469 C 278.132812 205.507812 276.15625 204.953125 274.164062 204.449219 C 272.175781 203.945312 270.175781 203.492188 268.160156 203.085938 C 266.148438 202.679688 264.128906 202.324219 262.097656 202.015625 C 260.070312 201.710938 258.035156 201.453125 255.992188 201.246094 C 253.949219 201.039062 251.902344 200.878906 249.851562 200.773438 C 247.804688 200.664062 245.753906 200.609375 243.699219 200.601562 Z M 243.699219 200.695312 " fill-opacity="1" fill-rule="nonzero"/></g><path fill="#252525" d="M 187.539062 22.777344 C 188.632812 22.777344 189.730469 22.804688 190.824219 22.855469 C 191.917969 22.910156 193.011719 22.992188 194.101562 23.097656 C 195.195312 23.207031 196.28125 23.339844 197.367188 23.5 C 198.449219 23.664062 199.53125 23.851562 200.605469 24.0625 C 201.679688 24.277344 202.75 24.519531 203.8125 24.785156 C 204.875 25.050781 205.933594 25.34375 206.980469 25.660156 C 208.03125 25.980469 209.070312 26.324219 210.101562 26.691406 C 211.136719 27.0625 212.15625 27.457031 213.171875 27.875 C 214.183594 28.292969 215.183594 28.738281 216.175781 29.207031 C 217.167969 29.675781 218.144531 30.167969 219.113281 30.683594 C 220.078125 31.203125 221.03125 31.742188 221.972656 32.304688 C 222.914062 32.871094 223.839844 33.457031 224.75 34.066406 C 225.660156 34.671875 226.558594 35.304688 227.4375 35.957031 C 228.316406 36.609375 229.183594 37.285156 230.027344 37.980469 C 230.875 38.675781 231.707031 39.390625 232.519531 40.128906 C 233.332031 40.863281 234.125 41.621094 234.898438 42.394531 C 235.675781 43.167969 236.429688 43.964844 237.167969 44.773438 C 237.902344 45.585938 238.617188 46.417969 239.3125 47.265625 C 240.007812 48.113281 240.683594 48.976562 241.335938 49.855469 C 241.988281 50.738281 242.621094 51.632812 243.230469 52.542969 C 243.839844 53.457031 244.425781 54.382812 244.988281 55.320312 C 245.550781 56.261719 246.089844 57.214844 246.609375 58.183594 C 247.125 59.148438 247.617188 60.128906 248.085938 61.117188 C 248.554688 62.109375 249 63.109375 249.417969 64.125 C 249.839844 65.136719 250.234375 66.160156 250.601562 67.191406 C 250.972656 68.222656 251.316406 69.261719 251.632812 70.3125 C 251.953125 71.363281 252.242188 72.417969 252.511719 73.480469 C 252.777344 74.542969 253.015625 75.613281 253.230469 76.6875 C 253.445312 77.761719 253.632812 78.84375 253.792969 79.925781 C 253.953125 81.011719 254.085938 82.097656 254.195312 83.191406 C 254.300781 84.28125 254.382812 85.375 254.4375 86.46875 C 254.492188 87.5625 254.515625 88.660156 254.515625 89.753906 C 254.515625 90.851562 254.492188 91.945312 254.4375 93.042969 C 254.382812 94.136719 254.300781 95.230469 254.195312 96.320312 C 254.085938 97.410156 253.953125 98.5 253.792969 99.582031 C 253.632812 100.667969 253.445312 101.746094 253.230469 102.824219 C 253.015625 103.898438 252.777344 104.964844 252.511719 106.03125 C 252.242188 107.09375 251.953125 108.148438 251.632812 109.199219 C 251.316406 110.246094 250.972656 111.289062 250.601562 112.320312 C 250.234375 113.351562 249.839844 114.375 249.417969 115.386719 C 249 116.398438 248.554688 117.402344 248.085938 118.390625 C 247.617188 119.382812 247.125 120.363281 246.609375 121.328125 C 246.089844 122.296875 245.550781 123.25 244.988281 124.1875 C 244.425781 125.128906 243.839844 126.054688 243.230469 126.96875 C 242.621094 127.878906 241.988281 128.773438 241.335938 129.65625 C 240.683594 130.535156 240.007812 131.398438 239.3125 132.246094 C 238.617188 133.09375 237.902344 133.921875 237.167969 134.734375 C 236.429688 135.546875 235.675781 136.339844 234.898438 137.117188 C 234.125 137.890625 233.332031 138.648438 232.519531 139.382812 C 231.707031 140.121094 230.875 140.835938 230.027344 141.53125 C 229.183594 142.226562 228.316406 142.898438 227.4375 143.554688 C 226.558594 144.207031 225.660156 144.835938 224.75 145.445312 C 223.839844 146.054688 222.914062 146.640625 221.972656 147.203125 C 221.03125 147.769531 220.078125 148.308594 219.113281 148.824219 C 218.144531 149.34375 217.167969 149.835938 216.175781 150.304688 C 215.183594 150.773438 214.183594 151.214844 213.171875 151.636719 C 212.15625 152.054688 211.136719 152.449219 210.101562 152.820312 C 209.070312 153.1875 208.03125 153.53125 206.980469 153.851562 C 205.933594 154.167969 204.875 154.460938 203.8125 154.726562 C 202.75 154.992188 201.679688 155.234375 200.605469 155.445312 C 199.53125 155.660156 198.449219 155.847656 197.367188 156.007812 C 196.28125 156.171875 195.195312 156.304688 194.101562 156.410156 C 193.011719 156.519531 191.917969 156.601562 190.824219 156.652344 C 189.730469 156.707031 188.632812 156.734375 187.539062 156.734375 C 186.441406 156.734375 185.347656 156.707031 184.25 156.652344 C 183.15625 156.601562 182.0625 156.519531 180.972656 156.410156 C 179.882812 156.304688 178.792969 156.171875 177.710938 156.007812 C 176.625 155.847656 175.546875 155.660156 174.472656 155.445312 C 173.394531 155.234375 172.328125 154.992188 171.265625 154.726562 C 170.199219 154.460938 169.144531 154.167969 168.09375 153.851562 C 167.046875 153.53125 166.007812 153.1875 164.972656 152.820312 C 163.941406 152.449219 162.917969 152.054688 161.90625 151.636719 C 160.894531 151.214844 159.890625 150.773438 158.902344 150.304688 C 157.910156 149.835938 156.929688 149.34375 155.964844 148.824219 C 155 148.308594 154.042969 147.769531 153.105469 147.203125 C 152.164062 146.640625 151.238281 146.054688 150.328125 145.445312 C 149.414062 144.835938 148.519531 144.207031 147.640625 143.554688 C 146.757812 142.898438 145.894531 142.226562 145.046875 141.53125 C 144.199219 140.835938 143.371094 140.121094 142.558594 139.382812 C 141.746094 138.648438 140.953125 137.890625 140.175781 137.117188 C 139.402344 136.339844 138.648438 135.546875 137.910156 134.734375 C 137.175781 133.921875 136.457031 133.09375 135.761719 132.246094 C 135.066406 131.398438 134.394531 130.535156 133.742188 129.65625 C 133.085938 128.773438 132.457031 127.878906 131.847656 126.96875 C 131.238281 126.054688 130.652344 125.128906 130.089844 124.1875 C 129.523438 123.25 128.984375 122.296875 128.46875 121.328125 C 127.953125 120.363281 127.457031 119.382812 126.992188 118.390625 C 126.523438 117.402344 126.078125 116.398438 125.65625 115.386719 C 125.238281 114.375 124.84375 113.351562 124.476562 112.320312 C 124.105469 111.289062 123.761719 110.246094 123.445312 109.199219 C 123.125 108.148438 122.832031 107.09375 122.566406 106.03125 C 122.300781 104.964844 122.058594 103.898438 121.847656 102.824219 C 121.632812 101.746094 121.445312 100.667969 121.285156 99.582031 C 121.125 98.5 120.988281 97.410156 120.882812 96.320312 C 120.773438 95.230469 120.695312 94.136719 120.640625 93.042969 C 120.585938 91.945312 120.558594 90.851562 120.558594 89.753906 C 120.5625 88.660156 120.589844 87.566406 120.648438 86.472656 C 120.703125 85.378906 120.785156 84.285156 120.894531 83.195312 C 121.003906 82.105469 121.140625 81.019531 121.304688 79.933594 C 121.46875 78.851562 121.65625 77.773438 121.871094 76.699219 C 122.085938 75.625 122.328125 74.558594 122.597656 73.496094 C 122.863281 72.433594 123.160156 71.378906 123.476562 70.328125 C 123.796875 69.28125 124.140625 68.242188 124.511719 67.210938 C 124.882812 66.179688 125.277344 65.160156 125.699219 64.148438 C 126.121094 63.136719 126.5625 62.136719 127.035156 61.144531 C 127.503906 60.15625 127.996094 59.179688 128.511719 58.210938 C 129.03125 57.246094 129.570312 56.292969 130.136719 55.355469 C 130.699219 54.414062 131.285156 53.492188 131.894531 52.582031 C 132.503906 51.667969 133.132812 50.773438 133.789062 49.894531 C 134.441406 49.015625 135.113281 48.152344 135.808594 47.304688 C 136.503906 46.460938 137.21875 45.628906 137.957031 44.820312 C 138.691406 44.007812 139.449219 43.214844 140.222656 42.4375 C 140.996094 41.664062 141.789062 40.910156 142.601562 40.171875 C 143.414062 39.4375 144.242188 38.722656 145.089844 38.027344 C 145.933594 37.332031 146.796875 36.65625 147.679688 36.003906 C 148.558594 35.351562 149.453125 34.722656 150.363281 34.113281 C 151.273438 33.503906 152.199219 32.914062 153.136719 32.351562 C 154.078125 31.789062 155.03125 31.246094 155.996094 30.730469 C 156.960938 30.214844 157.9375 29.71875 158.929688 29.25 C 159.917969 28.78125 160.917969 28.335938 161.929688 27.914062 C 162.941406 27.496094 163.964844 27.101562 164.996094 26.730469 C 166.023438 26.359375 167.066406 26.015625 168.113281 25.695312 C 169.160156 25.375 170.214844 25.082031 171.277344 24.8125 C 172.339844 24.546875 173.40625 24.304688 174.480469 24.089844 C 175.554688 23.875 176.636719 23.683594 177.71875 23.523438 C 178.800781 23.359375 179.886719 23.222656 180.976562 23.113281 C 182.066406 23.003906 183.160156 22.921875 184.253906 22.863281 C 185.347656 22.808594 186.441406 22.777344 187.539062 22.777344 M 187.539062 0.871094 C 186.082031 0.871094 184.628906 0.90625 183.175781 0.980469 C 181.722656 1.050781 180.273438 1.15625 178.828125 1.300781 C 177.378906 1.441406 175.933594 1.621094 174.496094 1.835938 C 173.058594 2.046875 171.625 2.296875 170.199219 2.582031 C 168.769531 2.863281 167.351562 3.183594 165.941406 3.535156 C 164.53125 3.890625 163.128906 4.277344 161.738281 4.699219 C 160.34375 5.121094 158.964844 5.578125 157.59375 6.066406 C 156.226562 6.558594 154.867188 7.082031 153.523438 7.636719 C 152.179688 8.195312 150.851562 8.785156 149.535156 9.40625 C 148.222656 10.027344 146.921875 10.683594 145.640625 11.367188 C 144.355469 12.054688 143.089844 12.769531 141.84375 13.519531 C 140.59375 14.265625 139.367188 15.042969 138.15625 15.851562 C 136.949219 16.660156 135.757812 17.496094 134.589844 18.363281 C 133.421875 19.230469 132.277344 20.125 131.152344 21.046875 C 130.027344 21.972656 128.925781 22.921875 127.847656 23.898438 C 126.769531 24.875 125.71875 25.878906 124.6875 26.90625 C 123.660156 27.933594 122.65625 28.988281 121.679688 30.066406 C 120.703125 31.144531 119.753906 32.246094 118.832031 33.367188 C 117.90625 34.492188 117.011719 35.640625 116.148438 36.808594 C 115.28125 37.976562 114.441406 39.164062 113.636719 40.375 C 112.828125 41.585938 112.046875 42.8125 111.300781 44.058594 C 110.554688 45.308594 109.835938 46.574219 109.152344 47.855469 C 108.464844 49.140625 107.8125 50.4375 107.1875 51.753906 C 106.566406 53.066406 105.976562 54.398438 105.421875 55.742188 C 104.863281 57.085938 104.339844 58.441406 103.851562 59.8125 C 103.359375 61.179688 102.90625 62.5625 102.484375 63.953125 C 102.058594 65.347656 101.671875 66.746094 101.320312 68.160156 C 100.964844 69.570312 100.648438 70.988281 100.363281 72.414062 C 100.078125 73.84375 99.832031 75.273438 99.617188 76.714844 C 99.402344 78.152344 99.226562 79.597656 99.082031 81.042969 C 98.941406 82.492188 98.832031 83.941406 98.761719 85.394531 C 98.691406 86.847656 98.65625 88.300781 98.65625 89.753906 C 98.65625 91.210938 98.691406 92.664062 98.761719 94.117188 C 98.832031 95.570312 98.941406 97.019531 99.082031 98.46875 C 99.226562 99.914062 99.402344 101.359375 99.617188 102.796875 C 99.832031 104.234375 100.078125 105.667969 100.363281 107.09375 C 100.648438 108.523438 100.964844 109.941406 101.320312 111.351562 C 101.671875 112.761719 102.058594 114.164062 102.484375 115.558594 C 102.90625 116.949219 103.359375 118.328125 103.851562 119.699219 C 104.339844 121.070312 104.863281 122.425781 105.421875 123.769531 C 105.976562 125.113281 106.566406 126.441406 107.1875 127.757812 C 107.8125 129.074219 108.464844 130.371094 109.152344 131.65625 C 109.835938 132.9375 110.554688 134.203125 111.300781 135.449219 C 112.046875 136.699219 112.828125 137.925781 113.636719 139.136719 C 114.441406 140.347656 115.28125 141.535156 116.148438 142.703125 C 117.011719 143.871094 117.90625 145.019531 118.832031 146.140625 C 119.753906 147.265625 120.703125 148.367188 121.679688 149.445312 C 122.65625 150.523438 123.660156 151.578125 124.6875 152.605469 C 125.71875 153.632812 126.769531 154.636719 127.847656 155.613281 C 128.925781 156.589844 130.027344 157.539062 131.152344 158.464844 C 132.277344 159.386719 133.421875 160.28125 134.589844 161.148438 C 135.757812 162.011719 136.949219 162.851562 138.15625 163.660156 C 139.367188 164.46875 140.59375 165.246094 141.84375 165.992188 C 143.089844 166.742188 144.355469 167.457031 145.640625 168.144531 C 146.921875 168.828125 148.222656 169.484375 149.535156 170.105469 C 150.851562 170.726562 152.179688 171.316406 153.523438 171.871094 C 154.867188 172.429688 156.226562 172.953125 157.59375 173.441406 C 158.964844 173.933594 160.34375 174.390625 161.738281 174.8125 C 163.128906 175.234375 164.53125 175.621094 165.941406 175.976562 C 167.351562 176.328125 168.769531 176.648438 170.199219 176.929688 C 171.625 177.214844 173.058594 177.464844 174.496094 177.675781 C 175.933594 177.890625 177.378906 178.066406 178.828125 178.210938 C 180.273438 178.351562 181.722656 178.460938 183.175781 178.53125 C 184.628906 178.601562 186.082031 178.636719 187.539062 178.636719 C 188.992188 178.636719 190.445312 178.601562 191.898438 178.53125 C 193.351562 178.460938 194.804688 178.351562 196.25 178.210938 C 197.699219 178.066406 199.140625 177.890625 200.582031 177.675781 C 202.019531 177.464844 203.453125 177.214844 204.878906 176.929688 C 206.304688 176.648438 207.722656 176.328125 209.136719 175.976562 C 210.546875 175.621094 211.949219 175.234375 213.339844 174.8125 C 214.730469 174.390625 216.113281 173.933594 217.480469 173.441406 C 218.851562 172.953125 220.207031 172.429688 221.550781 171.871094 C 222.894531 171.316406 224.226562 170.726562 225.539062 170.105469 C 226.855469 169.484375 228.15625 168.828125 229.4375 168.144531 C 230.71875 167.457031 231.984375 166.742188 233.234375 165.992188 C 234.480469 165.246094 235.710938 164.46875 236.917969 163.660156 C 238.128906 162.851562 239.316406 162.011719 240.484375 161.148438 C 241.65625 160.28125 242.800781 159.386719 243.925781 158.464844 C 245.050781 157.539062 246.152344 156.589844 247.230469 155.613281 C 248.304688 154.636719 249.359375 153.632812 250.386719 152.605469 C 251.417969 151.578125 252.417969 150.523438 253.394531 149.445312 C 254.375 148.367188 255.324219 147.265625 256.246094 146.140625 C 257.167969 145.019531 258.0625 143.871094 258.929688 142.703125 C 259.796875 141.535156 260.632812 140.347656 261.441406 139.136719 C 262.25 137.925781 263.027344 136.699219 263.777344 135.449219 C 264.523438 134.203125 265.242188 132.9375 265.925781 131.65625 C 266.613281 130.371094 267.265625 129.074219 267.886719 127.757812 C 268.507812 126.441406 269.097656 125.113281 269.65625 123.769531 C 270.210938 122.425781 270.734375 121.070312 271.226562 119.699219 C 271.714844 118.328125 272.171875 116.949219 272.59375 115.558594 C 273.015625 114.164062 273.402344 112.761719 273.757812 111.351562 C 274.109375 109.941406 274.429688 108.523438 274.714844 107.09375 C 274.996094 105.667969 275.246094 104.234375 275.460938 102.796875 C 275.671875 101.359375 275.851562 99.914062 275.992188 98.46875 C 276.136719 97.019531 276.242188 95.570312 276.3125 94.117188 C 276.386719 92.664062 276.421875 91.210938 276.421875 89.753906 C 276.421875 88.300781 276.386719 86.847656 276.3125 85.394531 C 276.242188 83.941406 276.136719 82.492188 275.992188 81.042969 C 275.851562 79.597656 275.671875 78.152344 275.460938 76.714844 C 275.246094 75.273438 274.996094 73.84375 274.714844 72.414062 C 274.429688 70.988281 274.109375 69.570312 273.757812 68.160156 C 273.402344 66.746094 273.015625 65.347656 272.59375 63.953125 C 272.171875 62.5625 271.714844 61.179688 271.226562 59.8125 C 270.734375 58.441406 270.210938 57.085938 269.65625 55.742188 C 269.097656 54.398438 268.507812 53.066406 267.886719 51.753906 C 267.265625 50.4375 266.613281 49.140625 265.925781 47.855469 C 265.242188 46.574219 264.523438 45.308594 263.777344 44.058594 C 263.027344 42.8125 262.25 41.585938 261.441406 40.375 C 260.632812 39.164062 259.796875 37.976562 258.929688 36.808594 C 258.0625 35.640625 257.167969 34.492188 256.246094 33.367188 C 255.324219 32.246094 254.375 31.144531 253.394531 30.066406 C 252.417969 28.988281 251.417969 27.933594 250.386719 26.90625 C 249.359375 25.878906 248.304688 24.875 247.230469 23.898438 C 246.152344 22.921875 245.050781 21.972656 243.925781 21.046875 C 242.800781 20.125 241.65625 19.230469 240.484375 18.363281 C 239.316406 17.496094 238.128906 16.660156 236.917969 15.851562 C 235.710938 15.042969 234.480469 14.265625 233.234375 13.519531 C 231.984375 12.769531 230.71875 12.054688 229.4375 11.367188 C 228.15625 10.683594 226.855469 10.027344 225.539062 9.40625 C 224.226562 8.785156 222.894531 8.195312 221.550781 7.636719 C 220.207031 7.082031 218.851562 6.558594 217.480469 6.066406 C 216.113281 5.578125 214.730469 5.121094 213.339844 4.699219 C 211.949219 4.277344 210.546875 3.890625 209.136719 3.535156 C 207.722656 3.183594 206.304688 2.863281 204.878906 2.582031 C 203.453125 2.296875 202.019531 2.046875 200.582031 1.835938 C 199.140625 1.621094 197.699219 1.441406 196.25 1.300781 C 194.804688 1.15625 193.351562 1.050781 191.898438 0.980469 C 190.445312 0.90625 188.992188 0.871094 187.539062 0.871094 Z M 187.539062 0.871094 " fill-opacity="1" fill-rule="nonzero"/></svg>