<svg xmlns="http://www.w3.org/2000/svg" xmlns:xlink="http://www.w3.org/1999/xlink" width="500" zoomAndPan="magnify" viewBox="0 0 375 374.999991" height="500" preserveAspectRatio="xMidYMid meet" version="1.0"><defs><clipPath id="6325d10b93"><path d="M 0 43.125 L 375 43.125 L 375 287 L 0 287 Z M 0 43.125 " clip-rule="nonzero"/></clipPath><clipPath id="1e1b69b5b5"><path d="M 107 294 L 268 294 L 268 337.875 L 107 337.875 Z M 107 294 " clip-rule="nonzero"/></clipPath></defs><g clip-path="url(#6325d10b93)"><path fill="#252525" d="M 343 286.007812 L 32 286.007812 C 14.355469 286.007812 0 271.652344 0 254.007812 L 0 75.59375 C 0 57.949219 14.355469 43.59375 32 43.59375 L 343 43.59375 C 360.644531 43.59375 375 57.949219 375 75.59375 L 375 254.007812 C 375 271.652344 360.644531 286.007812 343 286.007812 Z M 32 59.59375 C 23.179688 59.59375 16 66.769531 16 75.59375 L 16 254.007812 C 16 262.832031 23.179688 270.007812 32 270.007812 L 343 270.007812 C 351.820312 270.007812 359 262.832031 359 254.007812 L 359 75.59375 C 359 66.769531 351.820312 59.59375 343 59.59375 Z M 32 59.59375 " fill-opacity="1" fill-rule="nonzero"/></g><g clip-path="url(#1e1b69b5b5)"><path fill="#252525" d="M 267.5 329.027344 C 267.5 333.4375 263.910156 337.027344 259.5 337.03125 C 259.5 337.03125 115.496094 337.03125 115.496094 337.03125 C 108.519531 337.195312 104.796875 328.132812 109.851562 323.382812 C 111.289062 321.925781 113.289062 321.027344 115.496094 321.027344 L 158.699219 321.027344 L 153.5625 294.003906 L 221.4375 294.003906 L 216.300781 321.027344 L 259.5 321.027344 C 263.917969 321.027344 267.5 324.613281 267.5 329.027344 Z M 267.5 329.027344 " fill-opacity="1" fill-rule="nonzero"/></g></svg>