<svg xmlns="http://www.w3.org/2000/svg" xmlns:xlink="http://www.w3.org/1999/xlink" width="500" zoomAndPan="magnify" viewBox="0 0 375 374.999991" height="500" preserveAspectRatio="xMidYMid meet" version="1.0"><defs><clipPath id="2cd95ec2d4"><path d="M 150 27.65625 L 225 27.65625 L 225 103 L 150 103 Z M 150 27.65625 " clip-rule="nonzero"/></clipPath><clipPath id="5a1d3744c1"><path d="M 300 272 L 375 272 L 375 347.15625 L 300 347.15625 Z M 300 272 " clip-rule="nonzero"/></clipPath></defs><path fill="#252525" d="M 366.714844 178.53125 C 368.894531 178.53125 370.984375 179.398438 372.523438 180.9375 C 374.0625 182.480469 374.929688 184.566406 374.929688 186.746094 C 374.929688 188.925781 374.0625 191.015625 372.523438 192.554688 C 370.984375 194.09375 368.894531 194.960938 366.714844 194.960938 L 68.152344 194.960938 C 65.980469 194.960938 63.890625 194.09375 62.34375 192.554688 C 60.804688 191.015625 59.9375 188.925781 59.9375 186.746094 C 59.9375 184.566406 60.804688 182.480469 62.34375 180.9375 C 63.890625 179.398438 65.980469 178.53125 68.152344 178.53125 Z M 366.714844 178.53125 " fill-opacity="1" fill-rule="nonzero"/><path fill="#252525" d="M 366.714844 55.375 C 368.894531 55.375 370.984375 56.242188 372.523438 57.78125 C 374.0625 59.320312 374.929688 61.410156 374.929688 63.589844 C 374.929688 65.769531 374.0625 67.863281 372.523438 69.398438 C 370.984375 70.9375 368.894531 71.804688 366.714844 71.804688 L 218.183594 71.804688 C 216.003906 71.804688 213.914062 70.9375 212.375 69.398438 C 210.835938 67.863281 209.96875 65.769531 209.96875 63.589844 C 209.96875 61.410156 210.835938 59.320312 212.375 57.78125 C 213.914062 56.242188 216.003906 55.375 218.183594 55.375 Z M 366.714844 55.375 " fill-opacity="1" fill-rule="nonzero"/><path fill="#252525" d="M 304.0625 301.6875 C 306.234375 301.6875 308.324219 302.554688 309.871094 304.089844 C 311.410156 305.636719 312.277344 307.71875 312.277344 309.902344 C 312.277344 312.082031 311.410156 314.171875 309.871094 315.710938 C 308.324219 317.25 306.234375 318.117188 304.0625 318.117188 L 8.414062 318.117188 C 6.238281 318.117188 4.148438 317.25 2.601562 315.710938 C 1.0625 314.171875 0.199219 312.082031 0.199219 309.902344 C 0.199219 307.71875 1.0625 305.636719 2.601562 304.089844 C 4.148438 302.554688 6.238281 301.6875 8.414062 301.6875 Z M 304.0625 301.6875 " fill-opacity="1" fill-rule="nonzero"/><g clip-path="url(#2cd95ec2d4)"><path fill="#252525" d="M 150.199219 64.996094 C 150.199219 55.085938 154.136719 45.578125 161.140625 38.574219 C 168.144531 31.5625 177.65625 27.625 187.566406 27.625 C 197.476562 27.625 206.984375 31.5625 213.988281 38.574219 C 220.992188 45.578125 224.933594 55.085938 224.933594 64.996094 C 224.933594 74.902344 220.992188 84.410156 213.988281 91.414062 C 206.984375 98.425781 197.476562 102.363281 187.566406 102.363281 C 177.65625 102.363281 168.144531 98.425781 161.140625 91.414062 C 154.136719 84.410156 150.199219 74.902344 150.199219 64.996094 Z M 166.628906 64.996094 C 166.628906 59.445312 168.832031 54.113281 172.757812 50.1875 C 176.6875 46.265625 182.011719 44.054688 187.566406 44.054688 C 193.117188 44.054688 198.449219 46.265625 202.375 50.1875 C 206.296875 54.113281 208.507812 59.445312 208.507812 64.996094 C 208.507812 70.542969 206.296875 75.875 202.375 79.800781 C 198.449219 83.722656 193.117188 85.933594 187.566406 85.933594 C 182.011719 85.933594 176.6875 83.722656 172.757812 79.800781 C 168.832031 75.875 166.628906 70.542969 166.628906 64.996094 Z M 166.628906 64.996094 " fill-opacity="1" fill-rule="evenodd"/></g><path fill="#252525" d="M 0.0703125 186.777344 C 0.0703125 176.875 4.007812 167.359375 11.011719 160.355469 C 18.015625 153.351562 27.53125 149.40625 37.4375 149.40625 C 47.339844 149.40625 56.855469 153.351562 63.859375 160.355469 C 70.863281 167.359375 74.804688 176.875 74.804688 186.777344 C 74.804688 196.683594 70.863281 206.199219 63.859375 213.203125 C 56.855469 220.207031 47.339844 224.144531 37.4375 224.144531 C 27.53125 224.144531 18.015625 220.207031 11.011719 213.203125 C 4.007812 206.199219 0.0703125 196.683594 0.0703125 186.777344 Z M 16.5 186.777344 C 16.5 181.226562 18.703125 175.894531 22.628906 171.96875 C 26.558594 168.046875 31.882812 165.835938 37.4375 165.835938 C 42.988281 165.835938 48.320312 168.046875 52.246094 171.96875 C 56.167969 175.894531 58.378906 181.226562 58.378906 186.777344 C 58.378906 192.332031 56.167969 197.65625 52.246094 201.582031 C 48.320312 205.511719 42.988281 207.714844 37.4375 207.714844 C 31.882812 207.714844 26.558594 205.511719 22.628906 201.582031 C 18.703125 197.65625 16.5 192.332031 16.5 186.777344 Z M 16.5 186.777344 " fill-opacity="1" fill-rule="evenodd"/><g clip-path="url(#5a1d3744c1)"><path fill="#252525" d="M 300.195312 309.929688 C 300.195312 300.023438 304.136719 290.515625 311.140625 283.511719 C 318.144531 276.5 327.660156 272.5625 337.5625 272.5625 C 347.46875 272.5625 356.984375 276.5 363.988281 283.511719 C 370.992188 290.515625 374.929688 300.023438 374.929688 309.929688 C 374.929688 319.839844 370.992188 329.347656 363.988281 336.351562 C 356.984375 343.363281 347.46875 347.300781 337.5625 347.300781 C 327.660156 347.300781 318.144531 343.363281 311.140625 336.351562 C 304.136719 329.347656 300.195312 319.839844 300.195312 309.929688 Z M 316.621094 309.929688 C 316.621094 304.382812 318.832031 299.050781 322.753906 295.121094 C 326.679688 291.203125 332.011719 288.992188 337.5625 288.992188 C 343.117188 288.992188 348.441406 291.203125 352.371094 295.121094 C 356.296875 299.050781 358.5 304.382812 358.5 309.929688 C 358.5 315.480469 356.296875 320.8125 352.371094 324.738281 C 348.441406 328.660156 343.117188 330.871094 337.5625 330.871094 C 332.011719 330.871094 326.679688 328.660156 322.753906 324.738281 C 318.832031 320.8125 316.621094 315.480469 316.621094 309.929688 Z M 316.621094 309.929688 " fill-opacity="1" fill-rule="evenodd"/></g><path fill="#252525" d="M 156.203125 55.375 C 158.375 55.375 160.46875 56.242188 162.011719 57.78125 C 163.550781 59.320312 164.417969 61.410156 164.417969 63.589844 C 164.417969 65.769531 163.550781 67.863281 162.011719 69.398438 C 160.46875 70.9375 158.375 71.804688 156.203125 71.804688 L 8.414062 71.804688 C 6.238281 71.804688 4.148438 70.9375 2.601562 69.398438 C 1.0625 67.863281 0.199219 65.769531 0.199219 63.589844 C 0.199219 61.410156 1.0625 59.320312 2.601562 57.78125 C 4.148438 56.242188 6.238281 55.375 8.414062 55.375 Z M 156.203125 55.375 " fill-opacity="1" fill-rule="nonzero"/></svg>