<svg xmlns="http://www.w3.org/2000/svg" xmlns:xlink="http://www.w3.org/1999/xlink" width="500" zoomAndPan="magnify" viewBox="0 0 375 374.999991" height="500" preserveAspectRatio="xMidYMid meet" version="1.0"><defs><clipPath id="ed984415f2"><path d="M 2.816406 44.136719 L 371.816406 44.136719 L 371.816406 330.636719 L 2.816406 330.636719 Z M 2.816406 44.136719 " clip-rule="nonzero"/></clipPath></defs><g clip-path="url(#ed984415f2)"><path fill="#ffffff" d="M 51.539062 330.636719 C 47.441406 330.636719 44.179688 327.292969 44.179688 323.273438 C 44.179688 302.105469 45.347656 285.871094 49.617188 272.652344 L 10.214844 272.652344 C 6.199219 272.652344 2.851562 269.304688 2.851562 265.289062 C 2.851562 245.710938 4.859375 233.828125 14.3125 224.371094 C 22.425781 216.257812 35.394531 211.066406 57.144531 205.042969 C 49.785156 199.605469 44.261719 189.898438 41.667969 179.019531 C 39.828125 171.492188 39.328125 163.375 40.332031 155.59375 C 41.417969 147.558594 44.261719 139.777344 49.113281 133.667969 C 55.554688 125.46875 65.34375 120.199219 79.0625 120.199219 C 92.78125 120.199219 102.570312 125.46875 109.011719 133.667969 C 113.863281 139.777344 116.707031 147.558594 117.796875 155.59375 C 118.882812 163.375 118.296875 171.492188 116.457031 179.019531 C 113.863281 189.898438 108.425781 199.605469 101.066406 205.042969 C 107.003906 206.632812 112.359375 208.308594 117.042969 209.898438 C 122.480469 211.738281 127.082031 213.578125 131.097656 215.585938 C 137.789062 213.496094 145.070312 211.488281 152.847656 209.3125 L 152.847656 201.613281 C 137.457031 193.078125 125.828125 173.664062 120.472656 151.410156 C 117.042969 137.433594 116.039062 122.289062 117.964844 107.8125 C 119.972656 93.085938 125.074219 79.113281 133.859375 67.984375 C 145.320312 53.59375 162.71875 44.136719 187.316406 44.136719 C 211.910156 44.136719 229.3125 53.59375 240.773438 67.984375 C 249.554688 79.113281 254.660156 93.085938 256.667969 107.8125 C 258.589844 122.289062 257.585938 137.433594 254.15625 151.410156 C 248.800781 173.664062 237.175781 193.078125 221.78125 201.613281 L 221.78125 209.3125 C 229.5625 211.488281 236.839844 213.496094 243.53125 215.585938 C 247.546875 213.578125 252.148438 211.738281 257.585938 209.898438 C 262.269531 208.308594 267.625 206.71875 273.566406 205.042969 C 266.203125 199.605469 260.765625 189.898438 258.171875 179.019531 C 256.332031 171.492188 255.746094 163.375 256.832031 155.59375 C 257.921875 147.558594 260.765625 139.777344 265.617188 133.667969 C 272.058594 125.46875 281.847656 120.199219 295.566406 120.199219 C 309.285156 120.199219 319.074219 125.46875 325.515625 133.667969 C 330.367188 139.777344 333.210938 147.558594 334.300781 155.59375 C 335.304688 163.375 334.800781 171.492188 332.960938 179.019531 C 330.367188 189.898438 324.847656 199.605469 317.484375 205.042969 C 339.234375 211.066406 352.203125 216.257812 360.316406 224.371094 C 369.769531 233.828125 371.777344 245.710938 371.777344 265.289062 C 371.777344 269.304688 368.433594 272.652344 364.417969 272.652344 L 325.015625 272.652344 C 329.28125 285.871094 330.453125 302.105469 330.453125 323.273438 C 330.453125 327.292969 327.1875 330.636719 323.089844 330.636719 Z M 315.644531 315.828125 C 315.308594 295.496094 313.554688 280.851562 307.863281 269.640625 C 307.445312 269.054688 307.113281 268.386719 306.859375 267.714844 C 304.9375 264.199219 302.511719 260.9375 299.5 258.007812 C 285.527344 244.035156 259.34375 234.664062 212.832031 222.195312 C 209.484375 221.527344 206.972656 218.515625 206.972656 215 L 206.972656 196.925781 C 206.972656 194 208.816406 191.238281 211.660156 190.066406 C 224.792969 184.960938 235 168.058594 239.851562 147.976562 C 242.863281 135.679688 243.785156 122.375 242.027344 109.824219 C 240.4375 97.605469 236.335938 86.058594 229.226562 77.191406 C 220.441406 66.144531 206.890625 58.949219 187.316406 58.949219 C 167.738281 58.949219 154.1875 66.144531 145.402344 77.191406 C 138.292969 86.058594 134.191406 97.605469 132.605469 109.824219 C 130.847656 122.375 131.765625 135.679688 134.777344 147.976562 C 139.546875 167.890625 149.667969 184.628906 162.550781 189.898438 C 165.480469 190.902344 167.65625 193.664062 167.65625 196.925781 L 167.65625 215 C 167.65625 218.265625 165.480469 221.191406 162.132812 222.113281 C 115.371094 234.664062 89.101562 243.953125 75.132812 258.007812 C 72.121094 260.9375 69.695312 264.199219 67.769531 267.714844 C 67.519531 268.386719 67.183594 269.054688 66.765625 269.554688 C 61.078125 280.851562 59.320312 295.496094 58.984375 315.828125 Z M 56.390625 257.84375 C 58.734375 254.242188 61.410156 250.8125 64.675781 247.632812 C 74.546875 237.761719 88.601562 230.144531 109.097656 222.78125 C 103.824219 221.109375 97.800781 219.351562 90.859375 217.511719 C 87.597656 216.589844 85.421875 213.660156 85.421875 210.398438 L 85.421875 201.277344 C 85.421875 198.015625 87.511719 195.253906 90.441406 194.25 C 95.792969 191.90625 100.0625 184.460938 102.152344 175.589844 C 103.574219 169.734375 103.992188 163.457031 103.238281 157.601562 C 102.488281 151.996094 100.648438 146.804688 97.46875 142.789062 C 93.703125 138.019531 87.761719 134.925781 79.0625 134.925781 C 70.445312 134.925781 64.421875 138.019531 60.660156 142.789062 C 57.480469 146.804688 55.640625 151.996094 54.886719 157.601562 C 54.132812 163.457031 54.550781 169.734375 55.972656 175.589844 C 58.148438 184.710938 62.582031 192.242188 68.019531 194.417969 C 70.949219 195.503906 72.707031 198.265625 72.707031 201.277344 L 72.707031 210.398438 C 72.707031 213.914062 70.195312 216.925781 66.847656 217.59375 C 44.011719 223.703125 31.296875 228.222656 24.769531 234.746094 C 19.835938 239.683594 18.160156 246.714844 17.742188 257.84375 Z M 265.535156 222.78125 C 286.03125 230.144531 300.085938 237.761719 309.957031 247.632812 C 313.21875 250.8125 315.894531 254.242188 318.238281 257.84375 L 356.886719 257.84375 C 356.46875 246.714844 354.796875 239.683594 349.859375 234.746094 C 343.335938 228.222656 330.617188 223.703125 307.78125 217.59375 C 304.433594 216.925781 301.925781 213.914062 301.925781 210.398438 L 301.925781 201.277344 C 301.925781 198.265625 303.679688 195.503906 306.609375 194.417969 C 312.046875 192.242188 316.480469 184.710938 318.65625 175.589844 C 320.078125 169.816406 320.496094 163.457031 319.742188 157.601562 C 318.992188 151.996094 317.148438 146.804688 313.972656 142.789062 C 310.207031 138.019531 304.183594 134.925781 295.566406 134.925781 C 286.867188 134.925781 280.925781 138.019531 277.164062 142.789062 C 273.984375 146.804688 272.144531 151.996094 271.390625 157.601562 C 270.636719 163.457031 271.054688 169.734375 272.476562 175.589844 C 274.570312 184.460938 278.835938 191.90625 284.191406 194.25 C 287.117188 195.253906 289.207031 198.015625 289.207031 201.277344 L 289.207031 210.398438 C 289.207031 213.660156 287.035156 216.589844 283.769531 217.511719 C 276.828125 219.351562 270.804688 221.109375 265.535156 222.78125 Z M 265.535156 222.78125 " fill-opacity="1" fill-rule="nonzero"/></g></svg>