<svg xmlns="http://www.w3.org/2000/svg" xmlns:xlink="http://www.w3.org/1999/xlink" width="500" zoomAndPan="magnify" viewBox="0 0 375 374.999991" height="500" preserveAspectRatio="xMidYMid meet" version="1.0"><defs><clipPath id="964aa5afd9"><path d="M 37.5 206 L 337.5 206 L 337.5 375 L 37.5 375 Z M 37.5 206 " clip-rule="nonzero"/></clipPath></defs><g clip-path="url(#964aa5afd9)"><path fill="#ffffff" d="M 215.625 206.25 L 159.375 206.25 C 157.382812 206.253906 155.386719 206.304688 153.398438 206.402344 C 151.40625 206.503906 149.417969 206.652344 147.433594 206.847656 C 145.449219 207.046875 143.472656 207.292969 141.5 207.585938 C 139.527344 207.882812 137.5625 208.222656 135.609375 208.613281 C 133.652344 209.003906 131.707031 209.445312 129.773438 209.929688 C 127.839844 210.417969 125.917969 210.949219 124.011719 211.53125 C 122.105469 212.109375 120.210938 212.734375 118.335938 213.410156 C 116.457031 214.082031 114.597656 214.800781 112.757812 215.566406 C 110.914062 216.328125 109.09375 217.136719 107.292969 217.992188 C 105.488281 218.84375 103.710938 219.742188 101.953125 220.683594 C 100.191406 221.621094 98.460938 222.605469 96.75 223.632812 C 95.039062 224.65625 93.355469 225.722656 91.699219 226.832031 C 90.039062 227.941406 88.410156 229.089844 86.808594 230.277344 C 85.207031 231.464844 83.636719 232.691406 82.097656 233.957031 C 80.554688 235.222656 79.046875 236.523438 77.566406 237.863281 C 76.089844 239.203125 74.648438 240.578125 73.238281 241.988281 C 71.828125 243.398438 70.453125 244.839844 69.113281 246.316406 C 67.773438 247.796875 66.472656 249.304688 65.207031 250.847656 C 63.941406 252.386719 62.714844 253.957031 61.527344 255.558594 C 60.339844 257.160156 59.191406 258.789062 58.082031 260.449219 C 56.972656 262.105469 55.90625 263.789062 54.882812 265.5 C 53.855469 267.210938 52.871094 268.941406 51.933594 270.703125 C 50.992188 272.460938 50.09375 274.238281 49.242188 276.042969 C 48.386719 277.84375 47.578125 279.664062 46.816406 281.507812 C 46.050781 283.347656 45.332031 285.207031 44.660156 287.085938 C 43.984375 288.960938 43.359375 290.855469 42.78125 292.761719 C 42.199219 294.667969 41.667969 296.589844 41.179688 298.523438 C 40.695312 300.457031 40.253906 302.402344 39.863281 304.359375 C 39.472656 306.3125 39.132812 308.277344 38.835938 310.25 C 38.542969 312.222656 38.296875 314.199219 38.097656 316.183594 C 37.902344 318.167969 37.753906 320.15625 37.652344 322.148438 C 37.554688 324.136719 37.503906 326.132812 37.5 328.125 L 37.5 365.625 C 37.5 366.242188 37.558594 366.851562 37.679688 367.453125 C 37.800781 368.058594 37.976562 368.644531 38.214844 369.210938 C 38.449219 369.78125 38.738281 370.320312 39.078125 370.832031 C 39.421875 371.34375 39.8125 371.820312 40.246094 372.253906 C 40.679688 372.6875 41.15625 373.078125 41.667969 373.417969 C 42.179688 373.761719 42.71875 374.050781 43.289062 374.285156 C 43.855469 374.523438 44.441406 374.699219 45.046875 374.820312 C 45.648438 374.941406 46.257812 375 46.875 375 L 328.125 375 C 328.742188 375 329.351562 374.941406 329.953125 374.820312 C 330.558594 374.699219 331.144531 374.523438 331.710938 374.285156 C 332.28125 374.050781 332.820312 373.761719 333.332031 373.417969 C 333.84375 373.078125 334.320312 372.6875 334.753906 372.253906 C 335.1875 371.820312 335.578125 371.34375 335.921875 370.832031 C 336.261719 370.320312 336.550781 369.78125 336.785156 369.210938 C 337.023438 368.644531 337.199219 368.058594 337.320312 367.453125 C 337.441406 366.851562 337.5 366.242188 337.5 365.625 L 337.5 328.125 C 337.496094 326.132812 337.445312 324.136719 337.347656 322.148438 C 337.246094 320.15625 337.097656 318.167969 336.898438 316.183594 C 336.703125 314.199219 336.457031 312.222656 336.164062 310.25 C 335.867188 308.277344 335.527344 306.3125 335.136719 304.359375 C 334.746094 302.402344 334.304688 300.457031 333.820312 298.523438 C 333.332031 296.589844 332.800781 294.671875 332.21875 292.761719 C 331.640625 290.855469 331.015625 288.960938 330.339844 287.085938 C 329.667969 285.207031 328.949219 283.347656 328.183594 281.507812 C 327.421875 279.664062 326.613281 277.84375 325.757812 276.042969 C 324.90625 274.238281 324.007812 272.460938 323.066406 270.703125 C 322.128906 268.941406 321.144531 267.210938 320.117188 265.5 C 319.09375 263.789062 318.027344 262.105469 316.917969 260.449219 C 315.808594 258.789062 314.660156 257.160156 313.472656 255.558594 C 312.285156 253.957031 311.058594 252.386719 309.792969 250.847656 C 308.527344 249.304688 307.226562 247.796875 305.886719 246.320312 C 304.546875 244.839844 303.171875 243.398438 301.761719 241.988281 C 300.351562 240.578125 298.910156 239.203125 297.433594 237.863281 C 295.953125 236.523438 294.445312 235.222656 292.902344 233.957031 C 291.363281 232.691406 289.792969 231.464844 288.191406 230.277344 C 286.589844 229.089844 284.960938 227.941406 283.300781 226.832031 C 281.644531 225.722656 279.960938 224.65625 278.25 223.632812 C 276.539062 222.605469 274.808594 221.621094 273.046875 220.683594 C 271.289062 219.742188 269.511719 218.84375 267.707031 217.992188 C 265.90625 217.136719 264.085938 216.328125 262.242188 215.566406 C 260.402344 214.800781 258.542969 214.082031 256.664062 213.410156 C 254.789062 212.734375 252.894531 212.109375 250.988281 211.53125 C 249.082031 210.949219 247.160156 210.417969 245.226562 209.929688 C 243.292969 209.445312 241.347656 209.003906 239.390625 208.613281 C 237.4375 208.222656 235.472656 207.882812 233.5 207.585938 C 231.527344 207.292969 229.550781 207.046875 227.566406 206.847656 C 225.582031 206.652344 223.59375 206.503906 221.601562 206.402344 C 219.613281 206.304688 217.617188 206.253906 215.625 206.25 Z M 318.75 356.25 L 56.25 356.25 L 56.25 328.125 C 56.253906 326.4375 56.296875 324.75 56.378906 323.066406 C 56.464844 321.382812 56.589844 319.699219 56.757812 318.019531 C 56.925781 316.34375 57.132812 314.667969 57.382812 313 C 57.632812 311.332031 57.921875 309.667969 58.253906 308.015625 C 58.582031 306.359375 58.953125 304.714844 59.367188 303.078125 C 59.777344 301.441406 60.226562 299.816406 60.71875 298.203125 C 61.210938 296.589844 61.742188 294.988281 62.308594 293.398438 C 62.878906 291.8125 63.488281 290.238281 64.132812 288.679688 C 64.78125 287.121094 65.464844 285.582031 66.1875 284.054688 C 66.910156 282.53125 67.667969 281.023438 68.464844 279.539062 C 69.261719 278.050781 70.09375 276.582031 70.960938 275.136719 C 71.828125 273.6875 72.730469 272.265625 73.667969 270.863281 C 74.605469 269.460938 75.578125 268.082031 76.585938 266.726562 C 77.589844 265.371094 78.628906 264.042969 79.699219 262.738281 C 80.769531 261.433594 81.871094 260.15625 83.003906 258.90625 C 84.136719 257.65625 85.300781 256.433594 86.492188 255.242188 C 87.683594 254.050781 88.90625 252.886719 90.15625 251.753906 C 91.40625 250.621094 92.683594 249.519531 93.988281 248.449219 C 95.292969 247.378906 96.621094 246.339844 97.976562 245.332031 C 99.332031 244.328125 100.710938 243.355469 102.113281 242.417969 C 103.515625 241.480469 104.941406 240.578125 106.386719 239.710938 C 107.832031 238.84375 109.300781 238.011719 110.789062 237.214844 C 112.273438 236.417969 113.78125 235.660156 115.304688 234.9375 C 116.832031 234.214844 118.371094 233.53125 119.929688 232.882812 C 121.488281 232.238281 123.0625 231.628906 124.652344 231.058594 C 126.238281 230.492188 127.839844 229.960938 129.453125 229.46875 C 131.066406 228.976562 132.691406 228.527344 134.328125 228.117188 C 135.964844 227.703125 137.609375 227.332031 139.265625 227.003906 C 140.917969 226.671875 142.582031 226.382812 144.25 226.132812 C 145.917969 225.882812 147.59375 225.675781 149.269531 225.507812 C 150.949219 225.339844 152.632812 225.214844 154.316406 225.128906 C 156 225.046875 157.6875 225.003906 159.375 225 L 215.625 225 C 217.3125 225.003906 219 225.046875 220.683594 225.128906 C 222.367188 225.214844 224.050781 225.339844 225.730469 225.507812 C 227.40625 225.675781 229.082031 225.882812 230.75 226.132812 C 232.417969 226.382812 234.082031 226.671875 235.734375 227.003906 C 237.390625 227.332031 239.035156 227.703125 240.671875 228.117188 C 242.308594 228.527344 243.933594 228.976562 245.546875 229.46875 C 247.160156 229.960938 248.761719 230.492188 250.347656 231.058594 C 251.9375 231.628906 253.511719 232.238281 255.070312 232.882812 C 256.628906 233.53125 258.167969 234.214844 259.695312 234.9375 C 261.21875 235.660156 262.726562 236.417969 264.210938 237.214844 C 265.699219 238.011719 267.167969 238.84375 268.613281 239.710938 C 270.058594 240.578125 271.484375 241.480469 272.886719 242.417969 C 274.289062 243.355469 275.667969 244.328125 277.023438 245.335938 C 278.378906 246.339844 279.707031 247.378906 281.011719 248.449219 C 282.316406 249.519531 283.59375 250.621094 284.84375 251.753906 C 286.09375 252.886719 287.316406 254.050781 288.507812 255.242188 C 289.699219 256.433594 290.863281 257.65625 291.996094 258.90625 C 293.128906 260.15625 294.230469 261.433594 295.300781 262.738281 C 296.371094 264.042969 297.410156 265.371094 298.414062 266.726562 C 299.421875 268.082031 300.394531 269.460938 301.332031 270.863281 C 302.269531 272.265625 303.171875 273.691406 304.039062 275.136719 C 304.90625 276.582031 305.738281 278.050781 306.535156 279.539062 C 307.332031 281.023438 308.089844 282.53125 308.8125 284.054688 C 309.535156 285.582031 310.21875 287.121094 310.867188 288.679688 C 311.511719 290.238281 312.121094 291.8125 312.691406 293.402344 C 313.257812 294.988281 313.789062 296.589844 314.28125 298.203125 C 314.769531 299.816406 315.222656 301.441406 315.632812 303.078125 C 316.046875 304.714844 316.417969 306.359375 316.746094 308.015625 C 317.078125 309.667969 317.367188 311.332031 317.617188 313 C 317.867188 314.667969 318.074219 316.34375 318.242188 318.019531 C 318.410156 319.699219 318.535156 321.382812 318.621094 323.066406 C 318.703125 324.75 318.746094 326.4375 318.75 328.125 Z M 318.75 356.25 " fill-opacity="1" fill-rule="nonzero"/></g><path fill="#ffffff" d="M 187.5 187.5 C 189.035156 187.5 190.566406 187.460938 192.101562 187.386719 C 193.632812 187.3125 195.164062 187.199219 196.6875 187.046875 C 198.214844 186.898438 199.738281 186.710938 201.257812 186.484375 C 202.773438 186.261719 204.285156 185.996094 205.789062 185.699219 C 207.292969 185.398438 208.792969 185.0625 210.28125 184.691406 C 211.769531 184.316406 213.246094 183.910156 214.714844 183.464844 C 216.183594 183.019531 217.640625 182.535156 219.082031 182.019531 C 220.527344 181.503906 221.960938 180.949219 223.375 180.363281 C 224.792969 179.777344 226.195312 179.15625 227.582031 178.5 C 228.96875 177.84375 230.339844 177.152344 231.695312 176.429688 C 233.046875 175.707031 234.382812 174.949219 235.695312 174.160156 C 237.011719 173.375 238.308594 172.550781 239.585938 171.699219 C 240.859375 170.847656 242.113281 169.964844 243.347656 169.050781 C 244.578125 168.136719 245.789062 167.191406 246.972656 166.21875 C 248.160156 165.246094 249.320312 164.246094 250.457031 163.214844 C 251.59375 162.183594 252.707031 161.125 253.792969 160.042969 C 254.875 158.957031 255.933594 157.84375 256.964844 156.707031 C 257.996094 155.570312 258.996094 154.410156 259.96875 153.222656 C 260.941406 152.039062 261.886719 150.828125 262.800781 149.597656 C 263.714844 148.363281 264.597656 147.109375 265.449219 145.835938 C 266.300781 144.558594 267.125 143.261719 267.910156 141.945312 C 268.699219 140.632812 269.457031 139.296875 270.179688 137.945312 C 270.902344 136.589844 271.59375 135.21875 272.25 133.832031 C 272.90625 132.445312 273.527344 131.042969 274.113281 129.625 C 274.699219 128.210938 275.253906 126.777344 275.769531 125.332031 C 276.285156 123.890625 276.769531 122.433594 277.214844 120.964844 C 277.660156 119.496094 278.066406 118.019531 278.441406 116.53125 C 278.8125 115.042969 279.148438 113.542969 279.449219 112.039062 C 279.746094 110.535156 280.011719 109.023438 280.234375 107.507812 C 280.460938 105.988281 280.648438 104.464844 280.796875 102.9375 C 280.949219 101.414062 281.0625 99.882812 281.136719 98.351562 C 281.210938 96.816406 281.25 95.285156 281.25 93.75 C 281.25 92.214844 281.210938 90.683594 281.136719 89.148438 C 281.0625 87.617188 280.949219 86.085938 280.796875 84.5625 C 280.648438 83.035156 280.460938 81.511719 280.234375 79.992188 C 280.011719 78.476562 279.746094 76.964844 279.449219 75.460938 C 279.148438 73.957031 278.8125 72.457031 278.441406 70.96875 C 278.066406 69.480469 277.660156 68.003906 277.214844 66.535156 C 276.769531 65.066406 276.285156 63.609375 275.769531 62.167969 C 275.253906 60.722656 274.699219 59.289062 274.113281 57.875 C 273.527344 56.457031 272.90625 55.054688 272.25 53.667969 C 271.59375 52.28125 270.902344 50.910156 270.179688 49.554688 C 269.457031 48.203125 268.699219 46.867188 267.910156 45.554688 C 267.125 44.238281 266.300781 42.941406 265.449219 41.664062 C 264.597656 40.390625 263.714844 39.136719 262.800781 37.902344 C 261.886719 36.671875 260.941406 35.460938 259.96875 34.277344 C 258.996094 33.089844 257.996094 31.929688 256.964844 30.792969 C 255.933594 29.65625 254.875 28.542969 253.792969 27.457031 C 252.707031 26.375 251.59375 25.316406 250.457031 24.285156 C 249.320312 23.253906 248.160156 22.253906 246.972656 21.28125 C 245.789062 20.308594 244.578125 19.363281 243.347656 18.449219 C 242.113281 17.535156 240.859375 16.652344 239.585938 15.800781 C 238.308594 14.949219 237.011719 14.125 235.695312 13.339844 C 234.382812 12.550781 233.046875 11.792969 231.695312 11.070312 C 230.339844 10.347656 228.96875 9.65625 227.582031 9 C 226.195312 8.34375 224.792969 7.722656 223.375 7.136719 C 221.960938 6.550781 220.527344 5.996094 219.082031 5.480469 C 217.640625 4.964844 216.183594 4.480469 214.714844 4.035156 C 213.246094 3.589844 211.769531 3.183594 210.28125 2.808594 C 208.792969 2.4375 207.292969 2.101562 205.789062 1.800781 C 204.285156 1.503906 202.773438 1.238281 201.257812 1.015625 C 199.738281 0.789062 198.214844 0.601562 196.6875 0.453125 C 195.164062 0.300781 193.632812 0.1875 192.101562 0.113281 C 190.566406 0.0390625 189.035156 0 187.5 0 C 185.964844 0 184.433594 0.0390625 182.898438 0.113281 C 181.367188 0.1875 179.835938 0.300781 178.3125 0.453125 C 176.785156 0.601562 175.261719 0.789062 173.742188 1.015625 C 172.226562 1.238281 170.714844 1.503906 169.210938 1.800781 C 167.707031 2.101562 166.207031 2.4375 164.71875 2.808594 C 163.230469 3.183594 161.753906 3.589844 160.285156 4.035156 C 158.816406 4.480469 157.359375 4.964844 155.917969 5.480469 C 154.472656 5.996094 153.039062 6.550781 151.625 7.136719 C 150.207031 7.722656 148.804688 8.34375 147.417969 9 C 146.03125 9.65625 144.660156 10.347656 143.304688 11.070312 C 141.953125 11.792969 140.617188 12.550781 139.304688 13.339844 C 137.988281 14.125 136.691406 14.949219 135.414062 15.800781 C 134.140625 16.652344 132.886719 17.535156 131.652344 18.449219 C 130.421875 19.363281 129.210938 20.308594 128.027344 21.28125 C 126.839844 22.253906 125.679688 23.253906 124.542969 24.285156 C 123.40625 25.316406 122.292969 26.375 121.207031 27.457031 C 120.125 28.542969 119.066406 29.65625 118.035156 30.792969 C 117.003906 31.929688 116.003906 33.089844 115.03125 34.277344 C 114.058594 35.460938 113.113281 36.671875 112.199219 37.902344 C 111.285156 39.136719 110.402344 40.390625 109.550781 41.664062 C 108.699219 42.941406 107.875 44.238281 107.089844 45.554688 C 106.300781 46.867188 105.542969 48.203125 104.820312 49.554688 C 104.097656 50.910156 103.40625 52.28125 102.75 53.667969 C 102.09375 55.054688 101.472656 56.457031 100.886719 57.875 C 100.300781 59.289062 99.746094 60.722656 99.230469 62.167969 C 98.714844 63.609375 98.230469 65.066406 97.785156 66.535156 C 97.339844 68.003906 96.933594 69.480469 96.558594 70.96875 C 96.1875 72.457031 95.851562 73.957031 95.550781 75.460938 C 95.253906 76.964844 94.988281 78.476562 94.765625 79.992188 C 94.539062 81.511719 94.351562 83.035156 94.203125 84.5625 C 94.050781 86.085938 93.9375 87.617188 93.863281 89.148438 C 93.789062 90.683594 93.75 92.214844 93.75 93.75 C 93.75 95.285156 93.792969 96.816406 93.867188 98.347656 C 93.945312 99.878906 94.058594 101.410156 94.210938 102.9375 C 94.363281 104.460938 94.550781 105.984375 94.777344 107.5 C 95.003906 109.015625 95.269531 110.527344 95.570312 112.03125 C 95.871094 113.535156 96.207031 115.03125 96.582031 116.519531 C 96.957031 118.007812 97.367188 119.484375 97.8125 120.953125 C 98.257812 122.417969 98.738281 123.875 99.257812 125.320312 C 99.773438 126.761719 100.328125 128.191406 100.914062 129.609375 C 101.503906 131.027344 102.125 132.425781 102.78125 133.8125 C 103.4375 135.199219 104.128906 136.570312 104.851562 137.921875 C 105.574219 139.273438 106.332031 140.609375 107.121094 141.921875 C 107.910156 143.238281 108.730469 144.535156 109.582031 145.808594 C 110.4375 147.082031 111.320312 148.335938 112.234375 149.570312 C 113.148438 150.800781 114.089844 152.007812 115.0625 153.195312 C 116.039062 154.378906 117.039062 155.542969 118.070312 156.675781 C 119.097656 157.8125 120.15625 158.925781 121.242188 160.007812 C 122.324219 161.09375 123.4375 162.152344 124.574219 163.179688 C 125.707031 164.210938 126.871094 165.210938 128.054688 166.1875 C 129.242188 167.160156 130.449219 168.101562 131.679688 169.015625 C 132.914062 169.929688 134.167969 170.8125 135.441406 171.667969 C 136.714844 172.519531 138.011719 173.339844 139.328125 174.128906 C 140.640625 174.917969 141.976562 175.675781 143.328125 176.398438 C 144.679688 177.121094 146.050781 177.8125 147.4375 178.46875 C 148.824219 179.125 150.222656 179.746094 151.640625 180.335938 C 153.058594 180.921875 154.488281 181.476562 155.929688 181.992188 C 157.375 182.511719 158.832031 182.992188 160.296875 183.4375 C 161.765625 183.882812 163.242188 184.292969 164.730469 184.667969 C 166.21875 185.042969 167.714844 185.378906 169.21875 185.679688 C 170.722656 185.980469 172.234375 186.246094 173.75 186.472656 C 175.265625 186.699219 176.789062 186.886719 178.3125 187.039062 C 179.839844 187.191406 181.371094 187.304688 182.902344 187.382812 C 184.433594 187.457031 185.964844 187.5 187.5 187.5 Z M 187.5 18.75 C 188.726562 18.75 189.953125 18.78125 191.179688 18.839844 C 192.40625 18.902344 193.628906 18.992188 194.851562 19.109375 C 196.074219 19.230469 197.289062 19.382812 198.503906 19.5625 C 199.71875 19.742188 200.929688 19.953125 202.132812 20.191406 C 203.335938 20.429688 204.53125 20.699219 205.722656 20.996094 C 206.914062 21.296875 208.097656 21.625 209.269531 21.980469 C 210.445312 22.335938 211.609375 22.71875 212.765625 23.132812 C 213.921875 23.546875 215.066406 23.988281 216.203125 24.460938 C 217.335938 24.929688 218.457031 25.425781 219.566406 25.949219 C 220.675781 26.476562 221.773438 27.027344 222.855469 27.605469 C 223.9375 28.183594 225.003906 28.789062 226.058594 29.421875 C 227.109375 30.050781 228.148438 30.707031 229.167969 31.390625 C 230.1875 32.070312 231.191406 32.777344 232.175781 33.507812 C 233.164062 34.242188 234.128906 34.996094 235.078125 35.773438 C 236.027344 36.554688 236.957031 37.355469 237.867188 38.179688 C 238.777344 39.003906 239.664062 39.847656 240.53125 40.71875 C 241.402344 41.585938 242.246094 42.472656 243.070312 43.382812 C 243.894531 44.292969 244.695312 45.222656 245.476562 46.171875 C 246.253906 47.121094 247.007812 48.085938 247.742188 49.074219 C 248.472656 50.058594 249.179688 51.0625 249.859375 52.082031 C 250.542969 53.101562 251.199219 54.140625 251.828125 55.191406 C 252.460938 56.246094 253.066406 57.3125 253.644531 58.394531 C 254.222656 59.476562 254.773438 60.574219 255.300781 61.683594 C 255.824219 62.792969 256.320312 63.914062 256.789062 65.046875 C 257.261719 66.183594 257.703125 67.328125 258.117188 68.484375 C 258.527344 69.640625 258.914062 70.804688 259.269531 71.980469 C 259.625 73.152344 259.953125 74.335938 260.253906 75.527344 C 260.550781 76.71875 260.820312 77.914062 261.058594 79.117188 C 261.296875 80.320312 261.507812 81.53125 261.6875 82.746094 C 261.867188 83.960938 262.019531 85.175781 262.140625 86.398438 C 262.257812 87.621094 262.347656 88.84375 262.410156 90.070312 C 262.46875 91.296875 262.5 92.523438 262.5 93.75 C 262.5 94.976562 262.46875 96.203125 262.410156 97.429688 C 262.347656 98.65625 262.257812 99.878906 262.140625 101.101562 C 262.019531 102.324219 261.867188 103.539062 261.6875 104.753906 C 261.507812 105.96875 261.296875 107.179688 261.058594 108.382812 C 260.820312 109.585938 260.550781 110.78125 260.253906 111.972656 C 259.953125 113.164062 259.625 114.347656 259.269531 115.519531 C 258.914062 116.695312 258.527344 117.859375 258.117188 119.015625 C 257.703125 120.171875 257.261719 121.316406 256.789062 122.453125 C 256.320312 123.585938 255.824219 124.707031 255.300781 125.816406 C 254.773438 126.925781 254.222656 128.023438 253.644531 129.105469 C 253.066406 130.1875 252.460938 131.253906 251.828125 132.308594 C 251.199219 133.359375 250.542969 134.398438 249.859375 135.417969 C 249.179688 136.4375 248.472656 137.441406 247.742188 138.425781 C 247.007812 139.414062 246.253906 140.378906 245.476562 141.328125 C 244.695312 142.277344 243.894531 143.207031 243.070312 144.117188 C 242.246094 145.027344 241.402344 145.914062 240.53125 146.78125 C 239.664062 147.652344 238.777344 148.496094 237.867188 149.320312 C 236.957031 150.144531 236.027344 150.945312 235.078125 151.726562 C 234.128906 152.503906 233.164062 153.257812 232.175781 153.992188 C 231.191406 154.722656 230.1875 155.429688 229.167969 156.109375 C 228.148438 156.792969 227.109375 157.449219 226.058594 158.078125 C 225.003906 158.710938 223.9375 159.316406 222.855469 159.894531 C 221.773438 160.472656 220.675781 161.023438 219.566406 161.550781 C 218.457031 162.074219 217.335938 162.570312 216.203125 163.039062 C 215.066406 163.511719 213.921875 163.953125 212.765625 164.367188 C 211.609375 164.78125 210.445312 165.164062 209.269531 165.519531 C 208.097656 165.875 206.914062 166.203125 205.722656 166.503906 C 204.53125 166.800781 203.335938 167.070312 202.132812 167.308594 C 200.929688 167.546875 199.71875 167.757812 198.503906 167.9375 C 197.289062 168.117188 196.074219 168.269531 194.851562 168.390625 C 193.628906 168.507812 192.40625 168.597656 191.179688 168.660156 C 189.953125 168.71875 188.726562 168.75 187.5 168.75 C 186.273438 168.75 185.046875 168.71875 183.820312 168.660156 C 182.59375 168.597656 181.371094 168.507812 180.148438 168.390625 C 178.925781 168.269531 177.710938 168.117188 176.496094 167.9375 C 175.28125 167.757812 174.070312 167.546875 172.867188 167.308594 C 171.664062 167.070312 170.46875 166.800781 169.277344 166.503906 C 168.085938 166.203125 166.902344 165.875 165.730469 165.519531 C 164.554688 165.164062 163.390625 164.78125 162.234375 164.367188 C 161.078125 163.953125 159.933594 163.511719 158.796875 163.039062 C 157.664062 162.570312 156.542969 162.074219 155.433594 161.550781 C 154.324219 161.023438 153.226562 160.472656 152.144531 159.894531 C 151.0625 159.316406 149.996094 158.710938 148.941406 158.078125 C 147.890625 157.449219 146.851562 156.792969 145.832031 156.109375 C 144.8125 155.429688 143.808594 154.722656 142.824219 153.992188 C 141.835938 153.257812 140.871094 152.503906 139.921875 151.726562 C 138.972656 150.945312 138.042969 150.144531 137.132812 149.320312 C 136.222656 148.496094 135.335938 147.652344 134.46875 146.78125 C 133.597656 145.914062 132.753906 145.027344 131.929688 144.117188 C 131.105469 143.207031 130.304688 142.277344 129.523438 141.328125 C 128.746094 140.378906 127.992188 139.414062 127.257812 138.425781 C 126.527344 137.441406 125.820312 136.4375 125.140625 135.417969 C 124.457031 134.398438 123.800781 133.359375 123.171875 132.308594 C 122.539062 131.253906 121.933594 130.1875 121.355469 129.105469 C 120.777344 128.023438 120.226562 126.925781 119.699219 125.816406 C 119.175781 124.707031 118.679688 123.585938 118.210938 122.453125 C 117.738281 121.316406 117.296875 120.171875 116.882812 119.015625 C 116.46875 117.859375 116.085938 116.695312 115.730469 115.519531 C 115.375 114.347656 115.046875 113.164062 114.746094 111.972656 C 114.449219 110.78125 114.179688 109.585938 113.941406 108.382812 C 113.703125 107.179688 113.492188 105.96875 113.3125 104.753906 C 113.132812 103.539062 112.980469 102.324219 112.859375 101.101562 C 112.742188 99.878906 112.652344 98.65625 112.589844 97.429688 C 112.53125 96.203125 112.5 94.976562 112.5 93.75 C 112.5 92.523438 112.53125 91.296875 112.59375 90.070312 C 112.65625 88.84375 112.746094 87.621094 112.867188 86.402344 C 112.988281 85.179688 113.140625 83.960938 113.320312 82.75 C 113.503906 81.535156 113.714844 80.328125 113.953125 79.125 C 114.195312 77.921875 114.464844 76.722656 114.761719 75.53125 C 115.0625 74.34375 115.390625 73.160156 115.746094 71.988281 C 116.101562 70.8125 116.488281 69.648438 116.902344 68.492188 C 117.316406 67.335938 117.757812 66.195312 118.230469 65.058594 C 118.699219 63.925781 119.195312 62.804688 119.722656 61.695312 C 120.246094 60.585938 120.796875 59.492188 121.378906 58.410156 C 121.957031 57.328125 122.5625 56.261719 123.191406 55.207031 C 123.824219 54.15625 124.480469 53.121094 125.164062 52.097656 C 125.84375 51.078125 126.550781 50.078125 127.28125 49.089844 C 128.011719 48.105469 128.769531 47.136719 129.546875 46.191406 C 130.324219 45.242188 131.125 44.3125 131.949219 43.402344 C 132.773438 42.496094 133.621094 41.605469 134.488281 40.738281 C 135.355469 39.871094 136.246094 39.023438 137.152344 38.199219 C 138.0625 37.375 138.992188 36.574219 139.941406 35.796875 C 140.886719 35.019531 141.855469 34.261719 142.839844 33.53125 C 143.828125 32.800781 144.828125 32.09375 145.847656 31.414062 C 146.871094 30.730469 147.90625 30.074219 148.957031 29.441406 C 150.011719 28.8125 151.078125 28.207031 152.160156 27.628906 C 153.242188 27.046875 154.335938 26.496094 155.445312 25.972656 C 156.554688 25.445312 157.675781 24.949219 158.808594 24.480469 C 159.945312 24.007812 161.085938 23.566406 162.242188 23.152344 C 163.398438 22.738281 164.5625 22.351562 165.738281 21.996094 C 166.910156 21.640625 168.09375 21.3125 169.28125 21.011719 C 170.472656 20.714844 171.671875 20.445312 172.875 20.203125 C 174.078125 19.964844 175.285156 19.753906 176.5 19.570312 C 177.710938 19.390625 178.929688 19.238281 180.152344 19.117188 C 181.371094 18.996094 182.59375 18.90625 183.820312 18.84375 C 185.046875 18.78125 186.273438 18.75 187.5 18.75 Z M 187.5 18.75 " fill-opacity="1" fill-rule="nonzero"/></svg>